<?xml version="1.0" encoding="UTF-8"?>
<!DOCTYPE svg PUBLIC "-//W3C//DTD SVG 1.1//EN" "http://www.w3.org/Graphics/SVG/1.1/DTD/svg11.dtd">
<!-- Creator: CorelDRAW 2021 (64-Bit) -->
<svg xmlns="http://www.w3.org/2000/svg" xml:space="preserve" width="11.818in" height="11.818in" version="1.1" style="shape-rendering:geometricPrecision; text-rendering:geometricPrecision; image-rendering:optimizeQuality; fill-rule:evenodd; clip-rule:evenodd"
viewBox="0 0 10571.35 10571.35"
 xmlns:xlink="http://www.w3.org/1999/xlink"
 xmlns:xodm="http://www.corel.com/coreldraw/odm/2003">
 <defs>
  <style type="text/css">
   <![CDATA[
    .str0 {stroke:#E31E24;stroke-width:6.21;stroke-miterlimit:2.61313}
    .fil0 {fill:none}
   ]]>
  </style>
 </defs>
 <g id="Layer_x0020_1">
  <metadata id="CorelCorpID_0Corel-Layer"/>
  <path class="fil0 str0" d="M5285.67 3.11c2917.48,0 5282.57,2365.09 5282.57,5282.57 0,2917.48 -2365.09,5282.57 -5282.57,5282.57 -2917.48,0 -5282.57,-2365.09 -5282.57,-5282.57 0,-2917.48 2365.09,-5282.57 5282.57,-5282.57zm-2184.52 5247.35l952.45 0c18.32,-652.75 544.1,-1178.53 1196.85,-1196.85l0 -952.45 70.43 0 0 952.45c652.75,18.32 1178.53,544.1 1196.85,1196.85l952.45 0 0 70.43 -952.45 0c-18.32,652.75 -544.1,1178.53 -1196.85,1196.85l0 952.45 -70.43 0 0 -952.45c-652.75,-18.32 -1178.53,-544.1 -1196.85,-1196.85l-952.45 0 0 -70.43z"/>
 </g>
</svg>
