<?xml version="1.0" encoding="UTF-8"?>
<!DOCTYPE svg PUBLIC "-//W3C//DTD SVG 1.1//EN" "http://www.w3.org/Graphics/SVG/1.1/DTD/svg11.dtd">
<!-- Creator: CorelDRAW 2021 (64-Bit) -->
<svg xmlns="http://www.w3.org/2000/svg" xml:space="preserve" width="3.65792in" height="3.65792in" version="1.1" style="shape-rendering:geometricPrecision; text-rendering:geometricPrecision; image-rendering:optimizeQuality; fill-rule:evenodd; clip-rule:evenodd"
viewBox="0 0 3657.92 3657.92"
 xmlns:xlink="http://www.w3.org/1999/xlink"
 xmlns:xodm="http://www.corel.com/coreldraw/odm/2003">
 <defs>
  <style type="text/css">
   <![CDATA[
    .str0 {stroke:red;stroke-miterlimit:2.61313}
    .fil0 {fill:none}
   ]]>
  </style>
 </defs>
 <g id="Layer_x0020_1">
  <metadata id="CorelCorpID_0Corel-Layer"/>
  <polygon class="fil0 str0" points="280.77,1450.52 296.59,1446.52 318.34,1441.02 319.24,1440.89 343.57,1437.38 349.41,1436.54 349.58,1435.85 350.17,1433.51 362.63,1384.08 413.25,1242.51 414.83,1239.17 477.7,1106.47 554.82,977.56 644.59,856.94 718.76,774.92 751.41,807.56 785.17,841.32 807.6,863.76 819.78,875.93 822.54,878.69 849.04,849.43 878.7,822.55 872.04,815.89 855.36,799.21 827.67,771.51 774.91,718.76 856.94,644.59 977.56,554.82 1106.47,477.7 1242.51,413.25 1384.08,362.63 1433.51,350.31 1436.52,349.56 1437.9,339.96 1441.02,318.34 1441.63,315.96 1446.52,296.59 1450.52,280.77 1463.56,243.99 1480.17,209.19 1500.34,175.58 1523.28,144.74 1549.38,115.87 1578.24,89.77 1609.09,66.83 1629.65,54.5 1642.7,46.67 1677.5,30.06 1714.28,17 1725.24,14.24 1751.85,7.52 1790.2,1.98 1828.96,0 1867.72,1.98 1906.07,7.52 1932.69,14.24 1943.64,17 1980.42,30.06 2015.22,46.67 2034.59,58.29 2048.83,66.83 2079.68,89.77 2108.54,115.87 2134.65,144.74 2157.58,175.58 2177.75,209.19 2194.36,243.99 2207.41,280.77 2211.4,296.59 2216.9,318.34 2217.03,319.24 2220.54,343.57 2221.4,349.56 2222.08,349.72 2224.41,350.31 2273.84,362.63 2415.41,413.25 2551.45,477.7 2680.37,554.82 2800.98,644.59 2883.01,718.76 2850.36,751.41 2816.6,785.17 2794.17,807.6 2782.02,819.75 2779.22,822.55 2808.89,849.43 2835.39,878.69 2842.03,872.04 2858.71,855.36 2886.41,827.67 2926.17,787.91 2939.16,774.92 3013.33,856.94 3103.1,977.56 3180.22,1106.47 3244.67,1242.51 3295.29,1384.08 3307.75,1433.51 3308.51,1436.54 3318.61,1438 3339.58,1441.02 3361.33,1446.52 3377.15,1450.52 3413.93,1463.56 3448.73,1480.17 3482.34,1500.34 3513.19,1523.28 3542.05,1549.38 3568.15,1578.24 3591.09,1609.09 3606.04,1634 3611.26,1642.7 3627.87,1677.5 3640.92,1714.28 3650.41,1751.85 3654.36,1779.24 3655.94,1790.2 3657.92,1828.96 3655.94,1867.72 3654.36,1878.68 3650.41,1906.07 3640.92,1943.64 3627.87,1980.42 3611.26,2015.22 3597.02,2038.94 3591.09,2048.83 3568.15,2079.68 3542.05,2108.54 3513.19,2134.65 3482.34,2157.58 3448.73,2177.75 3413.93,2194.36 3377.15,2207.41 3361.33,2211.4 3339.58,2216.9 3338.68,2217.03 3314.35,2220.54 3308.51,2221.38 3308.34,2222.07 3307.75,2224.41 3295.29,2273.84 3244.67,2415.41 3180.22,2551.45 3103.1,2680.37 3013.33,2800.98 2939.16,2883 2906.52,2850.37 2872.75,2816.6 2850.85,2794.69 2838.35,2782.2 2835.52,2779.36 2808.89,2808.89 2779.43,2835.58 2786.27,2842.42 2802.56,2858.71 2830.26,2886.41 2870.02,2926.17 2883.01,2939.16 2800.98,3013.33 2680.37,3103.1 2551.45,3180.61 2415.41,3244.67 2389.98,3253.77 2273.84,3295.29 2224.41,3307.75 2221.38,3308.51 2219.93,3318.61 2216.9,3339.58 2207.41,3377.15 2194.36,3413.93 2177.75,3448.73 2157.58,3482.34 2134.65,3513.19 2108.54,3542.05 2079.68,3568.15 2048.83,3591.09 2034.59,3599.63 2015.22,3611.26 1980.42,3627.87 1943.64,3640.92 1906.07,3650.41 1867.72,3655.94 1828.96,3657.92 1790.2,3655.94 1751.85,3650.41 1714.28,3640.92 1677.5,3627.87 1642.7,3611.26 1629.65,3603.43 1609.09,3591.09 1578.24,3568.15 1549.38,3542.05 1523.28,3513.19 1500.34,3482.34 1480.17,3448.73 1463.56,3413.93 1450.52,3377.15 1441.02,3339.58 1437.38,3314.35 1436.54,3308.51 1435.85,3308.34 1433.51,3307.75 1384.08,3295.29 1267.94,3253.77 1242.51,3244.67 1106.47,3180.61 977.56,3103.1 856.94,3013.33 774.91,2939.16 878.5,2835.58 849.04,2808.89 822.41,2779.36 819.57,2782.2 718.76,2883 644.59,2800.98 554.82,2680.37 477.7,2551.45 414.83,2418.75 413.25,2415.41 362.63,2273.84 350.17,2224.41 349.41,2221.38 339.31,2219.93 318.34,2216.9 315.96,2216.3 296.59,2211.4 280.77,2207.41 244,2194.36 209.19,2177.75 175.58,2157.58 144.74,2134.65 115.87,2108.54 89.77,2079.68 66.83,2048.83 60.9,2038.94 46.67,2015.22 30.06,1980.42 17,1943.64 7.52,1906.07 1.98,1867.72 -0,1828.96 1.98,1790.2 7.52,1751.85 17,1714.28 30.06,1677.5 46.67,1642.7 51.89,1634 66.83,1609.09 89.77,1578.24 115.87,1549.38 144.74,1523.28 175.58,1500.34 209.19,1480.17 244,1463.56 "/>
 </g>
</svg>
