<?xml version="1.0" encoding="UTF-8"?>
<!DOCTYPE svg PUBLIC "-//W3C//DTD SVG 1.1//EN" "http://www.w3.org/Graphics/SVG/1.1/DTD/svg11.dtd">
<!-- Creator: CorelDRAW 2021 (64-Bit) -->
<svg xmlns="http://www.w3.org/2000/svg" xml:space="preserve" width="3.65792in" height="3.65792in" version="1.1" style="shape-rendering:geometricPrecision; text-rendering:geometricPrecision; image-rendering:optimizeQuality; fill-rule:evenodd; clip-rule:evenodd"
viewBox="0 0 3657.92 3657.92"
 xmlns:xlink="http://www.w3.org/1999/xlink"
 xmlns:xodm="http://www.corel.com/coreldraw/odm/2003">
 <defs>
  <style type="text/css">
   <![CDATA[
    .str0 {stroke:red;stroke-miterlimit:2.61313}
    .fil0 {fill:none}
   ]]>
  </style>
 </defs>
 <g id="Layer_x0020_1">
  <metadata id="CorelCorpID_0Corel-Layer"/>
  <path class="fil0 str0" d="M280.77 1450.52l15.82 -4 21.75 -5.5 0.91 -0.13 24.33 -3.51 5.84 -0.84 0.17 -0.69 0.59 -2.34 12.46 -49.43 50.62 -141.57 58.92 -124.35 5.54 -11.69 77.11 -128.92 89.77 -120.61 74.17 -82.03 32.65 32.64 33.76 33.77 22.43 22.43 12.17 12.18 2.76 2.76 26.5 -29.26 29.67 -26.88 -6.66 -6.66 -16.68 -16.68 -27.7 -27.7 -52.75 -52.75 82.03 -74.18 120.61 -89.77 59.32 -35.48 69.6 -41.63 136.04 -64.46 141.57 -50.62 49.43 -12.32 3.01 -0.75 1.38 -9.59 3.12 -21.63 0.6 -2.38 4.89 -19.37 4 -15.82 13.05 -36.78 16.61 -34.8 20.17 -33.61 22.94 -30.85 26.1 -28.87 28.87 -26.1 30.85 -22.94 33.61 -20.17 34.8 -16.61 9.49 -3.37 27.29 -9.69 10.96 -2.76 26.61 -6.72 38.36 -5.54 38.76 -1.98 38.76 1.98 38.36 5.54 26.61 6.72 10.96 2.76 36.78 13.05 34.8 16.61 33.61 20.17 30.85 22.94 12.26 11.09 16.61 15.02 26.1 28.87 22.94 30.85 20.17 33.61 16.61 34.8 13.05 36.78 4 15.82 5.5 21.75 0.13 0.91 3.51 24.33 0.86 5.98 0.68 0.17 2.33 0.58 49.43 12.32 141.57 50.62 136.04 64.46 69.2 41.39 59.71 35.72 120.61 89.77 82.03 74.18 -32.65 32.64 -33.76 33.76 -22.43 22.43 -12.15 12.15 -2.8 2.8 29.67 26.88 26.5 29.26 6.65 -6.65 16.68 -16.68 27.7 -27.7 39.76 -39.76 12.99 -12.99 74.17 82.03 89.77 120.61 77.11 128.92 64.46 136.04 50.62 141.57 12.46 49.43 0.76 3.03 10.1 1.46 20.97 3.03 21.75 5.5 15.82 4 36.78 13.05 34.8 16.61 33.61 20.17 30.85 22.93 28.87 26.1 26.1 28.87 22.94 30.85 14.94 24.91 5.22 8.7 16.61 34.8 13.05 36.78 9.49 37.57 5.54 38.36 1.98 38.76 -1.98 38.76 -5.54 38.36 -9.49 37.57 -13.05 36.78 -16.61 34.8 -14.24 23.73 -5.93 9.89 -22.94 30.85 -26.1 28.87 -28.87 26.1 -30.85 22.93 -33.61 20.17 -34.8 16.61 -36.78 13.05 -15.82 4 -21.75 5.5 -0.91 0.13 -24.33 3.51 -5.84 0.84 -0.76 3.03 -12.46 49.43 -50.62 141.57 -64.46 136.04 -41.63 69.6 -35.48 59.32 -89.77 120.61 -74.17 82.03 -32.65 -32.64 -33.76 -33.77 -21.91 -21.91 -12.49 -12.49 -2.83 -2.83 -26.63 29.52 -29.46 26.69 6.85 6.84 16.29 16.29 27.7 27.7 39.76 39.76 12.99 12.99 -82.03 74.18 -120.61 89.77 -128.92 77.51 -136.04 64.06 -25.44 9.09 -116.13 41.52 -49.43 12.46 -3.03 0.76 -1.46 10.1 -3.03 20.97 -9.49 37.57 -13.05 36.78 -16.61 34.8 -20.17 33.61 -22.94 30.85 -26.1 28.87 -16.61 15.02 -12.26 11.09 -30.85 22.94 -33.61 20.17 -34.8 16.61 -36.78 13.05 -37.57 9.49 -38.36 5.54 -38.76 1.98 -38.76 -1.98 -38.36 -5.54 -37.57 -9.49 -27.29 -9.69 -9.49 -3.37 -34.8 -16.61 -33.61 -20.17 -30.85 -22.94 -28.87 -26.1 -26.1 -28.87 -22.94 -30.85 -20.17 -33.61 -16.61 -34.8 -13.05 -36.78 -9.49 -37.57 -3.64 -25.23 -0.84 -5.84 -0.69 -0.17 -2.34 -0.59 -49.43 -12.46 -116.13 -41.52 -25.44 -9.09 -136.04 -64.06 -69.6 -41.84 -59.32 -35.67 -120.61 -89.77 -82.03 -74.18 103.59 -103.58 -29.46 -26.69 -26.63 -29.52 -2.83 2.83 -100.81 100.81 -74.17 -82.03 -89.77 -120.61 -77.11 -128.92 -64.46 -136.04 -50.62 -141.57 -12.46 -49.43 -0.76 -3.03 -10.1 -1.46 -20.97 -3.03 -2.38 -0.6 -19.37 -4.89 -15.82 -4 -36.78 -13.05 -34.8 -16.61 -33.61 -20.17 -30.85 -22.93 -28.87 -26.1 -26.1 -28.87 -22.94 -30.85 -5.93 -9.89 -14.24 -23.73 -16.61 -34.8 -13.05 -36.78 -9.49 -37.57 -5.54 -38.36 -1.98 -38.76 1.98 -38.76 5.54 -38.36 9.49 -37.57 13.05 -36.78 16.61 -34.8 5.22 -8.7 14.94 -24.91 22.94 -30.85 26.1 -28.87 28.87 -26.1 30.85 -22.93 33.61 -20.17 34.8 -16.61 36.78 -13.05m1017.72 -208.17l-16.44 14.86 -13.05 11.8 -26.67 29.49 -25.54 28.24 -46.27 62.08 -39.94 66.83 -33.22 70.39 -26.1 73.16 -8.79 34.8 -10.19 40.33 -11.47 77.11 -3.95 77.51 3.95 77.51 11.47 77.11 18.98 75.13 26.1 73.16 33.22 70.39 39.94 66.83 46.27 62.08 25.54 28.24 26.67 29.49 13.05 11.8 16.44 14.86 28.24 25.54 62.08 46.27 44.69 26.71 22.14 13.23 70.39 33.22 73.16 26.1 75.13 18.98 77.11 11.46 77.51 3.96 77.51 -3.96 77.11 -11.46 75.13 -18.98 33.22 -11.85 39.94 -14.25 70.39 -33.22 22.14 -13.23 44.69 -26.71 58.37 -43.5 3.71 -2.77 28.24 -25.54 29.49 -26.66 26.67 -29.49 25.54 -28.24 46.27 -62.08 39.94 -66.83 33.22 -70.39 26.1 -73.16 18.98 -75.13 11.47 -77.11 3.56 -77.51 -3.56 -77.51 -11.47 -77.11 -10.19 -40.33 -8.79 -34.8 -26.1 -73.16 -33.22 -70.39 -39.94 -66.83 -46.27 -62.08 -25.54 -28.24 -26.67 -29.49 -29.49 -26.66 -28.24 -25.54 -62.08 -46.27 -44.69 -26.71 -22.14 -13.23 -70.39 -33.22 -39.94 -14.25 -33.22 -11.85 -75.13 -18.98 -77.11 -11.46 -77.51 -3.56 -77.51 3.56 -77.11 11.46 -75.13 18.98 -73.16 26.1 -70.39 33.22 -22.14 13.23 -44.69 26.71 -62.08 46.27 -28.24 25.54z"/>
 </g>
</svg>
