<?xml version="1.0" encoding="UTF-8"?>
<!DOCTYPE svg PUBLIC "-//W3C//DTD SVG 1.1//EN" "http://www.w3.org/Graphics/SVG/1.1/DTD/svg11.dtd">
<!-- Creator: CorelDRAW 2021 (64-Bit) -->
<svg xmlns="http://www.w3.org/2000/svg" xml:space="preserve" width="4.72441in" height="4.72441in" version="1.1" style="shape-rendering:geometricPrecision; text-rendering:geometricPrecision; image-rendering:optimizeQuality; fill-rule:evenodd; clip-rule:evenodd"
viewBox="0 0 4724.41 4724.41"
 xmlns:xlink="http://www.w3.org/1999/xlink"
 xmlns:xodm="http://www.corel.com/coreldraw/odm/2003">
 <defs>
  <style type="text/css">
   <![CDATA[
    .str0 {stroke:red;stroke-miterlimit:2.61313}
    .fil0 {fill:none}
   ]]>
  </style>
 </defs>
 <g id="Layer_x0020_1">
  <metadata id="CorelCorpID_0Corel-Layer"/>
  <path class="fil0 str0" d="M4188.19 863.78l136.43 183.86 1.76 2.36 119.29 198.82 87.4 185.25 11.42 24.2 78.35 218.11 56.3 224.8 33.86 229.53 11.42 231.5 -11.42 231.5 -9.81 66.54 -24.05 162.99 -56.3 224.8 -78.35 218.11 -98.82 209.45 -119.29 198.82 -138.19 186.22 -155.51 172.05 -172.05 155.51 -17.32 12.85 -168.9 125.33 -198.82 119.29 -25.98 12.26 -159.26 75.14 -24.2 11.42 -218.11 78.35 -224.8 56.3 -229.53 33.86 -231.5 11.42 -231.5 -11.42 -229.53 -33.86 -224.8 -56.3 -218.11 -78.35 -24.2 -11.42 -159.26 -75.14 -25.98 -12.26 -198.82 -119.29 -186.22 -138.19 -172.05 -155.51 -73.62 -81.45 -81.89 -90.6 -138.19 -186.22 -119.29 -198.82 -87.4 -185.25 -11.42 -24.2 -78.35 -218.11 -56.3 -224.8 -33.86 -229.53 -11.42 -231.5 11.42 -231.5 33.86 -229.53 56.3 -224.8 78.35 -218.11 11.42 -24.2 87.4 -185.25 119.29 -198.82 1.75 -2.36 136.44 -183.86 81.89 -90.6 73.62 -81.45 172.05 -155.51 186.22 -138.19 198.82 -119.29 184.41 -87.01 25.03 -11.81 218.11 -78.35 224.8 -56.3 229.53 -33.86 231.5 -11.42 231.5 11.42 229.53 33.86 224.8 56.3 218.11 78.35 25.03 11.81 184.42 87.01 198.82 119.29 168.9 125.33 17.32 12.85 172.05 155.51 155.51 172.05m-1866.54 -672.05l0 855.91 0 227.17 80.71 0 0 -227.17 0 -855.91 -80.71 0m-713.78 2399.21l24.72 69.29 1.26 3.54 33.07 70.08 39.76 66.54 46.06 61.81 51.97 57.48 57.48 51.97 61.81 46.06 66.54 39.76 70.08 33.07 72.83 25.98 74.8 18.9 22.44 3.33 54.33 8.08 77.17 3.94 77.17 -3.94 76.77 -11.42 74.8 -18.9 72.83 -25.98 70.08 -33.07 66.54 -39.76 61.81 -46.06 57.48 -51.97 51.97 -57.48 46.06 -61.81 19.29 -32.28 20.47 -34.26 33.07 -70.08 1.26 -3.54 24.72 -69.29 18.9 -74.8 11.42 -76.77 3.94 -77.17 -3.94 -77.17 -11.42 -76.77 -18.9 -74.8 -25.98 -72.83 -33.07 -70.08 -39.76 -66.54 -46.06 -61.81 -7.48 -8.27 -44.49 -49.21 -57.48 -51.97 -61.81 -46.06 -66.54 -39.76 -70.08 -33.07 -72.83 -25.98 -74.8 -18.9 -76.77 -11.42 -77.17 -3.54 -77.17 3.54 -54.33 8.08 -22.44 3.33 -74.8 18.9 -72.83 25.98 -70.08 33.07 -66.54 39.76 -61.81 46.06 -57.48 51.97 -44.49 49.21 -7.48 8.27 -46.06 61.81 -39.76 66.54 -33.07 70.08 -25.98 72.83 -18.9 74.8 -11.42 76.77 -3.94 77.17 3.94 77.17 11.42 76.77 18.9 74.8m2925.2 -268.9l-689.76 0 -393.7 0 0 80.71 393.7 0 689.76 0 0 -80.71m-3258.27 0l-656.69 0 -426.77 0 0 80.71 426.77 0 656.69 0 0 -80.71m1127.56 2211.02l0 -1083.07 -80.71 0 0 1083.07 80.71 0z"/>
 </g>
</svg>
