<?xml version="1.0" encoding="UTF-8"?>
<!DOCTYPE svg PUBLIC "-//W3C//DTD SVG 1.1//EN" "http://www.w3.org/Graphics/SVG/1.1/DTD/svg11.dtd">
<!-- Creator: CorelDRAW 2021 (64-Bit) -->
<svg xmlns="http://www.w3.org/2000/svg" xml:space="preserve" width="1.41861in" height="8.34557in" version="1.1" style="shape-rendering:geometricPrecision; text-rendering:geometricPrecision; image-rendering:optimizeQuality; fill-rule:evenodd; clip-rule:evenodd"
viewBox="0 0 1086.12 6389.56"
 xmlns:xlink="http://www.w3.org/1999/xlink"
 xmlns:xodm="http://www.corel.com/coreldraw/odm/2003">
 <defs>
  <style type="text/css">
   <![CDATA[
    .str0 {stroke:red;stroke-miterlimit:2.61313}
    .fil0 {fill:none}
   ]]>
  </style>
 </defs>
 <g id="Layer_x0020_1">
  <metadata id="CorelCorpID_0Corel-Layer"/>
  <path class="fil0 str0" d="M1086.12 211.28l-0.75 0 -112.27 0 0 -1.51 0 -60.28 112.27 0 0.75 0 0 -149.49 -0.75 0 -113.02 0 -639.56 0 0 209.77 149.49 0 0 60.28 -149.49 0 0 121.16 -0.3 0 0 59.98 0 2953.97 -31.06 0 0 301.69 -30.14 0 0 301.7 -30.14 0.01 0 301.69 -30.14 0 0 301.4 -30.14 0.01 0 301.69 -30.14 0.01 0 301.69 -30.14 0.01 0 301.69 -30.14 0.01 0 299.02 -30.14 0 0 304.07 -60.29 0 332.49 269.75 639.86 0 113.02 0 0.75 0 0 -119.95 0 -29.54 0 -59.98 -0.75 0 -112.27 0 0 -0.3 0 -59.98 0 -0.3 0 -1.2 111.97 0 0.3 0 0.75 0c0,-923.98 0,-1847.95 0,-2771.93l-0.75 0 -0.3 0 -111.97 0 0 -1.51 0 -60.28 112.27 0 0.75 0 0 -2833.41 0 -59.98 0 -121.16 0 -58.77z"/>
 </g>
</svg>
