<?xml version="1.0" encoding="UTF-8"?>
<!DOCTYPE svg PUBLIC "-//W3C//DTD SVG 1.1//EN" "http://www.w3.org/Graphics/SVG/1.1/DTD/svg11.dtd">
<!-- Creator: CorelDRAW 2021 (64-Bit) -->
<svg xmlns="http://www.w3.org/2000/svg" xml:space="preserve" width="3.65792in" height="3.65792in" version="1.1" style="shape-rendering:geometricPrecision; text-rendering:geometricPrecision; image-rendering:optimizeQuality; fill-rule:evenodd; clip-rule:evenodd"
viewBox="0 0 3657.92 3657.92"
 xmlns:xlink="http://www.w3.org/1999/xlink"
 xmlns:xodm="http://www.corel.com/coreldraw/odm/2003">
 <defs>
  <style type="text/css">
   <![CDATA[
    .str0 {stroke:red;stroke-miterlimit:2.61313}
    .fil0 {fill:none}
   ]]>
  </style>
 </defs>
 <g id="Layer_x0020_1">
  <metadata id="CorelCorpID_0Corel-Layer"/>
  <path class="fil0 str0" d="M280.77 1450.52l15.82 -4 21.75 -5.5 0.91 -0.13 24.33 -3.51 5.84 -0.84 0.17 -0.69 0.59 -2.34 12.46 -49.43 50.62 -141.57 64.46 -136.04 77.11 -128.92 86.6 -116.36 3.17 -4.25 74.17 -82.03 32.65 32.64 33.76 33.77 22.43 22.43 12.17 12.18 2.76 2.76 26.5 -29.26 29.67 -26.88 -6.66 -6.66 -16.68 -16.68 -27.7 -27.7 -52.75 -52.75 82.03 -74.18 3.72 -2.77 116.89 -87 128.92 -77.11 72.76 -34.48 63.27 -29.98 141.57 -50.62 49.43 -12.32 3.01 -0.75 1.38 -9.59 3.12 -21.63 0.6 -2.38 4.89 -19.37 4 -15.82 13.05 -36.78 16.61 -34.8 20.17 -33.61 22.93 -30.85 26.1 -28.87 28.87 -26.1 5.93 -4.41 24.91 -18.53 33.61 -20.17 34.8 -16.61 36.78 -13.05 10.96 -2.76 26.61 -6.72 38.36 -5.54 38.76 -1.98 38.76 1.98 38.36 5.54 26.61 6.72 10.96 2.76 36.78 13.05 8.7 4.15 26.1 12.46 33.61 20.17 30.85 22.94 28.87 26.1 26.1 28.87 22.93 30.85 20.17 33.61 16.61 34.8 13.05 36.78 4 15.82 5.5 21.75 0.13 0.91 3.51 24.33 0.86 5.98 0.68 0.17 2.33 0.58 49.43 12.32 141.57 50.62 136.04 64.46 128.92 77.11 116.89 87 1.74 1.3 1.98 1.47 82.03 74.18 -32.65 32.64 -33.76 33.76 -17.6 17.6 -19.78 19.78 19.78 17.92 9.89 8.96 26.5 29.26 6.65 -6.65 16.68 -16.68 22.31 -22.32 5.38 -5.38 39.76 -39.76 12.99 -12.99 74.17 82.03 2.77 3.72 87 116.89 77.11 128.92 64.46 136.04 50.62 141.57 12.46 49.43 0.76 3.03 10.1 1.46 20.97 3.03 21.75 5.5 15.82 4 36.78 13.05 34.8 16.61 33.61 20.17 30.85 22.93 28.87 26.1 26.1 28.87 22.93 30.85 14.95 24.91 2.85 4.74 2.37 3.96 16.61 34.8 13.05 36.78 9.49 37.57 5.54 38.36 1.98 38.76 -1.98 38.76 -5.54 38.36 -9.49 37.57 -13.05 36.78 -16.61 34.8 -2.37 3.96 -17.8 29.66 -22.93 30.85 -26.1 28.87 -28.87 26.1 -30.85 22.93 -33.61 20.17 -34.8 16.61 -36.78 13.05 -15.82 4 -21.75 5.5 -0.91 0.13 -24.33 3.51 -5.84 0.84 -0.17 0.69 -0.59 2.34 -12.46 49.43 -50.62 141.57 -64.46 136.04 -77.11 128.92 -87 116.89 -2.77 3.72 -74.17 82.03 -100.81 -100.81 -2.83 -2.83 -26.63 29.52 -9.89 8.96 -19.57 17.74 6.84 6.84 12.73 12.73 84.01 84 -82.03 74.18 -1.98 1.47 -2.27 1.69 -116.36 86.6 -128.92 77.51 -136.04 64.06 -25.44 9.09 -116.13 41.52 -49.43 12.46 -3.03 0.76 -1.46 10.1 -3.03 20.97 -9.49 37.57 -13.05 36.78 -16.61 34.8 -20.17 33.61 -22.93 30.85 -26.1 28.87 -28.87 26.1 -30.85 22.94 -33.61 20.17 -26.1 12.46 -8.7 4.15 -36.78 13.05 -37.57 9.49 -38.36 5.54 -38.76 1.98 -38.76 -1.98 -38.36 -5.54 -37.57 -9.49 -36.78 -13.05 -34.8 -16.61 -33.61 -20.17 -24.91 -18.53 -5.93 -4.41 -28.87 -26.1 -26.1 -28.87 -22.93 -30.85 -20.17 -33.61 -16.61 -34.8 -13.05 -36.78 -9.49 -37.57 -3.64 -25.23 -0.84 -5.84 -0.69 -0.17 -2.34 -0.59 -49.43 -12.46 -116.13 -41.52 -25.44 -9.09 -63.27 -29.8 -72.76 -34.27 -128.92 -77.51 -116.36 -86.6 -4.25 -3.17 -60.33 -54.56 -21.7 -19.62 16.39 -16.39 71.96 -71.96 15.23 -15.23 -24.7 -22.37 -4.77 -4.32 -26.63 -29.52 -2.83 2.83 -42.68 42.68 -58.13 58.13 -24.97 -27.61 -49.2 -54.42 -3.17 -4.25 -86.6 -116.36 -77.11 -128.92 -64.46 -136.04 -50.62 -141.57 -12.46 -49.43 -0.76 -3.03 -10.1 -1.46 -20.97 -3.03 -2.38 -0.6 -19.37 -4.89 -15.82 -4 -36.78 -13.05 -34.8 -16.61 -33.61 -20.17 -30.85 -22.93 -28.87 -26.1 -26.1 -28.87 -22.94 -30.85 -5.93 -9.89 -14.24 -23.73 -16.61 -34.8 -13.05 -36.78 -9.49 -37.57 -5.54 -38.36 -1.98 -38.76 1.98 -38.76 5.54 -38.36 9.49 -37.57 13.05 -36.78 16.61 -34.8 5.22 -8.7 14.94 -24.91 22.94 -30.85 26.1 -28.87 28.87 -26.1 30.85 -22.93 33.61 -20.17 34.8 -16.61 36.78 -13.05m988.63 -668.71l-90.16 54.17 -9.89 5.94 -93.72 69.21 -56.78 51.57 -29.43 26.73 -26.72 29.43 -51.57 56.78 -69.2 93.72 -60.11 100.05 -49.83 105.19 -39.15 109.54 -28.47 113.1 -5.41 36.78 -11.59 78.69 -5.93 116.26 5.93 116.26 17 115.47 28.47 113.1 39.15 109.54 49.83 105.19 60.11 100.05 69.2 93.72 51.57 56.78 26.72 29.43 29.43 26.73 56.78 51.57 93.72 69.21 9.89 5.94 90.16 54.17 105.19 49.83 58.92 21.06 50.61 18.09 61.97 15.6 4.46 1.12 33.61 8.46 13.05 3.29 115.47 17 116.26 5.93 116.26 -5.93 43.89 -6.46 71.57 -10.54 46.67 -11.75 0.18 -0.04 4.06 -1.02 7.72 -1.94 10.67 -2.69 15.16 -3.82 16.86 -4.24 11.8 -2.97 10.76 -3.85 24.05 -8.59 15.81 -5.65 58.93 -21.06 105.19 -49.83 100.05 -60.11 93.72 -69.21 56.78 -51.57 29.43 -26.73 26.73 -29.43 51.57 -56.78 52.2 -70.69 17 -23.03 60.11 -100.05 49.83 -105.19 39.15 -109.54 28.47 -113.1 17 -115.47 5.54 -116.26 -5.54 -116.26 -11.59 -78.69 -5.41 -36.78 -28.47 -113.1 -39.15 -109.54 -49.83 -105.19 -60.11 -100.05 -17 -23.03 -52.2 -70.69 -51.57 -56.78 -26.73 -29.43 -29.43 -26.73 -56.78 -51.57 -93.72 -69.21 -100.05 -60.11 -105.19 -49.83 -58.93 -21.06 -50.61 -18.09 -113.1 -28.47 -71.57 -10.54 -43.89 -6.46 -116.26 -5.54 -116.26 5.54 -115.47 17 -113.1 28.47 -50.61 18.09 -58.92 21.06 -105.19 49.83z"/>
 </g>
</svg>
