<?xml version="1.0" encoding="utf-8"?>
<svg width="364mm" height="179.99999999999994mm" viewBox="-179 -123.99999999999997 364 179.99999999999994" version="1.1" xmlns="http://www.w3.org/2000/svg">
  <title>svgOutput</title>
  <desc>made with tinkercad</desc>
  <path d="M 182 54.999999999999986 L -176 54.999999999999986 L -176 51.00299835205077 L -176 48.999999999999986 L -176 48.9980010986328 L -176 45.99999999999999 L -178 45.99999999999999 L -178 6.7360000610351545 L -176 6.7360000610351545 L -176 -13.999999999999996 L -178 -13.999999999999996 L -178 -53.999999999999986 L -176 -53.999999999999986 L -176 -74.73600006103514 L -178 -74.73600006103514 L -178 -86.9980010986328 L -178 -89.00299835205077 L -178 -113.99999999999997 L -176 -113.99999999999997 L -176 -122.99999999999997 L -154.5030059814453 -122.99999999999997 L -139.5019989013672 -122.99999999999997 L 145.5019989013672 -122.99999999999997 L 160.5030059814453 -122.99999999999997 L 182 -122.99999999999997 L 182 -113.99999999999997 L 184 -113.99999999999997 L 184 -98.99800109863278 L 184 -89.00299835205077 L 184 -86.9980010986328 L 184 -74.73600006103514 L 182 -74.73600006103514 L 182 -53.999999999999986 L 184 -53.999999999999986 L 184 -24.997999191284173 L 184 -13.999999999999996 L 182 -13.999999999999996 L 182 0.0030000000260771422 L 182 6.7360000610351545 L 184 6.7360000610351545 L 184 25.003000259399407 L 184 45.99999999999999 L 182 45.99999999999999 L 182 48.9980010986328 L 182 48.999999999999986 L 182 51.00299835205077 L 182 54.999999999999986 M 126.09600067138672 -2.6189999580383296 L 125.99800109863281 -1.9999999999999996 L 126.09600067138672 -1.3810000419616695 L 126.37999725341797 -0.8230000138282773 L 126.822998046875 -0.3799999952316282 L 126.97599792480469 -0.30212903022766097 L 127.38099670410156 -0.09600000083446489 L 127.98123931884766 1.1102230246251565e-16 L 128 0.0030000000260771422 L 128.0187530517578 1.1102230246251565e-16 L 128.61900329589844 -0.09600000083446489 L 129.177001953125 -0.3799999952316282 L 129.6199951171875 -0.8230000138282773 L 129.9040069580078 -1.3810000419616695 L 130.0030059814453 -1.9999999999999996 L 129.9040069580078 -2.6189999580383296 L 129.6199951171875 -3.1770000457763663 L 129.177001953125 -3.619999885559081 L 128.61900329589844 -3.9040000438690177 L 128 -4.002999782562255 L 127.38099670410156 -3.9040000438690177 L 126.97599792480469 -3.697870969772338 L 126.822998046875 -3.619999885559081 L 126.37999725341797 -3.1770000457763663 L 126.09600067138672 -2.6189999580383296 M -123.90399932861328 -2.6189999580383296 L -124.00299835205078 -1.9999999999999996 L -123.90399932861328 -1.3810000419616695 L -123.62000274658203 -0.8230000138282773 L -123.177001953125 -0.3799999952316282 L -122.87999725341797 -0.22883871197700484 L -122.61900329589844 -0.09600000083446489 L -122.01876068115234 1.1102230246251565e-16 L -122 0.0030000000260771422 L -121.98123931884766 1.1102230246251565e-16 L -121.38099670410156 -0.09600000083446489 L -120.822998046875 -0.3799999952316282 L -120.37999725341797 -0.8230000138282773 L -120.09600067138672 -1.3810000419616695 L -119.99800109863281 -1.9999999999999996 L -120.09600067138672 -2.6189999580383296 L -120.37999725341797 -3.1770000457763663 L -120.822998046875 -3.619999885559081 L -121.38099670410156 -3.9040000438690177 L -122 -4.002999782562255 L -122.61900329589844 -3.9040000438690177 L -122.87999725341797 -3.7711613178253165 L -123.177001953125 -3.619999885559081 L -123.62000274658203 -3.1770000457763663 L -123.90399932861328 -2.6189999580383296 M -123.90399932861328 -27.618999481201165 L -124.00299835205078 -26.999999999999993 L -123.90399932861328 -26.38100051879882 L -123.62000274658203 -25.822999954223626 L -123.177001953125 -25.379999160766594 L -122.87999725341797 -25.228837966918938 L -122.61900329589844 -25.09600067138671 L -122 -24.997999191284173 L -121.38099670410156 -25.09600067138671 L -120.822998046875 -25.379999160766594 L -120.37999725341797 -25.822999954223626 L -120.09600067138672 -26.38100051879882 L -119.99800109863281 -26.999999999999993 L -120.09600067138672 -27.618999481201165 L -120.37999725341797 -28.17700004577636 L -120.822998046875 -28.62000083923339 L -120.9251708984375 -28.67200088500976 L -121.38099670410156 -28.903999328613274 L -122 -29.003000259399407 L -122.61900329589844 -28.903999328613274 L -123.0748291015625 -28.67200088500976 L -123.177001953125 -28.62000083923339 L -123.62000274658203 -28.17700004577636 L -123.90399932861328 -27.618999481201165 M 126.09600067138672 -27.618999481201165 L 125.99800109863281 -26.999999999999993 L 126.09600067138672 -26.38100051879882 L 126.37999725341797 -25.822999954223626 L 126.822998046875 -25.379999160766594 L 126.97599792480469 -25.30212974548339 L 127.38099670410156 -25.09600067138671 L 128 -24.997999191284173 L 128.61900329589844 -25.09600067138671 L 129.177001953125 -25.379999160766594 L 129.6199951171875 -25.822999954223626 L 129.9040069580078 -26.38100051879882 L 130.0030059814453 -26.999999999999993 L 129.9040069580078 -27.618999481201165 L 129.6199951171875 -28.17700004577636 L 129.177001953125 -28.62000083923339 L 129.0748291015625 -28.67200088500976 L 128.61900329589844 -28.903999328613274 L 128 -29.003000259399407 L 127.38099670410156 -28.903999328613274 L 126.9251708984375 -28.67200088500976 L 126.822998046875 -28.62000083923339 L 126.37999725341797 -28.17700004577636 L 126.09600067138672 -27.618999481201165 M -146.94239807128906 -113.99999999999997 L -147.0019989013672 -114.00299835205075 L -147.06167602539062 -113.99999999999997 L -147.45599365234375 -113.98017883300778 L -147.73800659179688 -113.96600341796872 L -148.46600341796875 -113.85800170898435 L -149.17999267578125 -113.67900085449216 L -149.8730010986328 -113.43099975585935 L -150.53799438476562 -113.11699676513669 L -151.16900634765625 -112.73799896240232 L -151.75999450683594 -112.30000305175778 L -152.30599975585938 -111.80500030517575 L -152.8000030517578 -111.26000213623044 L -153.23899841308594 -110.6679992675781 L -153.28453063964844 -110.59200286865232 L -153.61700439453125 -110.03700256347653 L -153.9320068359375 -109.3710021972656 L -154.17999267578125 -108.67800140380857 L -154.35800170898438 -107.963996887207 L -154.46600341796875 -107.23500061035153 L -154.5030059814453 -106.49999999999997 L -154.50279235839844 -106.4960021972656 L -154.46600341796875 -105.76499938964841 L -154.35800170898438 -105.03600311279294 L -154.17999267578125 -104.32199859619138 L -153.9320068359375 -103.62899780273435 L -153.61700439453125 -102.96299743652341 L -153.2797393798828 -102.40000152587888 L -153.23899841308594 -102.33200073242185 L -152.8000030517578 -101.7399978637695 L -152.30599975585938 -101.19499969482419 L -151.75999450683594 -100.69999694824216 L -151.16900634765625 -100.26200103759763 L -150.53799438476562 -99.88300323486325 L -149.8730010986328 -99.5690002441406 L -149.17999267578125 -99.32099914550778 L -148.46600341796875 -99.1419982910156 L -147.73800659179688 -99.03399658203122 L -147.45599365234375 -99.02021026611325 L -147.0019989013672 -98.99800109863278 L -146.26699829101562 -99.03399658203122 L -145.53900146484375 -99.1419982910156 L -144.8249969482422 -99.32099914550778 L -144.1320037841797 -99.5690002441406 L -143.4669952392578 -99.88300323486325 L -143.36000061035156 -99.94726562499997 L -142.83599853515625 -100.26200103759763 L -142.24400329589844 -100.69999694824216 L -141.69900512695312 -101.19499969482419 L -141.2050018310547 -101.7399978637695 L -140.76600646972656 -102.33200073242185 L -140.38800048828125 -102.96299743652341 L -140.072998046875 -103.62899780273435 L -139.8249969482422 -104.32199859619138 L -139.64599609375 -105.03600311279294 L -139.53799438476562 -105.76499938964841 L -139.502197265625 -106.4960021972656 L -139.5019989013672 -106.49999999999997 L -139.53799438476562 -107.23500061035153 L -139.64599609375 -107.963996887207 L -139.8249969482422 -108.67800140380857 L -140.072998046875 -109.3710021972656 L -140.38800048828125 -110.03700256347653 L -140.76600646972656 -110.6679992675781 L -141.2050018310547 -111.26000213623044 L -141.69900512695312 -111.80500030517575 L -142.24400329589844 -112.30000305175778 L -142.83599853515625 -112.73799896240232 L -143.36000061035156 -113.05273437499997 L -143.4669952392578 -113.11699676513669 L -144.1320037841797 -113.43099975585935 L -144.8249969482422 -113.67900085449216 L -145.53900146484375 -113.85800170898435 L -146.26699829101562 -113.96600341796872 L -146.94239807128906 -113.99999999999997 M 153.06167602539062 -113.99999999999997 L 153.0019989013672 -114.00299835205075 L 152.94239807128906 -113.99999999999997 L 152.26699829101562 -113.96600341796872 L 151.53900146484375 -113.85800170898435 L 150.8249969482422 -113.67900085449216 L 150.1320037841797 -113.43099975585935 L 149.4669952392578 -113.11699676513669 L 148.83599853515625 -112.73799896240232 L 148.24400329589844 -112.30000305175778 L 147.69900512695312 -111.80500030517575 L 147.45599365234375 -111.53691101074216 L 147.2050018310547 -111.26000213623044 L 146.76600646972656 -110.6679992675781 L 146.38800048828125 -110.03700256347653 L 146.072998046875 -109.3710021972656 L 145.8249969482422 -108.67800140380857 L 145.64599609375 -107.963996887207 L 145.53799438476562 -107.23500061035153 L 145.5019989013672 -106.49999999999997 L 145.502197265625 -106.4960021972656 L 145.53799438476562 -105.76499938964841 L 145.64599609375 -105.03600311279294 L 145.8249969482422 -104.32199859619138 L 146.072998046875 -103.62899780273435 L 146.38800048828125 -102.96299743652341 L 146.76600646972656 -102.33200073242185 L 147.2050018310547 -101.7399978637695 L 147.45599365234375 -101.46308898925778 L 147.69900512695312 -101.19499969482419 L 148.24400329589844 -100.69999694824216 L 148.83599853515625 -100.26200103759763 L 149.4669952392578 -99.88300323486325 L 150.1320037841797 -99.5690002441406 L 150.8249969482422 -99.32099914550778 L 151.53900146484375 -99.1419982910156 L 152.26699829101562 -99.03399658203122 L 153.0019989013672 -98.99800109863278 L 153.73800659179688 -99.03399658203122 L 154.46600341796875 -99.1419982910156 L 155.17999267578125 -99.32099914550778 L 155.6479949951172 -99.48847961425778 L 155.8730010986328 -99.5690002441406 L 156.53799438476562 -99.88300323486325 L 157.16900634765625 -100.26200103759763 L 157.75999450683594 -100.69999694824216 L 158.30599975585938 -101.19499969482419 L 158.8000030517578 -101.7399978637695 L 159.23899841308594 -102.33200073242185 L 159.61700439453125 -102.96299743652341 L 159.9320068359375 -103.62899780273435 L 160.17999267578125 -104.32199859619138 L 160.35800170898438 -105.03600311279294 L 160.46600341796875 -105.76499938964841 L 160.50279235839844 -106.4960021972656 L 160.5030059814453 -106.49999999999997 L 160.46600341796875 -107.23500061035153 L 160.35800170898438 -107.963996887207 L 160.17999267578125 -108.67800140380857 L 159.9320068359375 -109.3710021972656 L 159.61700439453125 -110.03700256347653 L 159.23899841308594 -110.6679992675781 L 158.8000030517578 -111.26000213623044 L 158.30599975585938 -111.80500030517575 L 157.75999450683594 -112.30000305175778 L 157.16900634765625 -112.73799896240232 L 156.53799438476562 -113.11699676513669 L 155.8730010986328 -113.43099975585935 L 155.6479949951172 -113.51152038574216 L 155.17999267578125 -113.67900085449216 L 154.46600341796875 -113.85800170898435 L 153.73800659179688 -113.96600341796872 L 153.06167602539062 -113.99999999999997 M -156.00399780273438 -88.99999999999999 L -156.00399780273438 -86.9980010986328 L -91.50399780273438 -86.9980010986328 L -91.50399780273438 -88.99999999999999 L -91.50399780273438 -89.00299835205077 L -154.5030059814453 -89.00299835205077 L -156.00399780273438 -89.00299835205077 L -156.00399780273438 -88.99999999999999 M 126.822998046875 24.62000083923339 L 127.38099670410156 24.903999328613274 L 128 25.003000259399407 L 128.61900329589844 24.903999328613274 L 129.177001953125 24.62000083923339 L 129.2209930419922 24.57600021362304 L 129.6199951171875 24.17700004577636 L 129.9040069580078 23.61899948120117 L 130.0030059814453 22.999999999999996 L 129.9040069580078 22.381000518798825 L 129.6199951171875 21.82299995422363 L 129.177001953125 21.379999160766598 L 128.61900329589844 21.096000671386715 L 128 20.997999191284176 L 127.38099670410156 21.096000671386715 L 126.97599792480469 21.302129745483395 L 126.822998046875 21.379999160766598 L 126.37999725341797 21.82299995422363 L 126.09600067138672 22.381000518798825 L 125.99800109863281 22.999999999999996 L 126.09600067138672 23.61899948120117 L 126.37999725341797 24.17700004577636 L 126.77899932861328 24.57600021362304 L 126.822998046875 24.62000083923339 M -121.38099670410156 24.903999328613274 L -120.822998046875 24.62000083923339 L -120.77899932861328 24.57600021362304 L -120.37999725341797 24.17700004577636 L -120.09600067138672 23.61899948120117 L -119.99800109863281 22.999999999999996 L -120.09600067138672 22.381000518798825 L -120.37999725341797 21.82299995422363 L -120.822998046875 21.379999160766598 L -121.38099670410156 21.096000671386715 L -122 20.997999191284176 L -122.61900329589844 21.096000671386715 L -122.87999725341797 21.22883796691894 L -123.177001953125 21.379999160766598 L -123.62000274658203 21.82299995422363 L -123.90399932861328 22.381000518798825 L -124.00299835205078 22.999999999999996 L -123.90399932861328 23.61899948120117 L -123.62000274658203 24.17700004577636 L -123.22100067138672 24.57600021362304 L -123.177001953125 24.62000083923339 L -122.61900329589844 24.903999328613274 L -122 25.003000259399407 L -121.38099670410156 24.903999328613274 M -91.50399780273438 48.999999999999986 L -91.50399780273438 48.9980010986328 L -156.00399780273438 48.9980010986328 L -156.00399780273438 48.999999999999986 L -156.00399780273438 51.00299835205077 L -91.50399780273438 51.00299835205077 L -91.50399780273438 48.999999999999986 M -71.4990005493164 48.999999999999986 L -71.4990005493164 51.00299835205077 L -7 51.00299835205077 L -7 48.999999999999986 L -7 48.9980010986328 L -71.4990005493164 48.9980010986328 L -71.4990005493164 48.999999999999986 M 77.4990005493164 48.999999999999986 L 77.4990005493164 48.9980010986328 L 13 48.9980010986328 L 13 48.999999999999986 L 13 51.00299835205077 L 77.4990005493164 51.00299835205077 L 77.4990005493164 48.999999999999986 M 97.50399780273438 48.999999999999986 L 97.50399780273438 51.00299835205077 L 162.00399780273438 51.00299835205077 L 162.00399780273438 48.999999999999986 L 162.00399780273438 48.9980010986328 L 97.50399780273438 48.9980010986328 L 97.50399780273438 48.999999999999986 M -71.4990005493164 -88.99999999999999 L -71.4990005493164 -86.9980010986328 L -7 -86.9980010986328 L -7 -88.99999999999999 L -7 -89.00299835205077 L -71.4990005493164 -89.00299835205077 L -71.4990005493164 -88.99999999999999 M 97.50399780273438 -88.99999999999999 L 97.50399780273438 -86.9980010986328 L 162.00399780273438 -86.9980010986328 L 162.00399780273438 -88.99999999999999 L 162.00399780273438 -89.00299835205077 L 97.50399780273438 -89.00299835205077 L 97.50399780273438 -88.99999999999999 M 77.4990005493164 -88.99999999999999 L 77.4990005493164 -89.00299835205077 L 13 -89.00299835205077 L 13 -88.99999999999999 L 13 -86.9980010986328 L 77.4990005493164 -86.9980010986328 L 77.4990005493164 -88.99999999999999 z" fill="none" stroke="rgb(255,0,0)" style="stroke-width: 0.5px;"/>
</svg>