<?xml version="1.0" encoding="utf-8"?>
<svg width="83mm" height="141.99999999999997mm" viewBox="207 -173.99999999999997 83 141.99999999999997" version="1.1" xmlns="http://www.w3.org/2000/svg">
  <title>svgOutput</title>
  <desc>made with tinkercad</desc>
  <path d="M 268.5 -172.99999999999997 L 268.5 -170.99999999999997 L 289 -170.99999999999997 L 289 -139.53094482421872 L 289 -139.53071594238278 L 289 -137.40275573730466 L 289 -137.40194702148435 L 289 -114.52994537353513 L 289 -114.52971649169919 L 289 -112.4017639160156 L 289 -112.40094757080075 L 289 -89.52894592285155 L 289 -89.52870941162108 L 289 -87.40076446533202 L 289 -87.39994812011717 L 289 -64.52794647216795 L 289 -64.52770996093749 L 289 -62.39976501464842 L 289 -62.39894866943358 L 289 -39.52694702148437 L 289 -39.526714324951165 L 289 -37.39876174926757 L 289 -37.39794921874999 L 289 -34.99999999999999 L 268.5 -34.99999999999999 L 268.5 -32.99999999999999 L 228.5 -32.99999999999999 L 228.5 -34.99999999999999 L 208 -34.99999999999999 L 208 -66.87913513183592 L 208 -66.8796920776367 L 208 -69.0074005126953 L 208 -69.00763702392577 L 208 -91.88013458251952 L 208 -91.8806915283203 L 208 -94.00839996337889 L 208 -94.00863647460936 L 208 -116.8811340332031 L 208 -116.88169097900388 L 208 -119.00939941406247 L 208 -119.00963592529294 L 208 -141.88214111328122 L 208 -141.88269042968747 L 208 -144.0104064941406 L 208 -144.01063537597653 L 208 -166.88313293457028 L 208 -166.88368225097653 L 208 -169.01139831542966 L 208 -169.01164245605466 L 208 -170.99999999999997 L 228.5 -170.99999999999997 L 228.5 -172.99999999999997 L 268.5 -172.99999999999997 M 213.52099609375 -66.9980010986328 L 212.836181640625 -65.11949920654295 L 212.83599853515625 -65.11900329589842 L 246.9980010986328 -52.68521881103514 L 252.0030059814453 -50.86357116699217 L 283.3179931640625 -39.46599960327148 L 283.3182678222656 -39.46670150756835 L 284.0019226074219 -41.34581756591796 L 284.00201416015625 -41.34600067138671 L 248.76150512695312 -54.17200088500975 L 220.56900024414062 -64.43299865722655 L 220.56895446777344 -64.43285369873045 L 213.52099609375 -66.9980010986328 M 247.91200256347656 -39.56600189208984 L 248.11000061035156 -39.41899871826171 L 248.32000732421875 -39.29299926757812 L 248.54200744628906 -39.18799972534179 L 248.7740020751953 -39.10499954223632 L 249.01199340820312 -39.046001434326165 L 249.2550048828125 -39.009998321533196 L 249.5 -38.998001098632805 L 249.7449951171875 -39.009998321533196 L 249.8560028076172 -39.026443481445305 L 249.98800659179688 -39.046001434326165 L 250.2259979248047 -39.10499954223632 L 250.45799255371094 -39.18799972534179 L 250.67999267578125 -39.29299926757812 L 250.88999938964844 -39.41899871826171 L 251.08799743652344 -39.56600189208984 L 251.27000427246094 -39.72999954223632 L 251.4340057373047 -39.91199874877929 L 251.58099365234375 -40.110000610351555 L 251.70700073242188 -40.31999969482421 L 251.81199645996094 -40.541999816894524 L 251.89500427246094 -40.77399826049804 L 251.9411163330078 -40.95999908447265 L 251.95399475097656 -41.01200103759765 L 251.99000549316406 -41.25500106811523 L 252.0030059814453 -41.49999999999999 L 251.99000549316406 -41.74499893188476 L 251.95399475097656 -41.98799896240234 L 251.89500427246094 -42.226001739501946 L 251.81199645996094 -42.45800018310546 L 251.70700073242188 -42.680000305175774 L 251.58099365234375 -42.88999938964843 L 251.49339294433594 -43.00799942016601 L 251.4340057373047 -43.088001251220696 L 251.27000427246094 -43.270000457763665 L 251.08799743652344 -43.43399810791015 L 250.88999938964844 -43.581001281738274 L 250.67999267578125 -43.70700073242187 L 250.45799255371094 -43.812000274658196 L 250.2259979248047 -43.895000457763665 L 249.98800659179688 -43.95399856567382 L 249.8560028076172 -43.97355651855468 L 249.7449951171875 -43.99000167846679 L 249.5 -44.002998352050774 L 249.2550048828125 -43.99000167846679 L 249.01199340820312 -43.95399856567382 L 248.7740020751953 -43.895000457763665 L 248.54200744628906 -43.812000274658196 L 248.32000732421875 -43.70700073242187 L 248.11000061035156 -43.581001281738274 L 247.91200256347656 -43.43399810791015 L 247.72999572753906 -43.270000457763665 L 247.5659942626953 -43.088001251220696 L 247.50660705566406 -43.00799942016601 L 247.41900634765625 -42.88999938964843 L 247.29299926757812 -42.680000305175774 L 247.18800354003906 -42.45800018310546 L 247.10499572753906 -42.226001739501946 L 247.04600524902344 -41.98799896240234 L 247.00999450683594 -41.74499893188476 L 246.9980010986328 -41.49999999999999 L 247.00999450683594 -41.25500106811523 L 247.04600524902344 -41.01200103759765 L 247.0588836669922 -40.95999908447265 L 247.10499572753906 -40.77399826049804 L 247.18800354003906 -40.541999816894524 L 247.29299926757812 -40.31999969482421 L 247.41900634765625 -40.110000610351555 L 247.5659942626953 -39.91199874877929 L 247.72999572753906 -39.72999954223632 L 247.80799865722656 -39.65971374511718 L 247.91200256347656 -39.56600189208984 M 213.52099609375 -167.00199890136716 L 212.836181640625 -165.12350463867185 L 212.83599853515625 -165.12300109863278 L 283.3179931640625 -139.4700012207031 L 283.3182678222656 -139.47070312499997 L 284.0019226074219 -141.34982299804685 L 284.00201416015625 -141.3500061035156 L 248.76150512695312 -154.17599487304685 L 220.56900024414062 -164.4369964599609 L 220.56895446777344 -164.43685913085935 L 213.52099609375 -167.00199890136716 M 213.52099609375 -142.0010070800781 L 212.836181640625 -140.12249755859372 L 212.83599853515625 -140.12199401855466 L 283.3179931640625 -114.4690017700195 L 283.3182678222656 -114.46970367431638 L 284.0019226074219 -116.34881591796872 L 284.00201416015625 -116.34899902343747 L 248.76150512695312 -129.17500305175778 L 220.56900024414062 -139.43600463867185 L 220.56895446777344 -139.43585205078122 L 213.52099609375 -142.0010070800781 M 213.52099609375 -116.99999999999997 L 212.836181640625 -115.12149810791013 L 212.83599853515625 -115.1210021972656 L 283.3179931640625 -89.46800231933592 L 283.3182678222656 -89.4687042236328 L 284.0019226074219 -91.34781646728514 L 284.00201416015625 -91.34799957275389 L 248.76150512695312 -104.17400360107419 L 220.56900024414062 -114.43499755859372 L 220.56895446777344 -114.43485260009763 L 213.52099609375 -116.99999999999997 M 213.52099609375 -91.99900054931639 L 212.836181640625 -90.12049865722655 L 212.83599853515625 -90.12000274658202 L 283.3179931640625 -64.46700286865233 L 283.3182678222656 -64.4677047729492 L 284.0019226074219 -66.34681701660155 L 284.00201416015625 -66.3470001220703 L 248.76150512695312 -79.17299652099608 L 220.56900024414062 -89.43399810791014 L 220.56895446777344 -89.43385314941405 L 213.52099609375 -91.99900054931639 z" fill="none" stroke="rgb(255,0,0)" style="stroke-width: 0.5px;"/>
</svg>