<?xml version="1.0" standalone="no"?>
<!DOCTYPE svg PUBLIC "-//W3C//DTD SVG 1.1//EN"
  "http://www.w3.org/Graphics/SVG/1.1/DTD/svg11.dtd">
<svg width="368mm" height="148.99999999999994mm" viewBox="-189 59.999999999999986 368 148.99999999999994" xmlns="http://www.w3.org/2000/svg" version="1.1">
	<title>svgOutput</title>
	<desc>made with tinkercad</desc>
<path d="M -188 75.49999999999999 L -186 75.49999999999999 L -184 75.49999999999999 L -184 67.00299835205077 L -164.0019989013672 67.00299835205077 L -164.0019989013672 60.999999999999986 L -99.5009994506836 60.999999999999986 L -99.5009994506836 67.00299835205077 L -79.5009994506836 67.00299835205077 L -79.5009994506836 60.999999999999986 L -15 60.999999999999986 L -15 67.00299835205077 L 5 67.00299835205077 L 5 60.999999999999986 L 69.5009994506836 60.999999999999986 L 69.5009994506836 67.00299835205077 L 89.5009994506836 67.00299835205077 L 89.5009994506836 60.999999999999986 L 154.0019989013672 60.999999999999986 L 154.0019989013672 67.00299835205077 L 174 67.00299835205077 L 174 75.49999999999999 L 176 75.49999999999999 L 178 75.49999999999999 L 178 125.49999999999997 L 176 125.49999999999997 L 174 125.49999999999997 L 174 141.49999999999997 L 176 141.49999999999997 L 176 191.49999999999997 L 174 191.49999999999997 L 174 207.99999999999994 L -184 207.99999999999994 L -184 191.49999999999997 L -186 191.49999999999997 L -186 141.49999999999997 L -184 141.49999999999997 L -184 125.49999999999997 L -186 125.49999999999997 L -188 125.49999999999997 L -188 75.49999999999999 M -4.998000144958496 147.49899291992185 L -7.002999782562256 147.49899291992185 L -7.002999782562256 187.5010070800781 L -4.998000144958496 187.5010070800781 L -4.998000144958496 147.49899291992185 z" fill="none" stroke="rgb(255,0,0)" stroke-width="0.001mm" />
</svg>