<?xml version="1.0" standalone="no"?>
<!DOCTYPE svg PUBLIC "-//W3C//DTD SVG 1.1//EN"
  "http://www.w3.org/Graphics/SVG/1.1/DTD/svg11.dtd">
<svg width="82mm" height="141.99999999999997mm" viewBox="195 -98.99999999999997 82 141.99999999999997" xmlns="http://www.w3.org/2000/svg" version="1.1">
	<title>svgOutput</title>
	<desc>made with tinkercad</desc>
<path d="M 275.510986328125 -91.08999633789061 L 275.7455749511719 -90.11199951171874 L 275.87701416015625 -89.56400299072264 L 276 -87.99999999999999 L 276 -81.9199981689453 L 276 -65.53600311279295 L 276 -49.15200042724608 L 276 -32.76800155639648 L 276 -16.38400077819824 L 276 1.1102230246251565e-16 L 276 16.38400077819824 L 276 24.57600021362304 L 276 31.999999999999993 L 275.9396057128906 32.76800155639648 L 275.87701416015625 33.56399917602538 L 275.510986328125 35.09000015258788 L 274.9100036621094 36.54000091552734 L 274.0899963378906 37.877998352050774 L 273.0710144042969 39.070999145507805 L 271.87799072265625 40.09000015258788 L 270.5400085449219 40.9099998474121 L 270.41937255859375 40.95999908447265 L 270.33599853515625 40.99455261230468 L 269.0899963378906 41.511001586914055 L 267.5639953613281 41.87699890136718 L 266 41.99999999999999 L 262.1440124511719 41.99999999999999 L 260.50299072265625 41.99999999999999 L 260.50299072265625 40.00400161743163 L 245.75999450683594 40.00400161743163 L 229.37600708007812 40.00400161743163 L 212.99200439453125 40.00400161743163 L 210.4980010986328 40.00400161743163 L 210.4980010986328 41.99999999999999 L 206 41.99999999999999 L 204.8000030517578 41.905628204345696 L 204.43600463867188 41.87699890136718 L 202.91000366210938 41.511001586914055 L 201.58062744140625 40.95999908447265 L 201.4600067138672 40.9099998474121 L 200.1219940185547 40.09000015258788 L 198.9290008544922 39.070999145507805 L 197.91000366210938 37.877998352050774 L 197.08999633789062 36.54000091552734 L 196.60800170898438 35.37710571289062 L 196.48899841308594 35.09000015258788 L 196.1230010986328 33.56399917602538 L 196.06039428710938 32.76800155639648 L 196 31.999999999999993 L 196 1.1102230246251565e-16 L 196 -10.998000144958494 L 196.60800170898438 -10.998000144958494 L 206.00100708007812 -10.998000144958494 L 206.49099731445312 -11.022000312805174 L 206.9770050048828 -11.093999862670897 L 207.4530029296875 -11.213000297546385 L 207.9149932861328 -11.378000259399412 L 208.35899353027344 -11.588000297546385 L 208.77999877929688 -11.840999603271483 L 209.1739959716797 -12.133000373840328 L 209.344970703125 -12.28800010681152 L 209.53799438476562 -12.463000297546383 L 209.86700439453125 -12.826000213623043 L 210.16000366210938 -13.220999717712399 L 210.41200256347656 -13.642000198364254 L 210.6219940185547 -14.08600044250488 L 210.78700256347656 -14.548000335693356 L 210.906005859375 -15.024000167846676 L 210.97799682617188 -15.510000228881832 L 211.0030059814453 -15.999999999999996 L 210.98341369628906 -16.38400077819824 L 210.97799682617188 -16.48999977111816 L 210.906005859375 -16.975999832153317 L 210.78700256347656 -17.451999664306637 L 210.6219940185547 -17.913999557495114 L 210.41200256347656 -18.35799980163574 L 210.16000366210938 -18.778999328613278 L 209.86700439453125 -19.17399978637695 L 209.53799438476562 -19.537000656127926 L 209.1739959716797 -19.86700057983398 L 208.89599609375 -20.073030471801754 L 208.77999877929688 -20.159000396728512 L 208.35899353027344 -20.412000656127926 L 207.9149932861328 -20.621999740600582 L 207.4530029296875 -20.787000656127926 L 206.9770050048828 -20.906000137329098 L 206.49099731445312 -20.978000640869137 L 206.00100708007812 -21.00300025939941 L 196.60800170898438 -21.00300025939941 L 196 -21.00300025939941 L 196 -65.53600311279295 L 196 -81.9199981689453 L 196 -87.99999999999999 L 196.1230010986328 -89.56400299072264 L 196.48899841308594 -91.08999633789061 L 196.60800170898438 -91.37710571289061 L 197.08999633789062 -92.54000091552733 L 197.91000366210938 -93.87799835205077 L 198.9290008544922 -95.0709991455078 L 200.1219940185547 -96.0899963378906 L 201.4600067138672 -96.91000366210935 L 202.91000366210938 -97.51100158691403 L 204.43600463867188 -97.87699890136716 L 204.8000030517578 -97.90562438964841 L 206 -97.99999999999997 L 210.4980010986328 -97.99999999999997 L 210.4980010986328 -95.99999999999997 L 212.99200439453125 -95.99999999999997 L 229.37600708007812 -95.99999999999997 L 245.00100708007812 -95.99999999999997 L 245.75999450683594 -95.99999999999997 L 250.00100708007812 -95.99999999999997 L 260.50299072265625 -95.99999999999997 L 260.50299072265625 -97.99999999999997 L 262.1440124511719 -97.99999999999997 L 266 -97.99999999999997 L 267.5639953613281 -97.87699890136716 L 269.0899963378906 -97.51100158691403 L 270.33599853515625 -96.99455261230466 L 270.5400085449219 -96.91000366210935 L 271.87799072265625 -96.0899963378906 L 273.0710144042969 -95.0709991455078 L 274.0899963378906 -93.87799835205077 L 274.9100036621094 -92.54000091552733 L 275.510986328125 -91.08999633789061 M 246.72900390625 -19.121999740600582 L 247.50100708007812 -18.999999999999996 L 248.2740020751953 -19.121999740600582 L 248.9709930419922 -19.47699928283691 L 249.5240020751953 -20.030000686645504 L 249.75318908691406 -20.479999542236325 L 249.87899780273438 -20.72699928283691 L 250.00100708007812 -21.499999999999996 L 249.87899780273438 -22.271999359130856 L 249.5240020751953 -22.968999862670895 L 248.9709930419922 -23.521999359130856 L 248.2740020751953 -23.877000808715817 L 247.50100708007812 -23.999999999999993 L 246.72900390625 -23.877000808715817 L 246.03199768066406 -23.521999359130856 L 245.47799682617188 -22.968999862670895 L 245.1230010986328 -22.271999359130856 L 245.00100708007812 -21.499999999999996 L 245.1230010986328 -20.72699928283691 L 245.24880981445312 -20.479999542236325 L 245.47799682617188 -20.030000686645504 L 246.03199768066406 -19.47699928283691 L 246.72900390625 -19.121999740600582 z" fill="none" stroke="rgb(255,0,0)" stroke-width="0.001mm" />
</svg>