<?xml version="1.0" encoding="UTF-8"?>
<!DOCTYPE svg PUBLIC "-//W3C//DTD SVG 1.1//EN" "http://www.w3.org/Graphics/SVG/1.1/DTD/svg11.dtd">
<!-- Creator: CorelDRAW X7 -->
<svg xmlns="http://www.w3.org/2000/svg" xml:space="preserve" width="210mm" height="297mm" version="1.1" style="shape-rendering:geometricPrecision; text-rendering:geometricPrecision; image-rendering:optimizeQuality; fill-rule:evenodd; clip-rule:evenodd"
viewBox="0 0 21000 29700"
 xmlns:xlink="http://www.w3.org/1999/xlink">
 <defs>
  <style type="text/css">
   <![CDATA[
    .str0 {stroke:red;stroke-width:7.62;stroke-linejoin:bevel}
    .fil0 {fill:none}
   ]]>
  </style>
 </defs>
 <g id="Layer_x0020_1">
  <metadata id="CorelCorpID_0Corel-Layer"/>
  <path class="fil0 str0" d="M9251 24494c0,-111 0,-343 0,-343 0,0 -1,0 -1,0 0,0 0,-199 0,-199 0,0 0,-8736 0,-9541l497 0 0 -317 -497 0c0,-59 0,-141 0,-141 0,0 0,-391 0,-543l497 0 0 -317 -497 0c0,-59 0,-141 0,-141 0,0 0,-391 0,-542l497 0 0 -318 -497 0c0,-59 0,-141 0,-141 0,0 0,-390 0,-541l497 0 0 -318 -497 0c0,-59 0,-142 0,-142 0,0 0,-390 0,-541l497 0 0 -318 -497 0c0,-58 0,-140 0,-140 0,0 0,-391 0,-543l497 0 0 -318 -497 0c0,-58 0,-140 0,-140 0,0 0,-391 0,-543l497 0 0 -318 -497 0c0,-58 0,-140 0,-140 0,0 0,-391 0,-543l497 0 0 -317 -497 0c0,-59 0,-141 0,-141 0,0 0,-390 0,-542l497 0 0 -317 -497 0c0,-59 0,-142 0,-142 0,0 0,-390 0,-542l497 0 0 -317 -497 0c0,-59 0,-141 0,-141 0,0 0,-298 0,-298 0,0 0,-398 0,-398 0,0 2123,0 2123,0 0,0 375,0 375,0 0,0 2,0 2,0 0,0 0,398 0,398 0,0 0,98 0,98 0,0 0,82 0,141l-375 0 0 317 375 0c0,58 0,141 0,141 0,0 0,601 0,601 0,0 0,199 0,199 0,0 0,2 0,2 0,0 0,199 0,199 0,0 0,601 0,601 0,0 0,199 0,199 0,0 0,1 0,1 0,0 0,199 0,199 0,0 0,602 0,602 0,0 0,199 0,199 0,0 0,1 0,1 0,0 0,199 0,199 0,0 0,602 0,602 0,0 0,199 0,199 0,0 0,1 0,1 0,0 0,199 0,199 0,0 0,602 0,602 0,0 0,198 0,198 0,0 0,1 0,1 0,0 0,199 0,199 0,0 0,601 0,601 0,0 0,199 0,199 0,0 0,2 0,2 0,0 0,199 0,199 0,0 0,601 0,601 0,0 0,199 0,199 0,0 0,1 0,1 0,0 0,199 0,199 0,0 0,602 0,602 0,0 0,199 0,199 0,0 0,1 0,1 0,0 0,199 0,199 0,0 0,602 0,602 0,0 0,199 0,199 0,0 0,1 0,1 0,0 0,83 0,140l-375 0 0 318 375 0c0,793 0,9341 0,9341 0,0 0,199 0,199 0,0 0,402 0,402 0,0 0,83 0,141l-375 0 0 318 375 0c0,131 0,437 0,437 0,0 -2,0 -2,0 0,0 -375,0 -375,0 0,0 -2122,0 -2122,0 0,0 0,-469 0,-637 0,-1 -1,0 -1,0l497 0 0 -318 -497 0c0,0 1,1 1,0z"/>
 </g>
</svg>
