<?xml version="1.0" encoding="UTF-8"?>
<!DOCTYPE svg PUBLIC "-//W3C//DTD SVG 1.1//EN" "http://www.w3.org/Graphics/SVG/1.1/DTD/svg11.dtd">
<!-- Creator: CorelDRAW X7 -->
<svg xmlns="http://www.w3.org/2000/svg" xml:space="preserve" width="210mm" height="297mm" version="1.1" style="shape-rendering:geometricPrecision; text-rendering:geometricPrecision; image-rendering:optimizeQuality; fill-rule:evenodd; clip-rule:evenodd"
viewBox="0 0 21000 29700"
 xmlns:xlink="http://www.w3.org/1999/xlink">
 <defs>
  <style type="text/css">
   <![CDATA[
    .str0 {stroke:red;stroke-width:7.62;stroke-linejoin:bevel}
    .fil0 {fill:none}
   ]]>
  </style>
 </defs>
 <g id="Layer_x0020_1">
  <metadata id="CorelCorpID_0Corel-Layer"/>
  <path class="fil0 str0" d="M12874 12253c87,-87 174,-174 261,-261 -61,-55 -166,-150 -166,-150 0,0 -5,-4 -5,-4 0,0 -5,-3 -5,-3 0,0 -296,-221 -296,-221 0,0 -328,-196 -328,-196 0,0 -345,-164 -345,-164 0,0 -360,-128 -360,-128 0,0 -126,-32 -126,-32 0,0 -5,-1 -5,-1 0,0 -2,-1 -2,-1 0,0 -2,-15 -2,-15 0,0 -9,-62 -9,-62 0,0 -1,-2 -1,-2 0,0 -14,-55 -14,-55 0,0 -10,-40 -10,-40 0,0 -33,-94 -33,-94 0,0 -42,-88 -42,-88 0,0 -51,-86 -51,-86 0,0 -59,-78 -59,-78 0,0 -66,-73 -66,-73 0,0 -73,-67 -73,-67 0,0 -79,-58 -79,-58 0,0 -85,-51 -85,-51 0,0 -66,-32 -66,-32 0,0 -22,-10 -22,-10 0,0 -94,-33 -94,-33 0,0 -28,-7 -28,-7 0,0 -67,-17 -67,-17 0,0 -98,-15 -98,-15 0,0 -98,-5 -98,-5 0,0 -98,5 -98,5 0,0 -98,15 -98,15 0,0 -67,17 -67,17 0,0 -28,7 -28,7 0,0 -94,33 -94,33 0,0 -88,42 -88,42 0,0 -85,51 -85,51 0,0 -64,47 -64,47 0,0 -15,11 -15,11 0,0 -73,67 -73,67 0,0 -66,73 -66,73 0,0 -59,78 -59,78 0,0 -51,86 -51,86 0,0 -42,88 -42,88 0,0 -33,94 -33,94 0,0 -10,40 -10,40 0,0 -13,49 -13,49 0,0 -1,6 -1,6 0,0 -8,55 -8,55 0,0 -4,24 -4,24 0,0 -7,2 -7,2 0,0 -126,32 -126,32 0,0 -360,128 -360,128 0,0 -160,76 -160,76 0,0 -185,88 -185,88 0,0 -328,196 -328,196 0,0 -296,221 -296,221 0,0 -10,7 -10,7 0,0 -105,95 -166,150 87,87 174,174 261,262 1,0 1,-1 1,-1 -75,75 -150,150 -225,225 -87,-87 -174,-174 -261,-262 -55,61 -149,165 -149,165 0,0 -8,11 -8,11 0,0 -220,295 -220,295 0,0 -196,328 -196,328 0,0 -164,345 -164,345 0,0 -128,360 -128,360 0,0 -32,126 -32,126 0,0 -2,6 -2,6 0,0 0,1 0,1 0,0 -15,2 -15,2 0,0 -62,9 -62,9 0,0 -2,1 -2,1 0,0 -55,14 -55,14 0,0 -40,10 -40,10 0,0 -94,33 -94,33 0,0 -88,42 -88,42 0,0 -86,51 -86,51 0,0 -78,59 -78,59 0,0 -73,66 -73,66 0,0 -67,73 -67,73 0,0 -58,79 -58,79 0,0 -38,63 -38,63 0,0 -13,22 -13,22 0,0 -42,88 -42,88 0,0 -33,94 -33,94 0,0 -24,95 -24,95 0,0 -15,98 -15,98 0,0 -5,98 -5,98 0,0 5,98 5,98 0,0 15,98 15,98 0,0 24,95 24,95 0,0 33,94 33,94 0,0 42,88 42,88 0,0 36,60 36,60 0,0 15,25 15,25 0,0 58,79 58,79 0,0 67,73 67,73 0,0 73,66 73,66 0,0 78,59 78,59 0,0 86,51 86,51 0,0 88,42 88,42 0,0 94,33 94,33 0,0 40,10 40,10 0,0 49,13 49,13 0,0 6,1 6,1 0,0 53,8 53,8 0,0 26,4 26,4 0,0 2,7 2,7 0,0 32,126 32,126 0,0 128,360 128,360 0,0 164,345 164,345 0,0 196,328 196,328 0,0 220,295 220,295 0,0 8,11 8,11 0,0 125,138 125,138 0,0 11,13 24,27 87,-87 174,-174 261,-261 75,75 150,150 225,225 -87,87 -174,174 -261,261 7,6 12,11 12,11 0,0 153,138 153,138 0,0 11,8 11,8 0,0 295,220 295,220 0,0 328,197 328,197 0,0 185,87 185,87 0,0 160,76 160,76 0,0 65,23 65,23 0,0 295,105 295,105 0,0 126,32 126,32 0,0 6,2 6,2 0,0 1,0 1,0 0,0 2,15 2,15 0,0 10,64 10,64 0,0 24,95 24,95 0,0 33,94 33,94 0,0 42,88 42,88 0,0 51,86 51,86 0,0 59,78 59,78 0,0 66,73 66,73 0,0 73,67 73,67 0,0 15,11 15,11 0,0 64,47 64,47 0,0 85,51 85,51 0,0 88,42 88,42 0,0 94,33 94,33 0,0 95,24 95,24 0,0 98,15 98,15 0,0 98,5 98,5 0,0 98,-5 98,-5 0,0 98,-15 98,-15 0,0 95,-24 95,-24 0,0 94,-33 94,-33 0,0 22,-10 22,-10 0,0 66,-32 66,-32 0,0 85,-51 85,-51 0,0 79,-58 79,-58 0,0 73,-67 73,-67 0,0 66,-73 66,-73 0,0 59,-78 59,-78 0,0 51,-86 51,-86 0,0 42,-88 42,-88 0,0 33,-94 33,-94 0,0 24,-95 24,-95 0,0 8,-53 8,-53 0,0 4,-26 4,-26 0,0 7,-2 7,-2 0,0 126,-32 126,-32 0,0 295,-105 295,-105 0,0 65,-23 65,-23 0,0 345,-163 345,-163 0,0 328,-197 328,-197 0,0 295,-220 295,-220 0,0 6,-4 6,-4 0,0 5,-4 5,-4 0,0 104,-94 165,-149l-261 -261 225 -225 261 261c55,-61 149,-165 149,-165 0,0 7,-10 7,-10 0,0 221,-296 221,-296 0,0 196,-328 196,-328 0,0 164,-345 164,-345 0,0 128,-360 128,-360 0,0 32,-126 32,-126 0,0 2,-5 2,-5 0,0 0,-2 0,-2 0,0 15,-2 15,-2 0,0 62,-9 62,-9 0,0 2,-1 2,-1 0,0 55,-14 55,-14 0,0 40,-10 40,-10 0,0 94,-33 94,-33 0,0 88,-42 88,-42 0,0 86,-51 86,-51 0,0 78,-59 78,-59 0,0 73,-66 73,-66 0,0 67,-73 67,-73 0,0 58,-79 58,-79 0,0 45,-75 45,-75 0,0 6,-10 6,-10 0,0 42,-88 42,-88 0,0 33,-94 33,-94 0,0 24,-95 24,-95 0,0 15,-98 15,-98 0,0 5,-98 5,-98 0,0 -5,-98 -5,-98 0,0 -15,-98 -15,-98 0,0 -24,-95 -24,-95 0,0 -33,-94 -33,-94 0,0 -42,-88 -42,-88 0,0 -6,-10 -6,-10 0,0 -7,-12 -7,-12 0,0 -38,-63 -38,-63 0,0 -58,-79 -58,-79 0,0 -67,-73 -67,-73 0,0 -73,-66 -73,-66 0,0 -78,-59 -78,-59 0,0 -86,-51 -86,-51 0,0 -88,-42 -88,-42 0,0 -94,-33 -94,-33 0,0 -40,-10 -40,-10 0,0 -55,-14 -55,-14 0,0 -53,-8 -53,-8 0,0 -26,-4 -26,-4 0,0 -2,-7 -2,-7 0,0 -32,-126 -32,-126 0,0 -128,-360 -128,-360 0,0 -164,-345 -164,-345 0,0 -196,-328 -196,-328 0,0 -221,-296 -221,-296 0,0 -7,-10 -7,-10 0,0 -94,-104 -149,-165 -87,87 -174,175 -261,262 -75,-75 -150,-150 -225,-225 0,0 1,0 1,0z"/>
  <path class="fil0 str0" d="M8850 12328c0,0 -25,15 -25,15 0,0 -238,176 -238,176 0,0 -145,131 -145,131 0,0 -74,68 -74,68 0,0 -68,74 -68,74 0,0 -131,145 -131,145 0,0 -176,238 -176,238 0,0 -153,254 -153,254 0,0 -126,267 -126,267 0,0 -100,278 -100,278 0,0 -72,287 -72,287 0,0 -14,94 -14,94 0,0 -29,200 -29,200 0,0 -15,295 -15,295 0,0 15,295 15,295 0,0 43,294 43,294 0,0 72,287 72,287 0,0 100,278 100,278 0,0 126,267 126,267 0,0 153,254 153,254 0,0 176,238 176,238 0,0 131,145 131,145 0,0 68,74 68,74 0,0 74,68 74,68 0,0 145,131 145,131 0,0 238,176 238,176 0,0 25,15 25,15 0,0 229,138 229,138 0,0 267,126 267,126 0,0 150,54 150,54 0,0 128,46 128,46 0,0 158,39 158,39 0,0 11,3 11,3 0,0 85,22 85,22 0,0 33,8 33,8 0,0 294,43 294,43 0,0 295,15 295,15 0,0 295,-15 295,-15 0,0 112,-16 112,-16 0,0 182,-27 182,-27 0,0 118,-30 118,-30 0,0 1,0 1,0 0,0 10,-2 10,-2 0,0 19,-5 19,-5 0,0 28,-7 28,-7 0,0 38,-10 38,-10 0,0 43,-11 43,-11 0,0 30,-7 30,-7 0,0 27,-10 27,-10 0,0 61,-22 61,-22 0,0 40,-14 40,-14 0,0 150,-54 150,-54 0,0 267,-126 267,-126 0,0 254,-153 254,-153 0,0 238,-176 238,-176 0,0 145,-131 145,-131 0,0 74,-68 74,-68 0,0 68,-74 68,-74 0,0 131,-145 131,-145 0,0 133,-179 133,-179 0,0 43,-59 43,-59 0,0 153,-254 153,-254 0,0 126,-267 126,-267 0,0 100,-278 100,-278 0,0 72,-287 72,-287 0,0 43,-294 43,-294 0,0 14,-295 14,-295 0,0 -14,-295 -14,-295 0,0 -29,-200 -29,-200 0,0 -14,-94 -14,-94 0,0 -72,-287 -72,-287 0,0 -100,-278 -100,-278 0,0 -126,-267 -126,-267 0,0 -153,-254 -153,-254 0,0 -43,-59 -43,-59 0,0 -133,-179 -133,-179 0,0 -131,-145 -131,-145 0,0 -68,-74 -68,-74 0,0 -74,-68 -74,-68 0,0 -145,-131 -145,-131 0,0 -238,-176 -238,-176 0,0 -254,-153 -254,-153 0,0 -267,-126 -267,-126 0,0 -150,-54 -150,-54 0,0 -128,-46 -128,-46 0,0 -287,-72 -287,-72 0,0 -182,-27 -182,-27 0,0 -112,-16 -112,-16 0,0 -295,-14 -295,-14 0,0 -295,14 -295,14 0,0 -294,43 -294,43 0,0 -287,72 -287,72 0,0 -128,46 -128,46 0,0 -150,54 -150,54 0,0 -267,126 -267,126 0,0 -229,138 -229,138z"/>
 </g>
</svg>
