<?xml version="1.0" encoding="UTF-8"?>
<!DOCTYPE svg PUBLIC "-//W3C//DTD SVG 1.1//EN" "http://www.w3.org/Graphics/SVG/1.1/DTD/svg11.dtd">
<!-- Creator: CorelDRAW X7 -->
<svg xmlns="http://www.w3.org/2000/svg" xml:space="preserve" width="350mm" height="350mm" version="1.1" style="shape-rendering:geometricPrecision; text-rendering:geometricPrecision; image-rendering:optimizeQuality; fill-rule:evenodd; clip-rule:evenodd"
viewBox="0 0 35000 35000"
 xmlns:xlink="http://www.w3.org/1999/xlink">
 <defs>
  <style type="text/css">
   <![CDATA[
    .str0 {stroke:red;stroke-width:7.62;stroke-linejoin:bevel}
    .fil0 {fill:none}
   ]]>
  </style>
 </defs>
 <g id="Layer_x0020_1">
  <metadata id="CorelCorpID_0Corel-Layer"/>
  <path class="fil0 str0" d="M32500 17500c0,0 0,0 0,0 0,0 -72,1470 -72,1470 0,0 0,0 0,0 0,0 -216,1456 -216,1456 0,0 0,0 0,0 0,0 -358,1428 -358,1428 0,0 0,0 0,0 0,0 -65,182 -65,182 0,0 0,0 0,0 0,0 -431,1204 -431,1204 0,0 0,0 0,0 0,0 -629,1331 -629,1331 0,0 0,0 0,0 0,0 -757,1263 -757,1263 0,0 0,0 0,0 0,0 -877,1182 -877,1182 0,0 0,0 0,0 0,0 -988,1091 -988,1091 0,0 0,0 0,0 0,0 -375,340 -375,340 0,0 0,0 0,0 0,0 -716,648 -716,648 0,0 0,0 0,0 0,0 -1182,877 -1182,877 0,0 0,0 0,0 0,0 -1263,757 -1263,757 0,0 0,0 0,0 0,0 -1331,629 -1331,629 0,0 0,0 0,0 0,0 -1386,496 -1386,496 0,0 0,0 0,0 0,0 -1428,358 -1428,358 0,0 0,0 0,0 0,0 -1456,216 -1456,216 0,0 0,0 0,0 0,0 -1470,72 -1470,72 0,0 0,0 0,0 0,0 -1470,-72 -1470,-72 0,0 0,0 0,0 0,0 -1456,-216 -1456,-216 0,0 0,0 0,0 0,0 -1428,-358 -1428,-358 0,0 0,0 0,0 0,0 -1386,-496 -1386,-496 0,0 0,0 0,0 0,0 -412,-195 -412,-195 0,0 0,0 0,0 0,0 -919,-434 -919,-434 0,0 0,0 0,0 0,0 -1263,-757 -1263,-757 0,0 0,0 0,0 0,0 -1182,-877 -1182,-877 0,0 0,0 0,0 0,0 -1091,-988 -1091,-988 0,0 0,0 0,0 0,0 -988,-1091 -988,-1091 0,0 0,0 0,0 0,0 -877,-1182 -877,-1182 0,0 0,0 0,0 0,0 -757,-1263 -757,-1263 0,0 0,0 0,0 0,0 -629,-1331 -629,-1331 0,0 0,0 0,0 0,0 -431,-1204 -431,-1204 0,0 0,0 0,0 0,0 -65,-182 -65,-182 0,0 0,0 0,0 0,0 -358,-1428 -358,-1428 0,0 0,0 0,0 0,0 -216,-1456 -216,-1456 0,0 0,0 0,0 0,0 -72,-1470 -72,-1470 0,0 0,0 0,0 0,0 72,-1470 72,-1470 0,0 0,0 0,0 0,0 216,-1456 216,-1456 0,0 0,0 0,0 0,0 358,-1428 358,-1428 0,0 0,0 0,0 0,0 496,-1386 496,-1386 0,0 0,0 0,0 0,0 629,-1331 629,-1331 0,0 0,0 0,0 0,0 757,-1263 757,-1263 0,0 0,0 0,0 0,0 877,-1182 877,-1182 0,0 0,0 0,0 0,0 988,-1091 988,-1091 0,0 0,0 0,0 0,0 1091,-988 1091,-988 0,0 0,0 0,0 0,0 1182,-877 1182,-877 0,0 0,0 0,0 0,0 1263,-757 1263,-757 0,0 0,0 0,0 0,0 919,-434 919,-434 0,0 0,0 0,0 0,0 412,-195 412,-195 0,0 0,0 0,0 0,0 1386,-496 1386,-496 0,0 0,0 0,0 0,0 851,-213 851,-213 0,0 0,0 0,0 0,0 577,-145 577,-145 0,0 0,0 0,0 0,0 1456,-216 1456,-216 0,0 0,0 0,0 0,0 1470,-72 1470,-72 0,0 0,0 0,0 0,0 1470,72 1470,72 0,0 0,0 0,0 0,0 1456,216 1456,216 0,0 0,0 0,0 0,0 576,144 576,144 0,0 0,0 0,0 0,0 852,214 852,214 0,0 0,0 0,0 0,0 1386,496 1386,496 0,0 0,0 0,0 0,0 1331,629 1331,629 0,0 0,0 0,0 0,0 1263,757 1263,757 0,0 0,0 0,0 0,0 1182,877 1182,877 0,0 0,0 0,0 0,0 716,648 716,648 0,0 0,0 0,0 0,0 375,340 375,340 0,0 0,0 0,0 0,0 988,1091 988,1091 0,0 0,0 0,0 0,0 877,1182 877,1182 0,0 0,0 0,0 0,0 757,1263 757,1263 0,0 0,0 0,0 0,0 629,1331 629,1331 0,0 0,0 0,0 0,0 496,1386 496,1386 0,0 0,0 0,0 0,0 358,1428 358,1428 0,0 0,0 0,0 0,0 216,1456 216,1456 0,0 72,1470 72,1470z"/>
  <path class="fil0 str0" d="M20995 17341c-4,-72 -9,-184 -9,-184 0,0 0,0 0,0 0,0 -51,-340 -51,-340 0,0 0,0 0,0 0,0 -83,-334 -83,-334 0,0 0,0 0,0 0,0 -116,-323 -116,-323 0,0 0,0 0,0 0,0 -147,-311 -147,-311 0,0 0,0 0,0 0,0 -177,-295 -177,-295 0,0 0,0 0,0 0,0 -205,-276 -205,-276 0,0 0,0 0,0 0,0 -230,-255 -230,-255 0,0 0,0 0,0 0,0 -255,-230 -255,-230 0,0 0,0 0,0 0,0 -182,-135 -182,-135 0,0 0,0 0,0 0,0 -94,-70 -94,-70 0,0 0,0 0,0 0,0 -295,-177 -295,-177 0,0 0,0 0,0 0,0 -311,-147 -311,-147 0,0 0,0 0,0 0,0 -323,-116 -323,-116 0,0 0,0 0,0 0,0 -334,-83 -334,-83 0,0 0,0 0,0 0,0 -340,-51 -340,-51 0,0 0,0 0,0 0,0 -112,-5 -184,-9 0,-669 0,-1338 0,-2007 -106,0 -212,0 -318,0 0,669 0,1338 0,2007 -72,4 -184,9 -184,9 0,0 0,0 0,0 0,0 -340,51 -340,51 0,0 0,0 0,0 0,0 -334,83 -334,83 0,0 0,0 0,0 0,0 -323,116 -323,116 0,0 0,0 0,0 0,0 -311,147 -311,147 0,0 0,0 0,0 0,0 -295,177 -295,177 0,0 0,0 0,0 0,0 -110,82 -110,82 0,0 0,0 0,0 0,0 -166,123 -166,123 0,0 0,0 0,0 0,0 -255,230 -255,230 0,0 0,0 0,0 0,0 -230,255 -230,255 0,0 0,0 0,0 0,0 -205,276 -205,276 0,0 0,0 0,0 0,0 -177,295 -177,295 0,0 0,0 0,0 0,0 -147,311 -147,311 0,0 0,0 0,0 0,0 -116,323 -116,323 0,0 0,0 0,0 0,0 -83,334 -83,334 0,0 0,0 0,0 0,0 -51,340 -51,340 0,0 0,0 0,0 0,0 -6,112 -9,184 -669,0 -1339,0 -2008,0 0,106 0,212 0,318 669,0 1339,0 2008,0 3,72 9,184 9,184 0,0 0,0 0,0 0,0 15,97 15,97 0,0 0,0 0,0 0,0 36,243 36,243 0,0 0,0 0,0 0,0 83,334 83,334 0,0 0,0 0,0 0,0 116,323 116,323 0,0 0,0 0,0 0,0 147,311 147,311 0,0 0,0 0,0 0,0 177,295 177,295 0,0 0,0 0,0 0,0 205,276 205,276 0,0 0,0 0,0 0,0 230,255 230,255 0,0 0,0 0,0 0,0 255,230 255,230 0,0 0,0 0,0 0,0 166,123 166,123 0,0 0,0 0,0 0,0 110,82 110,82 0,0 0,0 0,0 0,0 295,177 295,177 0,0 0,0 0,0 0,0 311,147 311,147 0,0 0,0 0,0 0,0 323,116 323,116 0,0 0,0 0,0 0,0 334,83 334,83 0,0 0,0 0,0 0,0 340,51 340,51 0,0 0,0 0,0 0,0 112,6 184,9 0,669 0,1339 0,2008 106,0 212,0 318,0 0,-669 0,-1339 0,-2008 72,-3 184,-9 184,-9 0,0 0,0 0,0 0,0 340,-51 340,-51 0,0 0,0 0,0 0,0 334,-83 334,-83 0,0 0,0 0,0 0,0 323,-116 323,-116 0,0 0,0 0,0 0,0 311,-147 311,-147 0,0 0,0 0,0 0,0 295,-177 295,-177 0,0 0,0 0,0 0,0 94,-70 94,-70 0,0 0,0 0,0 0,0 182,-135 182,-135 0,0 0,0 0,0 0,0 255,-230 255,-230 0,0 0,0 0,0 0,0 230,-255 230,-255 0,0 0,0 0,0 0,0 205,-276 205,-276 0,0 0,0 0,0 0,0 177,-295 177,-295 0,0 0,0 0,0 0,0 147,-311 147,-311 0,0 0,0 0,0 0,0 116,-323 116,-323 0,0 0,0 0,0 0,0 83,-334 83,-334 0,0 0,0 0,0 0,0 36,-243 36,-243 0,0 0,0 0,0 0,0 15,-97 15,-97 0,0 0,0 0,0 0,0 5,-112 9,-184 669,0 1338,0 2007,0 0,-106 0,-212 0,-318 -669,0 -1338,0 -2007,0z"/>
 </g>
</svg>
