<?xml version="1.0" encoding="UTF-8"?>
<!DOCTYPE svg PUBLIC "-//W3C//DTD SVG 1.1//EN" "http://www.w3.org/Graphics/SVG/1.1/DTD/svg11.dtd">
<!-- Creator: CorelDRAW X7 -->
<svg xmlns="http://www.w3.org/2000/svg" xml:space="preserve" width="210mm" height="297mm" version="1.1" style="shape-rendering:geometricPrecision; text-rendering:geometricPrecision; image-rendering:optimizeQuality; fill-rule:evenodd; clip-rule:evenodd"
viewBox="0 0 21000 29700"
 xmlns:xlink="http://www.w3.org/1999/xlink">
 <defs>
  <style type="text/css">
   <![CDATA[
    .str0 {stroke:red;stroke-width:7.62;stroke-linejoin:bevel}
    .fil0 {fill:none}
   ]]>
  </style>
 </defs>
 <g id="Layer_x0020_1">
  <metadata id="CorelCorpID_0Corel-Layer"/>
  <path class="fil0 str0" d="M8127 17448c-75,-75 -150,-150 -225,-225 0,0 -237,237 -261,261 -55,-61 -149,-165 -149,-165 0,0 -228,-306 -228,-306 0,0 -196,-328 -196,-328 0,0 -164,-345 -164,-345 0,0 -128,-360 -128,-360 0,0 -32,-126 -32,-126 0,0 -2,-7 -2,-7 0,0 -26,-4 -26,-4 0,0 -53,-8 -53,-8 0,0 -6,-1 -6,-1 0,0 -49,-13 -49,-13 0,0 -40,-10 -40,-10 0,0 -94,-33 -94,-33 0,0 -88,-42 -88,-42 0,0 -86,-51 -86,-51 0,0 -78,-59 -78,-59 0,0 -73,-66 -73,-66 0,0 -67,-73 -67,-73 0,0 -58,-79 -58,-79 0,0 -15,-25 -15,-25 0,0 -36,-60 -36,-60 0,0 -42,-88 -42,-88 0,0 -33,-94 -33,-94 0,0 -24,-95 -24,-95 0,0 -15,-98 -15,-98 0,0 -5,-98 -5,-98 0,0 5,-98 5,-98 0,0 15,-98 15,-98 0,0 24,-95 24,-95 0,0 33,-94 33,-94 0,0 42,-88 42,-88 0,0 13,-22 13,-22 0,0 38,-63 38,-63 0,0 58,-79 58,-79 0,0 67,-73 67,-73 0,0 73,-66 73,-66 0,0 78,-59 78,-59 0,0 86,-51 86,-51 0,0 88,-42 88,-42 0,0 94,-33 94,-33 0,0 40,-10 40,-10 0,0 55,-14 55,-14 0,0 2,-1 2,-1 0,0 62,-9 62,-9 0,0 15,-2 15,-2 0,0 0,-1 0,-1 0,0 2,-6 2,-6 0,0 32,-126 32,-126 0,0 128,-360 128,-360 0,0 150,-315 150,-315 0,0 14,-30 14,-30 0,0 196,-328 196,-328 0,0 228,-306 228,-306 0,0 94,-104 149,-165 87,88 174,175 261,262 75,-75 150,-150 225,-225 -87,-87 -175,-174 -262,-261 61,-55 166,-150 166,-150 0,0 306,-228 306,-228 0,0 151,-90 151,-90 0,0 177,-106 177,-106 0,0 345,-164 345,-164 0,0 360,-128 360,-128 0,0 126,-32 126,-32 0,0 7,-2 7,-2 0,0 4,-24 4,-24 0,0 8,-55 8,-55 0,0 1,-6 1,-6 0,0 13,-49 13,-49 0,0 10,-40 10,-40 0,0 33,-94 33,-94 0,0 42,-88 42,-88 0,0 51,-86 51,-86 0,0 59,-78 59,-78 0,0 66,-73 66,-73 0,0 73,-67 73,-67 0,0 79,-58 79,-58 0,0 85,-51 85,-51 0,0 88,-42 88,-42 0,0 24,-9 24,-9 0,0 70,-24 70,-24 0,0 28,-7 28,-7 0,0 67,-17 67,-17 0,0 98,-15 98,-15 0,0 98,-5 98,-5 0,0 98,5 98,5 0,0 98,15 98,15 0,0 67,17 67,17 0,0 28,7 28,7 0,0 94,33 94,33 0,0 88,42 88,42 0,0 85,51 85,51 0,0 79,58 79,58 0,0 31,29 31,29 0,0 42,38 42,38 0,0 66,73 66,73 0,0 59,78 59,78 0,0 51,86 51,86 0,0 42,88 42,88 0,0 33,94 33,94 0,0 10,40 10,40 0,0 14,55 14,55 0,0 1,2 1,2 0,0 9,62 9,62 0,0 2,15 2,15 0,0 2,1 2,1 0,0 5,1 5,1 0,0 126,32 126,32 0,0 360,128 360,128 0,0 345,164 345,164 0,0 176,105 176,105 0,0 152,91 152,91 0,0 306,228 306,228 0,0 105,95 166,150 -87,87 -174,174 -261,261 0,0 -1,0 -1,0 75,75 150,150 225,225 87,-87 174,-175 261,-262 55,61 149,165 149,165 0,0 228,306 228,306 0,0 196,328 196,328 0,0 164,345 164,345 0,0 128,360 128,360 0,0 32,126 32,126 0,0 2,7 2,7 0,0 26,4 26,4 0,0 53,8 53,8 0,0 55,14 55,14 0,0 40,10 40,10 0,0 94,33 94,33 0,0 88,42 88,42 0,0 86,51 86,51 0,0 78,59 78,59 0,0 73,66 73,66 0,0 67,73 67,73 0,0 58,79 58,79 0,0 38,63 38,63 0,0 13,22 13,22 0,0 42,88 42,88 0,0 33,94 33,94 0,0 24,95 24,95 0,0 15,98 15,98 0,0 5,98 5,98 0,0 -5,98 -5,98 0,0 -15,98 -15,98 0,0 -24,95 -24,95 0,0 -33,94 -33,94 0,0 -42,88 -42,88 0,0 -36,60 -36,60 0,0 -15,25 -15,25 0,0 -58,79 -58,79 0,0 -67,73 -67,73 0,0 -73,66 -73,66 0,0 -78,59 -78,59 0,0 -86,51 -86,51 0,0 -88,42 -88,42 0,0 -94,33 -94,33 0,0 -40,10 -40,10 0,0 -55,14 -55,14 0,0 -2,1 -2,1 0,0 -62,9 -62,9 0,0 -15,2 -15,2 0,0 -2,7 -2,7 0,0 -32,126 -32,126 0,0 -128,360 -128,360 0,0 -164,345 -164,345 0,0 -106,177 -106,177 0,0 -90,151 -90,151 0,0 -228,306 -228,306 0,0 -94,104 -149,165 -87,-87 -174,-174 -261,-261 -75,75 -150,150 -225,225 87,87 174,174 261,261 -61,55 -165,149 -165,149 0,0 -306,228 -306,228 0,0 -328,197 -328,197 0,0 -345,163 -345,163 0,0 -65,23 -65,23 0,0 -295,105 -295,105 0,0 -126,32 -126,32 0,0 -7,2 -7,2 0,0 -4,26 -4,26 0,0 -8,53 -8,53 0,0 -24,95 -24,95 0,0 -33,94 -33,94 0,0 -42,88 -42,88 0,0 -51,86 -51,86 0,0 -59,78 -59,78 0,0 -66,73 -66,73 0,0 -42,38 -42,38 0,0 -31,29 -31,29 0,0 -79,58 -79,58 0,0 -85,51 -85,51 0,0 -88,42 -88,42 0,0 -94,33 -94,33 0,0 -95,24 -95,24 0,0 -98,15 -98,15 0,0 -98,5 -98,5 0,0 -98,-5 -98,-5 0,0 -98,-15 -98,-15 0,0 -95,-24 -95,-24 0,0 -70,-24 -70,-24 0,0 -24,-9 -24,-9 0,0 -88,-42 -88,-42 0,0 -85,-51 -85,-51 0,0 -79,-58 -79,-58 0,0 -73,-67 -73,-67 0,0 -66,-73 -66,-73 0,0 -59,-78 -59,-78 0,0 -51,-86 -51,-86 0,0 -42,-88 -42,-88 0,0 -33,-94 -33,-94 0,0 -24,-95 -24,-95 0,0 -10,-64 -10,-64 0,0 -2,-15 -2,-15 0,0 -1,0 -1,0 0,0 -6,-2 -6,-2 0,0 -126,-32 -126,-32 0,0 -295,-105 -295,-105 0,0 -65,-23 -65,-23 0,0 -345,-163 -345,-163 0,0 -177,-106 -177,-106 0,0 -151,-91 -151,-91 0,0 -306,-228 -306,-228 0,0 -103,-92 -164,-148 25,-25 261,-261 261,-261 1,0 -1,-1 -1,-1z"/>
  <path class="fil0 str0" d="M9111 13398c0,0 -33,30 -33,30 0,0 -68,75 -68,75 0,0 -65,71 -65,71 0,0 -117,158 -117,158 0,0 -102,170 -102,170 0,0 -84,179 -84,179 0,0 -67,185 -67,185 0,0 -22,89 -22,89 0,0 -26,102 -26,102 0,0 -29,196 -29,196 0,0 -10,197 -10,197 0,0 10,197 10,197 0,0 29,196 29,196 0,0 48,191 48,191 0,0 67,185 67,185 0,0 84,179 84,179 0,0 102,170 102,170 0,0 117,158 117,158 0,0 65,71 65,71 0,0 68,75 68,75 0,0 33,30 33,30 0,0 42,38 42,38 0,0 71,65 71,65 0,0 158,117 158,117 0,0 114,68 114,68 0,0 56,34 56,34 0,0 179,84 179,84 0,0 185,67 185,67 0,0 191,48 191,48 0,0 196,29 196,29 0,0 197,10 197,10 0,0 197,-10 197,-10 0,0 196,-29 196,-29 0,0 191,-48 191,-48 0,0 84,-31 84,-31 0,0 101,-36 101,-36 0,0 179,-84 179,-84 0,0 56,-34 56,-34 0,0 114,-68 114,-68 0,0 148,-110 148,-110 0,0 10,-7 10,-7 0,0 71,-65 71,-65 0,0 75,-68 75,-68 0,0 68,-75 68,-75 0,0 65,-71 65,-71 0,0 117,-158 117,-158 0,0 102,-170 102,-170 0,0 84,-179 84,-179 0,0 67,-185 67,-185 0,0 48,-191 48,-191 0,0 29,-196 29,-196 0,0 9,-197 9,-197 0,0 -9,-197 -9,-197 0,0 -29,-196 -29,-196 0,0 -26,-102 -26,-102 0,0 -22,-89 -22,-89 0,0 -67,-185 -67,-185 0,0 -84,-179 -84,-179 0,0 -102,-170 -102,-170 0,0 -117,-158 -117,-158 0,0 -65,-71 -65,-71 0,0 -68,-75 -68,-75 0,0 -75,-68 -75,-68 0,0 -71,-65 -71,-65 0,0 -158,-117 -158,-117 0,0 -114,-68 -114,-68 0,0 -56,-34 -56,-34 0,0 -179,-84 -179,-84 0,0 -101,-36 -101,-36 0,0 -84,-31 -84,-31 0,0 -191,-48 -191,-48 0,0 -196,-29 -196,-29 0,0 -197,-9 -197,-9 0,0 -197,9 -197,9 0,0 -196,29 -196,29 0,0 -191,48 -191,48 0,0 -185,67 -185,67 0,0 -179,84 -179,84 0,0 -56,34 -56,34 0,0 -114,68 -114,68 0,0 -158,117 -158,117 0,0 -71,65 -71,65 0,0 -42,38 -42,38z"/>
 </g>
</svg>
