<?xml version="1.0" encoding="UTF-8"?>
<!DOCTYPE svg PUBLIC "-//W3C//DTD SVG 1.1//EN" "http://www.w3.org/Graphics/SVG/1.1/DTD/svg11.dtd">
<!-- Creator: CorelDRAW X7 -->
<svg xmlns="http://www.w3.org/2000/svg" xml:space="preserve" width="210mm" height="297mm" version="1.1" style="shape-rendering:geometricPrecision; text-rendering:geometricPrecision; image-rendering:optimizeQuality; fill-rule:evenodd; clip-rule:evenodd"
viewBox="0 0 21000 29700"
 xmlns:xlink="http://www.w3.org/1999/xlink">
 <defs>
  <style type="text/css">
   <![CDATA[
    .str1 {stroke:black;stroke-width:7.62;stroke-linejoin:bevel}
    .str0 {stroke:red;stroke-width:7.62;stroke-linejoin:bevel}
    .fil0 {fill:none}
   ]]>
  </style>
 </defs>
 <g id="Layer_x0020_1">
  <metadata id="CorelCorpID_0Corel-Layer"/>
  <path class="fil0 str0" d="M15485 11511c0,0 0,0 0,0 0,0 4,6 4,6 0,0 0,0 0,0 0,0 303,505 303,505 0,0 0,0 0,0 0,0 222,471 222,471 0,0 0,0 0,0 0,0 29,61 29,61 0,0 0,0 0,0 0,0 199,554 199,554 0,0 0,0 0,0 0,0 143,571 143,571 0,0 0,0 0,0 0,0 86,583 86,583 0,0 0,0 0,0 0,0 29,588 29,588 0,0 0,0 0,0 0,0 -29,588 -29,588 0,0 0,0 0,0 0,0 -25,169 -25,169 0,0 0,0 0,0 0,0 -61,414 -61,414 0,0 0,0 0,0 0,0 -143,571 -143,571 0,0 0,0 0,0 0,0 -199,554 -199,554 0,0 0,0 0,0 0,0 -251,532 -251,532 0,0 0,0 0,0 0,0 -303,505 -303,505 0,0 0,0 0,0 0,0 -351,473 -351,473 0,0 0,0 0,0 0,0 -395,437 -395,437 0,0 0,0 0,0 0,0 -437,395 -437,395 0,0 0,0 0,0 0,0 -44,33 -44,33 0,0 0,0 0,0 0,0 -429,318 -429,318 0,0 0,0 0,0 0,0 -505,303 -505,303 0,0 0,0 0,0 0,0 -66,31 -66,31 0,0 0,0 0,0 0,0 -405,191 -405,191 0,0 0,0 0,0 0,0 -61,29 -61,29 0,0 0,0 0,0 0,0 -554,199 -554,199 0,0 0,0 0,0 0,0 -571,143 -571,143 0,0 0,0 0,0 0,0 -583,86 -583,86 0,0 0,0 0,0 0,0 -588,29 -588,29 0,0 0,0 0,0 0,0 -588,-29 -588,-29 0,0 0,0 0,0 0,0 -583,-86 -583,-86 0,0 0,0 0,0 0,0 -571,-143 -571,-143 0,0 0,0 0,0 0,0 -554,-199 -554,-199 0,0 0,0 0,0 0,0 -61,-29 -61,-29 0,0 0,0 0,0 0,0 -405,-191 -405,-191 0,0 0,0 0,0 0,0 -66,-31 -66,-31 0,0 0,0 0,0 0,0 -505,-303 -505,-303 0,0 0,0 0,0 0,0 -473,-351 -473,-351 0,0 0,0 0,0 0,0 -437,-395 -437,-395 0,0 0,0 0,0 0,0 -187,-207 -187,-207 0,0 0,0 0,0 0,0 -208,-230 -208,-230 0,0 0,0 0,0 0,0 -351,-473 -351,-473 0,0 0,0 0,0 0,0 -303,-505 -303,-505 0,0 0,0 0,0 0,0 -222,-471 -222,-471 0,0 0,0 0,0 0,0 -29,-61 -29,-61 0,0 0,0 0,0 0,0 -199,-554 -199,-554 0,0 0,0 0,0 0,0 -143,-571 -143,-571 0,0 0,0 0,0 0,0 -86,-583 -86,-583 0,0 0,0 0,0 0,0 -29,-588 -29,-588 0,0 0,0 0,0 0,0 29,-588 29,-588 0,0 0,0 0,0 0,0 86,-583 86,-583 0,0 0,0 0,0 0,0 143,-571 143,-571 0,0 0,0 0,0 0,0 199,-554 199,-554 0,0 0,0 0,0 0,0 29,-61 29,-61 0,0 0,0 0,0 0,0 222,-471 222,-471 0,0 0,0 0,0 0,0 303,-505 303,-505 0,0 0,0 0,0 0,0 4,-6 4,-6 0,0 0,0 0,0 0,0 347,-467 347,-467 0,0 0,0 0,0 0,0 208,-230 208,-230 0,0 0,0 0,0 0,0 187,-207 187,-207 0,0 0,0 0,0 0,0 437,-395 437,-395 0,0 0,0 0,0 0,0 473,-351 473,-351 0,0 0,0 0,0 0,0 505,-303 505,-303 0,0 0,0 0,0 0,0 468,-221 468,-221 0,0 0,0 0,0 0,0 64,-30 64,-30 0,0 0,0 0,0 0,0 554,-199 554,-199 0,0 0,0 0,0 0,0 571,-143 571,-143 0,0 0,0 0,0 0,0 583,-86 583,-86 0,0 0,0 0,0 0,0 588,-29 588,-29 0,0 0,0 0,0 0,0 588,29 588,29 0,0 0,0 0,0 0,0 583,86 583,86 0,0 0,0 0,0 0,0 571,143 571,143 0,0 0,0 0,0 0,0 554,199 554,199 0,0 0,0 0,0 0,0 64,30 64,30 0,0 0,0 0,0 0,0 468,221 468,221 0,0 0,0 0,0 0,0 505,303 505,303 0,0 0,0 0,0 0,0 429,318 429,318 0,0 0,0 0,0 0,0 44,33 44,33 0,0 0,0 0,0 0,0 437,395 437,395 0,0 0,0 0,0 0,0 395,437 395,437 0,0 347,467 347,467z"/>
  <path class="fil0 str0" d="M8647 15607c0,0 0,0 0,0 0,0 3,9 3,9 0,0 0,0 0,0 0,0 84,178 84,178 0,0 0,0 0,0 0,0 101,169 101,169 0,0 0,0 0,0 0,0 117,157 117,157 0,0 0,0 0,0 0,0 132,146 132,146 0,0 0,0 0,0 0,0 146,132 146,132 0,0 0,0 0,0 0,0 157,117 157,117 0,0 0,0 0,0 0,0 169,101 169,101 0,0 0,0 0,0 0,0 178,84 178,84 0,0 0,0 0,0 0,0 185,66 185,66 0,0 0,0 0,0 0,0 190,48 190,48 0,0 0,0 0,0 0,0 57,8 57,8 0,0 0,0 0,0 0,0 138,21 138,21 0,0 0,0 0,0 0,0 196,10 196,10 0,0 0,0 0,0 0,0 196,-10 196,-10 0,0 0,0 0,0 0,0 195,-29 195,-29 0,0 0,0 0,0 0,0 190,-48 190,-48 0,0 0,0 0,0 0,0 185,-66 185,-66 0,0 0,0 0,0 0,0 178,-84 178,-84 0,0 0,0 0,0 0,0 169,-101 169,-101 0,0 0,0 0,0 0,0 157,-117 157,-117 0,0 0,0 0,0 0,0 146,-132 146,-132 0,0 0,0 0,0 0,0 132,-146 132,-146 0,0 0,0 0,0 0,0 117,-157 117,-157 0,0 0,0 0,0 0,0 49,-82 49,-82 0,0 0,0 0,0 0,0 52,-87 52,-87 0,0 0,0 0,0 0,0 84,-178 84,-178 0,0 0,0 0,0 0,0 3,-9 3,-9 0,0 0,0 0,0 0,0 63,-176 63,-176 0,0 0,0 0,0 0,0 48,-190 48,-190 0,0 0,0 0,0 0,0 29,-195 29,-195 0,0 0,0 0,0 0,0 10,-196 10,-196 0,0 0,0 0,0 0,0 -10,-196 -10,-196 0,0 0,0 0,0 0,0 -29,-195 -29,-195 0,0 0,0 0,0 0,0 -48,-190 -48,-190 0,0 0,0 0,0 0,0 -66,-185 -66,-185 0,0 0,0 0,0 0,0 -84,-178 -84,-178 0,0 0,0 0,0 0,0 -101,-169 -101,-169 0,0 0,0 0,0 0,0 -117,-157 -117,-157 0,0 0,0 0,0 0,0 -19,-21 -19,-21 0,0 0,0 0,0 0,0 -113,-125 -113,-125 0,0 0,0 0,0 0,0 -146,-132 -146,-132 0,0 0,0 0,0 0,0 -157,-117 -157,-117 0,0 0,0 0,0 0,0 -169,-101 -169,-101 0,0 0,0 0,0 0,0 -178,-84 -178,-84 0,0 0,0 0,0 0,0 -185,-66 -185,-66 0,0 0,0 0,0 0,0 -190,-48 -190,-48 0,0 0,0 0,0 0,0 -195,-29 -195,-29 0,0 0,0 0,0 0,0 -196,-9 -196,-9 0,0 0,0 0,0 0,0 -196,9 -196,9 0,0 0,0 0,0 0,0 -138,21 -138,21 0,0 0,0 0,0 0,0 -57,8 -57,8 0,0 0,0 0,0 0,0 -190,48 -190,48 0,0 0,0 0,0 0,0 -185,66 -185,66 0,0 0,0 0,0 0,0 -178,84 -178,84 0,0 0,0 0,0 0,0 -169,101 -169,101 0,0 0,0 0,0 0,0 -157,117 -157,117 0,0 0,0 0,0 0,0 -146,132 -146,132 0,0 0,0 0,0 0,0 -113,125 -113,125 0,0 0,0 0,0 0,0 -19,21 -19,21 0,0 0,0 0,0 0,0 -117,157 -117,157 0,0 0,0 0,0 0,0 -101,169 -101,169 0,0 0,0 0,0 0,0 -84,178 -84,178 0,0 0,0 0,0 0,0 -66,185 -66,185 0,0 0,0 0,0 0,0 -48,190 -48,190 0,0 0,0 0,0 0,0 -29,195 -29,195 0,0 0,0 0,0 0,0 -10,196 -10,196 0,0 0,0 0,0 0,0 10,196 10,196 0,0 0,0 0,0 0,0 29,195 29,195 0,0 0,0 0,0 0,0 48,190 48,190 0,0 63,176 63,176z"/>
 </g>
 <g id="_0">
  <metadata id="CorelCorpID_1Corel-Layer"/>
  <polygon class="fil0 str1" points="10341,20365 10341,17613 10658,17613 10658,20365 "/>
  <polygon class="fil0 str1" points="10341,12089 10341,9337 10658,9337 10658,12089 "/>
  <polygon class="fil0 str1" points="7738,15009 4986,15009 4986,14692 7738,14692 "/>
  <polygon class="fil0 str1" points="16014,15009 13262,15009 13262,14692 16014,14692 "/>
 </g>
</svg>
