<?xml version="1.0" encoding="utf-8"?>
<svg width="320mm" height="320mm" viewBox="-7 81.99999999999999 42 41.999999999999986" version="1.1" xmlns="http://www.w3.org/2000/svg">
  <title>svgOutput</title>
  <desc>made with tinkercad</desc>
  <path d="M 15.532 102.282 L 15.604 102.264 L 15.676 102.254 L 15.75 102.25 L 15.824 102.254 L 15.896 102.264 L 15.968 102.282 L 16.037 102.307 L 16.104 102.339 L 16.167 102.376 L 16.199 102.4 L 16.226 102.42 L 16.28 102.47 L 16.33 102.524 L 16.374 102.583 L 16.384 102.6 L 16.411 102.646 L 16.443 102.713 L 16.468 102.782 L 16.486 102.854 L 16.496 102.926 L 16.5 103 L 16.496 103.074 L 16.486 103.146 L 16.468 103.218 L 16.443 103.287 L 16.411 103.354 L 16.384 103.4 L 16.374 103.417 L 16.369 103.424 L 16.33 103.476 L 16.28 103.53 L 16.226 103.58 L 16.167 103.624 L 16.104 103.661 L 16.037 103.693 L 15.968 103.718 L 15.896 103.736 L 15.872 103.739 L 15.824 103.746 L 15.75 103.75 L 15.676 103.746 L 15.604 103.736 L 15.532 103.718 L 15.463 103.693 L 15.396 103.661 L 15.36 103.64 L 15.333 103.624 L 15.274 103.58 L 15.22 103.53 L 15.17 103.476 L 15.131 103.424 L 15.126 103.417 L 15.089 103.354 L 15.057 103.287 L 15.032 103.218 L 15.014 103.146 L 15.004 103.074 L 15 103 L 15.004 102.926 L 15.006 102.912 L 15.014 102.854 L 15.032 102.782 L 15.057 102.713 L 15.089 102.646 L 15.126 102.583 L 15.17 102.524 L 15.22 102.47 L 15.274 102.42 L 15.301 102.4 L 15.333 102.376 L 15.396 102.339 L 15.463 102.307 L 15.532 102.282 M 12.032 102.282 L 12.104 102.264 L 12.176 102.254 L 12.25 102.25 L 12.324 102.254 L 12.396 102.264 L 12.468 102.282 L 12.537 102.307 L 12.604 102.339 L 12.667 102.376 L 12.699 102.4 L 12.726 102.42 L 12.78 102.47 L 12.83 102.524 L 12.874 102.583 L 12.911 102.646 L 12.943 102.713 L 12.968 102.782 L 12.986 102.854 L 12.994 102.912 L 12.996 102.926 L 13 103 L 12.996 103.074 L 12.986 103.146 L 12.968 103.218 L 12.943 103.287 L 12.911 103.354 L 12.874 103.417 L 12.869 103.424 L 12.83 103.476 L 12.78 103.53 L 12.726 103.58 L 12.667 103.624 L 12.604 103.661 L 12.537 103.693 L 12.468 103.718 L 12.396 103.736 L 12.324 103.746 L 12.288 103.748 L 12.25 103.75 L 12.176 103.746 L 12.104 103.736 L 12.032 103.718 L 11.963 103.693 L 11.896 103.661 L 11.833 103.624 L 11.774 103.58 L 11.72 103.53 L 11.67 103.476 L 11.631 103.424 L 11.626 103.417 L 11.589 103.354 L 11.557 103.287 L 11.532 103.218 L 11.514 103.146 L 11.504 103.074 L 11.5 103 L 11.504 102.926 L 11.506 102.912 L 11.514 102.854 L 11.532 102.782 L 11.557 102.713 L 11.589 102.646 L 11.626 102.583 L 11.67 102.524 L 11.72 102.47 L 11.774 102.42 L 11.801 102.4 L 11.833 102.376 L 11.896 102.339 L 11.963 102.307 L 12.032 102.282 M 0.167 116.626 L 0.226 116.67 L 0.28 116.72 L 0.295 116.736 L 0.33 116.774 L 0.374 116.833 L 0.411 116.896 L 0.443 116.963 L 0.468 117.032 L 0.486 117.104 L 0.496 117.176 L 0.5 117.248 L 0.5 117.25 L 0.496 117.324 L 0.486 117.396 L 0.468 117.468 L 0.443 117.537 L 0.411 117.604 L 0.374 117.667 L 0.33 117.726 L 0.299 117.76 L 0.28 117.78 L 0.226 117.83 L 0.167 117.874 L 0.104 117.911 L 0.037 117.943 L 0 117.956 L -0.032 117.968 L -0.104 117.986 L -0.176 117.996 L -0.25 118 L -0.324 117.996 L -0.396 117.986 L -0.468 117.968 L -0.537 117.943 L -0.604 117.911 L -0.667 117.874 L -0.726 117.83 L -0.78 117.78 L -0.799 117.76 L -0.83 117.726 L -0.874 117.667 L -0.911 117.604 L -0.943 117.537 L -0.968 117.468 L -0.986 117.396 L -0.996 117.324 L -1 117.25 L -1 117.248 L -0.996 117.176 L -0.986 117.104 L -0.968 117.032 L -0.943 116.963 L -0.911 116.896 L -0.874 116.833 L -0.83 116.774 L -0.795 116.736 L -0.78 116.72 L -0.726 116.67 L -0.667 116.626 L -0.604 116.589 L -0.537 116.557 L -0.468 116.532 L -0.396 116.514 L -0.324 116.504 L -0.25 116.5 L -0.176 116.504 L -0.104 116.514 L -0.032 116.532 L 0 116.544 L 0.037 116.557 L 0.104 116.589 L 0.167 116.626 M -0.396 88.014 L -0.324 88.004 L -0.25 88 L -0.176 88.004 L -0.104 88.014 L -0.032 88.032 L 0.037 88.057 L 0.052 88.064 L 0.104 88.089 L 0.167 88.126 L 0.226 88.17 L 0.28 88.22 L 0.33 88.274 L 0.374 88.333 L 0.411 88.396 L 0.443 88.463 L 0.468 88.532 L 0.479 88.576 L 0.486 88.604 L 0.496 88.676 L 0.5 88.75 L 0.496 88.824 L 0.486 88.896 L 0.468 88.968 L 0.443 89.037 L 0.419 89.088 L 0.411 89.104 L 0.374 89.167 L 0.33 89.226 L 0.28 89.28 L 0.226 89.33 L 0.167 89.374 L 0.104 89.411 L 0.037 89.443 L 0 89.456 L -0.032 89.468 L -0.104 89.486 L -0.176 89.496 L -0.25 89.5 L -0.324 89.496 L -0.396 89.486 L -0.468 89.468 L -0.512 89.452 L -0.537 89.443 L -0.604 89.411 L -0.667 89.374 L -0.726 89.33 L -0.78 89.28 L -0.83 89.226 L -0.874 89.167 L -0.911 89.104 L -0.919 89.088 L -0.943 89.037 L -0.968 88.968 L -0.986 88.896 L -0.996 88.824 L -1 88.75 L -0.996 88.676 L -0.986 88.604 L -0.979 88.576 L -0.968 88.532 L -0.943 88.463 L -0.911 88.396 L -0.874 88.333 L -0.83 88.274 L -0.78 88.22 L -0.726 88.17 L -0.667 88.126 L -0.604 88.089 L -0.552 88.064 L -0.537 88.057 L -0.468 88.032 L -0.396 88.014 M -1 119.003 L 27.5 119.003 L 30.003 119.003 L 30.003 118 L 30.003 86.998 L 29 86.998 L 27.5 86.998 L 0.5 86.998 L -1 86.998 L -2.003 86.998 L -2.003 119.003 L -1 119.003 M 28.537 88.057 L 28.552 88.064 L 28.604 88.089 L 28.667 88.126 L 28.672 88.13 L 28.726 88.17 L 28.78 88.22 L 28.83 88.274 L 28.874 88.333 L 28.911 88.396 L 28.943 88.463 L 28.968 88.532 L 28.986 88.604 L 28.996 88.676 L 29 88.75 L 28.996 88.824 L 28.986 88.896 L 28.968 88.968 L 28.943 89.037 L 28.919 89.088 L 28.911 89.104 L 28.874 89.167 L 28.83 89.226 L 28.78 89.28 L 28.726 89.33 L 28.672 89.37 L 28.667 89.374 L 28.604 89.411 L 28.537 89.443 L 28.468 89.468 L 28.396 89.486 L 28.324 89.496 L 28.25 89.5 L 28.176 89.496 L 28.16 89.494 L 28.104 89.486 L 28.032 89.468 L 27.963 89.443 L 27.896 89.411 L 27.833 89.374 L 27.774 89.33 L 27.72 89.28 L 27.67 89.226 L 27.648 89.197 L 27.626 89.167 L 27.589 89.104 L 27.581 89.088 L 27.557 89.037 L 27.532 88.968 L 27.514 88.896 L 27.504 88.824 L 27.5 88.75 L 27.504 88.676 L 27.514 88.604 L 27.532 88.532 L 27.557 88.463 L 27.589 88.396 L 27.626 88.333 L 27.648 88.303 L 27.67 88.274 L 27.72 88.22 L 27.774 88.17 L 27.833 88.126 L 27.896 88.089 L 27.948 88.064 L 27.963 88.057 L 28.032 88.032 L 28.104 88.014 L 28.176 88.004 L 28.25 88 L 28.324 88.004 L 28.396 88.014 L 28.468 88.032 L 28.537 88.057 M 28.78 116.72 L 28.795 116.736 L 28.83 116.774 L 28.874 116.833 L 28.911 116.896 L 28.943 116.963 L 28.968 117.032 L 28.986 117.104 L 28.996 117.176 L 29 117.248 L 29 117.25 L 28.996 117.324 L 28.986 117.396 L 28.968 117.468 L 28.943 117.537 L 28.911 117.604 L 28.874 117.667 L 28.83 117.726 L 28.799 117.76 L 28.78 117.78 L 28.726 117.83 L 28.672 117.87 L 28.667 117.874 L 28.604 117.911 L 28.537 117.943 L 28.468 117.968 L 28.396 117.986 L 28.324 117.996 L 28.25 118 L 28.176 117.996 L 28.16 117.994 L 28.104 117.986 L 28.032 117.968 L 27.963 117.943 L 27.896 117.911 L 27.833 117.874 L 27.774 117.83 L 27.72 117.78 L 27.701 117.76 L 27.67 117.726 L 27.648 117.697 L 27.626 117.667 L 27.589 117.604 L 27.557 117.537 L 27.532 117.468 L 27.514 117.396 L 27.504 117.324 L 27.5 117.25 L 27.504 117.176 L 27.514 117.104 L 27.532 117.032 L 27.557 116.963 L 27.589 116.896 L 27.626 116.833 L 27.648 116.803 L 27.67 116.774 L 27.705 116.736 L 27.72 116.72 L 27.774 116.67 L 27.833 116.626 L 27.896 116.589 L 27.963 116.557 L 28.032 116.532 L 28.104 116.514 L 28.16 116.506 L 28.176 116.504 L 28.25 116.5 L 28.324 116.504 L 28.396 116.514 L 28.468 116.532 L 28.537 116.557 L 28.604 116.589 L 28.667 116.626 L 28.672 116.63 L 28.726 116.67 L 28.78 116.72 Z" fill="none" stroke="rgb(255,0,0)" stroke-width="0.001mm"/>
</svg>