<?xml version="1.0" encoding="utf-8"?>
<svg width="320mm" height="320mm" viewBox="-95 81.99999999999999 42 41.999999999999986" version="1.1" xmlns="http://www.w3.org/2000/svg">
  <title>svgOutput</title>
  <desc>made with tinkercad</desc>
  <path d="M -59.968 88.032 L -59.896 88.014 L -59.824 88.004 L -59.75 88 L -59.676 88.004 L -59.604 88.014 L -59.532 88.032 L -59.463 88.057 L -59.448 88.064 L -59.396 88.089 L -59.392 88.091 L -59.333 88.126 L -59.274 88.17 L -59.22 88.22 L -59.17 88.274 L -59.126 88.333 L -59.089 88.396 L -59.057 88.463 L -59.032 88.532 L -59.021 88.576 L -59.014 88.604 L -59.004 88.676 L -59 88.75 L -59.004 88.824 L -59.014 88.896 L -59.032 88.968 L -59.057 89.037 L -59.081 89.088 L -59.089 89.104 L -59.126 89.167 L -59.17 89.226 L -59.22 89.28 L -59.274 89.33 L -59.333 89.374 L -59.392 89.409 L -59.396 89.411 L -59.463 89.443 L -59.532 89.468 L -59.604 89.486 L -59.676 89.496 L -59.75 89.5 L -59.824 89.496 L -59.896 89.486 L -59.904 89.484 L -59.968 89.468 L -60.037 89.443 L -60.104 89.411 L -60.167 89.374 L -60.226 89.33 L -60.28 89.28 L -60.33 89.226 L -60.374 89.167 L -60.411 89.104 L -60.416 89.094 L -60.419 89.088 L -60.443 89.037 L -60.468 88.968 L -60.486 88.896 L -60.496 88.824 L -60.5 88.75 L -60.496 88.676 L -60.486 88.604 L -60.468 88.532 L -60.443 88.463 L -60.416 88.406 L -60.411 88.396 L -60.374 88.333 L -60.33 88.274 L -60.28 88.22 L -60.226 88.17 L -60.167 88.126 L -60.104 88.089 L -60.052 88.064 L -60.037 88.057 L -59.968 88.032 M -63.393 92.393 L -62.405 93.484 L -61.528 94.666 L -60.771 95.929 L -60.5 96.502 L -60.142 97.26 L -59.768 98.304 L -59.646 98.646 L -59.288 100.074 L -59.072 101.53 L -59 103 L -59.072 104.47 L -59.288 105.926 L -59.646 107.354 L -60.142 108.74 L -60.5 109.498 L -60.771 110.071 L -61.528 111.334 L -62.405 112.516 L -63.393 113.607 L -64.484 114.595 L -65.536 115.376 L -65.666 115.472 L -66.929 116.229 L -68.26 116.858 L -69.646 117.354 L -71.074 117.712 L -72.53 117.928 L -74 118 L -75.47 117.928 L -76.5 117.775 L -76.926 117.712 L -77.503 117.567 L -78.354 117.354 L -79.74 116.858 L -81.071 116.229 L -81.92 115.72 L -82.334 115.472 L -83.516 114.595 L -84.607 113.607 L -85.595 112.516 L -86.472 111.334 L -87.229 110.071 L -87.5 109.498 L -87.858 108.74 L -88.354 107.354 L -88.712 105.926 L -88.928 104.47 L -89 103 L -88.928 101.53 L -88.712 100.074 L -88.354 98.646 L -88.232 98.304 L -87.858 97.26 L -87.5 96.502 L -87.229 95.929 L -86.472 94.666 L -85.595 93.484 L -84.607 92.393 L -83.516 91.405 L -82.334 90.528 L -81.92 90.28 L -81.071 89.771 L -80.498 89.5 L -79.74 89.142 L -78.354 88.646 L -76.926 88.288 L -75.47 88.072 L -74 88 L -72.53 88.072 L -71.074 88.288 L -69.646 88.646 L -68.26 89.142 L -67.502 89.5 L -66.929 89.771 L -65.666 90.528 L -65.536 90.624 L -64.484 91.405 L -63.393 92.393 M -88.324 88.004 L -88.25 88 L -88.176 88.004 L -88.104 88.014 L -88.032 88.032 L -87.963 88.057 L -87.948 88.064 L -87.896 88.089 L -87.833 88.126 L -87.774 88.17 L -87.72 88.22 L -87.67 88.274 L -87.626 88.333 L -87.589 88.396 L -87.557 88.463 L -87.532 88.532 L -87.521 88.576 L -87.514 88.604 L -87.504 88.676 L -87.5 88.75 L -87.504 88.824 L -87.514 88.896 L -87.532 88.968 L -87.557 89.037 L -87.581 89.088 L -87.589 89.104 L -87.626 89.167 L -87.67 89.226 L -87.72 89.28 L -87.774 89.33 L -87.833 89.374 L -87.896 89.411 L -87.963 89.443 L -88.032 89.468 L -88.064 89.476 L -88.104 89.486 L -88.176 89.496 L -88.25 89.5 L -88.324 89.496 L -88.396 89.486 L -88.468 89.468 L -88.537 89.443 L -88.604 89.411 L -88.667 89.374 L -88.726 89.33 L -88.78 89.28 L -88.83 89.226 L -88.874 89.167 L -88.911 89.104 L -88.919 89.088 L -88.943 89.037 L -88.968 88.968 L -88.986 88.896 L -88.996 88.824 L -89 88.75 L -88.996 88.676 L -88.986 88.604 L -88.979 88.576 L -88.968 88.532 L -88.943 88.463 L -88.911 88.396 L -88.874 88.333 L -88.83 88.274 L -88.78 88.22 L -88.726 88.17 L -88.667 88.126 L -88.604 88.089 L -88.552 88.064 L -88.537 88.057 L -88.468 88.032 L -88.396 88.014 L -88.324 88.004 M -59.274 116.67 L -59.22 116.72 L -59.205 116.736 L -59.17 116.774 L -59.126 116.833 L -59.089 116.896 L -59.057 116.963 L -59.032 117.032 L -59.014 117.104 L -59.004 117.176 L -59 117.248 L -59 117.25 L -59.004 117.324 L -59.014 117.396 L -59.032 117.468 L -59.057 117.537 L -59.089 117.604 L -59.126 117.667 L -59.17 117.726 L -59.201 117.76 L -59.22 117.78 L -59.274 117.83 L -59.333 117.874 L -59.392 117.909 L -59.396 117.911 L -59.463 117.943 L -59.532 117.968 L -59.604 117.986 L -59.676 117.996 L -59.75 118 L -59.824 117.996 L -59.896 117.986 L -59.968 117.968 L -60.037 117.943 L -60.104 117.911 L -60.167 117.874 L -60.226 117.83 L -60.28 117.78 L -60.299 117.76 L -60.33 117.726 L -60.374 117.667 L -60.411 117.604 L -60.416 117.594 L -60.443 117.537 L -60.468 117.468 L -60.486 117.396 L -60.496 117.324 L -60.5 117.25 L -60.496 117.176 L -60.486 117.104 L -60.468 117.032 L -60.443 116.963 L -60.416 116.906 L -60.411 116.896 L -60.374 116.833 L -60.33 116.774 L -60.295 116.736 L -60.28 116.72 L -60.226 116.67 L -60.167 116.626 L -60.104 116.589 L -60.037 116.557 L -59.968 116.532 L -59.896 116.514 L -59.824 116.504 L -59.75 116.5 L -59.676 116.504 L -59.604 116.514 L -59.532 116.532 L -59.463 116.557 L -59.396 116.589 L -59.392 116.591 L -59.333 116.626 L -59.274 116.67 M -73.9 106.498 L -73.859 106.496 L -73.728 106.49 L -73.657 106.486 L -73.317 106.435 L -72.983 106.352 L -72.66 106.236 L -72.349 106.089 L -72.054 105.912 L -71.778 105.707 L -71.523 105.477 L -71.293 105.222 L -71.088 104.946 L -70.911 104.651 L -70.815 104.448 L -70.764 104.34 L -70.648 104.017 L -70.582 103.75 L -70.565 103.683 L -70.514 103.343 L -70.503 103.1 L -70.498 103.1 L -68.498 103.1 L -68.498 102.9 L -70.498 102.9 L -70.503 102.9 L -70.514 102.657 L -70.553 102.4 L -70.565 102.317 L -70.648 101.983 L -70.764 101.66 L -70.911 101.349 L -71.088 101.054 L -71.293 100.778 L -71.5 100.549 L -71.523 100.523 L -71.68 100.381 L -71.778 100.293 L -72.054 100.088 L -72.349 99.911 L -72.66 99.764 L -72.983 99.648 L -73 99.644 L -73.317 99.565 L -73.657 99.514 L -73.728 99.511 L -73.9 99.503 L -73.9 99.498 L -73.9 98.304 L -73.9 97.498 L -74.1 97.498 L -74.1 98.304 L -74.1 99.498 L -74.1 99.503 L -74.343 99.514 L -74.683 99.565 L -75 99.644 L -75.017 99.648 L -75.34 99.764 L -75.651 99.911 L -75.776 99.986 L -75.946 100.088 L -76.222 100.293 L -76.477 100.523 L -76.5 100.549 L -76.707 100.778 L -76.912 101.054 L -77.089 101.349 L -77.236 101.66 L -77.352 101.983 L -77.435 102.317 L -77.447 102.4 L -77.486 102.657 L -77.498 102.9 L -77.503 102.9 L -79.503 102.9 L -79.503 103.1 L -77.503 103.1 L -77.498 103.1 L -77.486 103.343 L -77.435 103.683 L -77.352 104.017 L -77.236 104.34 L -77.185 104.448 L -77.089 104.651 L -76.912 104.946 L -76.707 105.222 L -76.5 105.451 L -76.477 105.477 L -76.222 105.707 L -75.946 105.912 L -75.651 106.089 L -75.34 106.236 L -75.017 106.352 L -74.683 106.435 L -74.343 106.486 L -74.141 106.496 L -74.1 106.498 L -74.1 106.503 L -74.1 108.503 L -73.9 108.503 L -73.9 106.503 L -73.9 106.498 M -75.22 102.47 L -75.17 102.524 L -75.126 102.583 L -75.089 102.646 L -75.057 102.713 L -75.032 102.782 L -75.014 102.854 L -75.006 102.912 L -75.004 102.926 L -75 103 L -75.004 103.074 L -75.014 103.146 L -75.032 103.218 L -75.057 103.287 L -75.089 103.354 L -75.126 103.417 L -75.131 103.424 L -75.17 103.476 L -75.22 103.53 L -75.274 103.58 L -75.333 103.624 L -75.396 103.661 L -75.463 103.693 L -75.532 103.718 L -75.604 103.736 L -75.676 103.746 L -75.75 103.75 L -75.776 103.749 L -75.824 103.746 L -75.896 103.736 L -75.968 103.718 L -76.037 103.693 L -76.104 103.661 L -76.167 103.624 L -76.226 103.58 L -76.28 103.53 L -76.33 103.476 L -76.369 103.424 L -76.374 103.417 L -76.411 103.354 L -76.443 103.287 L -76.468 103.218 L -76.486 103.146 L -76.496 103.074 L -76.5 103 L -76.496 102.926 L -76.494 102.912 L -76.486 102.854 L -76.468 102.782 L -76.443 102.713 L -76.411 102.646 L -76.374 102.583 L -76.33 102.524 L -76.28 102.47 L -76.226 102.42 L -76.199 102.4 L -76.167 102.376 L -76.104 102.339 L -76.037 102.307 L -75.968 102.282 L -75.896 102.264 L -75.824 102.254 L -75.776 102.251 L -75.75 102.25 L -75.676 102.254 L -75.604 102.264 L -75.532 102.282 L -75.463 102.307 L -75.396 102.339 L -75.333 102.376 L -75.301 102.4 L -75.274 102.42 L -75.22 102.47 M -71.5 103 L -71.504 103.074 L -71.514 103.146 L -71.532 103.218 L -71.557 103.287 L -71.589 103.354 L -71.626 103.417 L -71.631 103.424 L -71.67 103.476 L -71.68 103.487 L -71.72 103.53 L -71.774 103.58 L -71.833 103.624 L -71.896 103.661 L -71.963 103.693 L -72.032 103.718 L -72.104 103.736 L -72.176 103.746 L -72.192 103.747 L -72.25 103.75 L -72.324 103.746 L -72.396 103.736 L -72.468 103.718 L -72.537 103.693 L -72.604 103.661 L -72.667 103.624 L -72.704 103.596 L -72.726 103.58 L -72.78 103.53 L -72.83 103.476 L -72.869 103.424 L -72.874 103.417 L -72.911 103.354 L -72.943 103.287 L -72.968 103.218 L -72.986 103.146 L -72.996 103.074 L -73 103 L -72.996 102.926 L -72.994 102.912 L -72.986 102.854 L -72.968 102.782 L -72.943 102.713 L -72.911 102.646 L -72.874 102.583 L -72.83 102.524 L -72.78 102.47 L -72.726 102.42 L -72.704 102.404 L -72.699 102.4 L -72.667 102.376 L -72.604 102.339 L -72.537 102.307 L -72.468 102.282 L -72.396 102.264 L -72.324 102.254 L -72.25 102.25 L -72.176 102.254 L -72.104 102.264 L -72.032 102.282 L -71.963 102.307 L -71.896 102.339 L -71.833 102.376 L -71.801 102.4 L -71.774 102.42 L -71.72 102.47 L -71.68 102.513 L -71.67 102.524 L -71.626 102.583 L -71.589 102.646 L -71.557 102.713 L -71.532 102.782 L -71.514 102.854 L -71.506 102.912 L -71.504 102.926 L -71.5 103 M -88.537 116.557 L -88.468 116.532 L -88.396 116.514 L -88.338 116.506 L -88.324 116.504 L -88.25 116.5 L -88.176 116.504 L -88.104 116.514 L -88.064 116.524 L -88.032 116.532 L -87.963 116.557 L -87.896 116.589 L -87.833 116.626 L -87.774 116.67 L -87.72 116.72 L -87.705 116.736 L -87.67 116.774 L -87.626 116.833 L -87.589 116.896 L -87.557 116.963 L -87.532 117.032 L -87.514 117.104 L -87.504 117.176 L -87.5 117.248 L -87.5 117.25 L -87.504 117.324 L -87.514 117.396 L -87.532 117.468 L -87.557 117.537 L -87.589 117.604 L -87.626 117.667 L -87.67 117.726 L -87.701 117.76 L -87.72 117.78 L -87.774 117.83 L -87.833 117.874 L -87.896 117.911 L -87.963 117.943 L -88.032 117.968 L -88.064 117.976 L -88.104 117.986 L -88.176 117.996 L -88.25 118 L -88.265 117.999 L -88.324 117.996 L -88.396 117.986 L -88.468 117.968 L -88.537 117.943 L -88.604 117.911 L -88.667 117.874 L -88.726 117.83 L -88.78 117.78 L -88.799 117.76 L -88.83 117.726 L -88.874 117.667 L -88.911 117.604 L -88.943 117.537 L -88.968 117.468 L -88.986 117.396 L -88.996 117.324 L -89 117.25 L -89 117.248 L -88.996 117.176 L -88.986 117.104 L -88.968 117.032 L -88.943 116.963 L -88.911 116.896 L -88.874 116.833 L -88.83 116.774 L -88.795 116.736 L -88.78 116.72 L -88.726 116.67 L -88.667 116.626 L -88.604 116.589 L -88.537 116.557 M -90.003 119.003 L -89 119.003 L -60.5 119.003 L -57.998 119.003 L -57.998 118 L -57.998 86.998 L -59 86.998 L -60.5 86.998 L -89 86.998 L -90.003 86.998 L -90.003 119.003 Z" fill="none" stroke="rgb(255,0,0)" stroke-width="0.001mm"/>
</svg>