<?xml version="1.0" encoding="utf-8"?>
<!-- Generator: Adobe Illustrator 12.0.0, SVG Export Plug-In . SVG Version: 6.00 Build 51448)  -->
<!DOCTYPE svg PUBLIC "-//W3C//DTD SVG 1.1//EN" "http://www.w3.org/Graphics/SVG/1.1/DTD/svg11.dtd" [
	<!ENTITY ns_svg "http://www.w3.org/2000/svg">
	<!ENTITY ns_xlink "http://www.w3.org/1999/xlink">
]>
<svg  version="1.1" id="Ebene_1" shaper:fusionaddin="version:1.6.3" xmlns:shaper="http://www.shapertools.com/namespaces/shaper"
	 xmlns="&ns_svg;" xmlns:xlink="&ns_xlink;" width="37.025" height="55.925" viewBox="0 0 37.025 55.925"
	 overflow="visible" enable-background="new 0 0 37.025 55.925" xml:space="preserve">
<title>svgOutput</title>
<desc>made with tinkercad</desc>
<title>svgOutput</title>
<desc>made with tinkercad</desc>
<g id="Body_Body62_2_">
	<path shaper:cutDepth="0.003" fill="none" stroke="#FF0000" stroke-width="0.01" d="M-29.245,109.995l-7.044,12.201
		c15.186,8.203,32.054,12.809,49.302,13.46h8.504v9.293c40.602,0,77.028-24.953,91.696-62.813l-12.201-7.044l3.188-5.523
		l12.201,7.044c8.204-15.186,12.809-32.054,13.46-49.302v-8.504h9.293c0-40.602-24.952-77.028-62.812-91.696l-7.044,12.201
		l-5.524-3.189l7.045-12.2c-15.187-8.204-32.055-12.809-49.303-13.46h-8.504v-9.293c-40.602,0-77.028,24.952-91.695,62.812
		l12.2,7.044l-3.188,5.523l-12.201-7.044c-8.203,15.187-12.809,32.055-13.46,49.303v8.504h-9.293
		c0,40.602,24.952,77.028,62.812,91.695l7.045-12.2L-29.245,109.995z"/>
</g>
</svg>
