<?xml version="1.0" encoding="utf-8"?>
<!-- Generator: Adobe Illustrator 12.0.0, SVG Export Plug-In . SVG Version: 6.00 Build 51448)  -->
<!DOCTYPE svg PUBLIC "-//W3C//DTD SVG 1.1//EN" "http://www.w3.org/Graphics/SVG/1.1/DTD/svg11.dtd" [
	<!ENTITY ns_svg "http://www.w3.org/2000/svg">
	<!ENTITY ns_xlink "http://www.w3.org/1999/xlink">
]>
<svg  version="1.1" id="Ebene_1" shaper:fusionaddin="version:1.6.3" xmlns:shaper="http://www.shapertools.com/namespaces/shaper"
	 xmlns="&ns_svg;" xmlns:xlink="&ns_xlink;" width="37.025" height="55.925" viewBox="0 0 37.025 55.925"
	 overflow="visible" enable-background="new 0 0 37.025 55.925" xml:space="preserve">
<title>svgOutput</title>
<desc>made with tinkercad</desc>
<title>svgOutput</title>
<desc>made with tinkercad</desc>
<g id="Body_Body60_2_">
	<path shaper:cutDepth="0.003" fill="none" stroke="#FF0000" stroke-width="0.01" d="M18.618,208.147
		c98.629,0,178.583-79.954,178.583-178.583c0-98.628-79.954-178.582-178.583-178.582c-98.628,0-178.582,79.954-178.582,178.582
		C-159.964,128.193-80.01,208.147,18.618,208.147z"/>
	
		<path shaper:cutDepth="0.003" fill="none" stroke="#FF0000" stroke-width="0.01" stroke-linecap="round" stroke-linejoin="round" d="
		M14.224-73.758v-57.686h8.788v57.686H14.224z"/>
	
		<path shaper:cutDepth="0.003" fill="none" stroke="#FF0000" stroke-width="0.01" stroke-linecap="round" stroke-linejoin="round" d="
		M-142.39,33.958V25.17h57.686v8.787H-142.39z"/>
	
		<path shaper:cutDepth="0.003" fill="none" stroke="#FF0000" stroke-width="0.01" stroke-linecap="round" stroke-linejoin="round" d="
		M23.012,190.573h-8.788v-57.686h8.788V190.573z"/>
	
		<path shaper:cutDepth="0.003" fill="none" stroke="#FF0000" stroke-width="0.01" stroke-linecap="round" stroke-linejoin="round" d="
		M179.626,25.17v8.787h-57.685V25.17H179.626z"/>
	
		<path shaper:cutDepth="0.003" fill="none" stroke="#FF0000" stroke-width="0.01" stroke-linecap="round" stroke-linejoin="round" d="
		M18.618,86.257c31.311,0,56.693-25.383,56.693-56.693S49.928-27.128,18.618-27.128S-38.074-1.747-38.074,29.564
		S-12.693,86.257,18.618,86.257z"/>
</g>
</svg>
