<?xml version="1.0" encoding="utf-8"?>
<!-- Generator: Adobe Illustrator 12.0.0, SVG Export Plug-In . SVG Version: 6.00 Build 51448)  -->
<!DOCTYPE svg PUBLIC "-//W3C//DTD SVG 1.1//EN" "http://www.w3.org/Graphics/SVG/1.1/DTD/svg11.dtd" [
	<!ENTITY ns_svg "http://www.w3.org/2000/svg">
	<!ENTITY ns_xlink "http://www.w3.org/1999/xlink">
]>
<svg  version="1.1" id="Ebene_1" shaper:fusionaddin="version:1.6.3" xmlns:shaper="http://www.shapertools.com/namespaces/shaper"
	 xmlns="&ns_svg;" xmlns:xlink="&ns_xlink;" width="37.025" height="55.925" viewBox="0 0 37.025 55.925"
	 overflow="visible" enable-background="new 0 0 37.025 55.925" xml:space="preserve">
<g id="Body_Body10_1_">
	<path shaper:cutDepth="0.003" fill="none" stroke="#FF0000" stroke-width="0.01" d="M25.07,448.912
		c234.83,0,425.197-190.367,425.197-425.197c0-234.829-190.367-425.196-425.197-425.196c-234.829,0-425.196,190.367-425.196,425.196
		C-400.126,258.544-209.759,448.912,25.07,448.912z"/>
	
		<path shaper:cutDepth="0.003" fill="none" stroke="#FF0000" stroke-width="0.01" stroke-linecap="round" stroke-linejoin="round" d="
		M52.141,160.699H37.684v9.496h14.457V160.699z"/>
	
		<path shaper:cutDepth="0.003" fill="none" stroke="#FF0000" stroke-width="0.01" stroke-linecap="round" stroke-linejoin="round" d="
		M-111.914,50.786V36.329h-9.496v14.457H-111.914z"/>
	
		<path shaper:cutDepth="0.003" fill="none" stroke="#FF0000" stroke-width="0.01" stroke-linecap="round" stroke-linejoin="round" d="
		M162.054-3.356V11.1h9.496V-3.356H162.054z"/>
	
		<path shaper:cutDepth="0.003" fill="none" stroke="#FF0000" stroke-width="0.01" stroke-linecap="round" stroke-linejoin="round" d="
		M-2.001-113.269h14.457v-9.496H-2.001V-113.269z"/>
	
		<path shaper:cutDepth="0.003" fill="none" stroke="#FF0000" stroke-width="0.01" stroke-linecap="round" stroke-linejoin="round" d="
		M195.291,19.321h-56.977v8.787h56.977V19.321z"/>
	
		<path shaper:cutDepth="0.003" fill="none" stroke="#FF0000" stroke-width="0.01" stroke-linecap="round" stroke-linejoin="round" d="
		M29.464-89.53v-56.976h-8.787v56.976H29.464z"/>
	
		<path shaper:cutDepth="0.003" fill="none" stroke="#FF0000" stroke-width="0.01" stroke-linecap="round" stroke-linejoin="round" d="
		M20.677,136.958v56.977h8.787v-56.977H20.677z"/>
	
		<path shaper:cutDepth="0.003" fill="none" stroke="#FF0000" stroke-width="0.01" stroke-linecap="round" stroke-linejoin="round" d="
		M-88.174,19.321h-56.976v8.787h56.976V19.321z"/>
	
		<path shaper:cutDepth="0.003" fill="none" stroke="#FF0000" stroke-width="0.01" stroke-linecap="round" stroke-linejoin="round" d="
		M25.07,122.927c54.794,0,99.213-44.419,99.213-99.213c0-54.793-44.419-99.212-99.213-99.212s-99.213,44.419-99.213,99.212
		C-74.143,78.508-29.724,122.927,25.07,122.927z"/>
</g>
</svg>
