<?xml version="1.0" encoding="utf-8"?>
<!-- Generator: Adobe Illustrator 12.0.0, SVG Export Plug-In . SVG Version: 6.00 Build 51448)  -->
<!DOCTYPE svg PUBLIC "-//W3C//DTD SVG 1.1//EN" "http://www.w3.org/Graphics/SVG/1.1/DTD/svg11.dtd" [
	<!ENTITY ns_svg "http://www.w3.org/2000/svg">
	<!ENTITY ns_xlink "http://www.w3.org/1999/xlink">
]>
<svg  version="1.1" id="Ebene_1" shaper:fusionaddin="version:1.6.3" xmlns:shaper="http://www.shapertools.com/namespaces/shaper"
	 xmlns="&ns_svg;" xmlns:xlink="&ns_xlink;" width="37.025" height="55.925" viewBox="0 0 37.025 55.925"
	 overflow="visible" enable-background="new 0 0 37.025 55.925" xml:space="preserve">
<title>svgOutput</title>
<desc>made with tinkercad</desc>
<title>svgOutput</title>
<desc>made with tinkercad</desc>
<g id="Body_Body59_1_">
	<path shaper:cutDepth="0.003" fill="none" stroke="#FF0000" stroke-width="0.01" d="M29.003,54.285h279.921
		c7.828,0,14.173-6.346,14.173-14.173V11.765c0-7.827-6.345-14.173-14.173-14.173h-5.669v9.212h-9.213v-9.212h-537.874v-14.174
		h-14.882c-7.828,0-14.174,6.346-14.174,14.174v56.692c0,7.828,6.346,14.174,14.174,14.174h5.669V54.285H19.79V39.403h9.213V54.285z
		"/>
	
		<path shaper:cutDepth="0.003" fill="none" stroke="#FF0000" stroke-width="0.01" stroke-linecap="round" stroke-linejoin="round" d="
		M-206.982,21.333v9.212h14.882v-9.212H-206.982z"/>
	
		<path shaper:cutDepth="0.003" fill="none" stroke="#FF0000" stroke-width="0.01" stroke-linecap="round" stroke-linejoin="round" d="
		M-220.447,21.333h-14.882v9.212h14.882V21.333z"/>
	
		<path shaper:cutDepth="0.003" fill="none" stroke="#FF0000" stroke-width="0.01" stroke-linecap="round" stroke-linejoin="round" d="
		M-178.635,21.333v9.212h14.882v-9.212H-178.635z"/>
	
		<path shaper:cutDepth="0.003" fill="none" stroke="#FF0000" stroke-width="0.01" stroke-linecap="round" stroke-linejoin="round" d="
		M-8.557,21.333v9.212H6.325v-9.212H-8.557z"/>
	
		<path shaper:cutDepth="0.003" fill="none" stroke="#FF0000" stroke-width="0.01" stroke-linecap="round" stroke-linejoin="round" d="
		M-150.289,21.333v9.212h14.882v-9.212H-150.289z"/>
	
		<path shaper:cutDepth="0.003" fill="none" stroke="#FF0000" stroke-width="0.01" stroke-linecap="round" stroke-linejoin="round" d="
		M-121.943,21.333v9.212h14.882v-9.212H-121.943z"/>
	
		<path shaper:cutDepth="0.003" fill="none" stroke="#FF0000" stroke-width="0.01" stroke-linecap="round" stroke-linejoin="round" d="
		M-93.596,21.333v9.212h14.882v-9.212H-93.596z"/>
	
		<path shaper:cutDepth="0.003" fill="none" stroke="#FF0000" stroke-width="0.01" stroke-linecap="round" stroke-linejoin="round" d="
		M-65.249,21.333v9.212h14.882v-9.212H-65.249z"/>
	
		<path shaper:cutDepth="0.003" fill="none" stroke="#FF0000" stroke-width="0.01" stroke-linecap="round" stroke-linejoin="round" d="
		M-36.904,21.333v9.212h14.882v-9.212H-36.904z"/>
</g>
</svg>
