<?xml version="1.0" encoding="utf-8"?>
<!-- Generator: Adobe Illustrator 12.0.0, SVG Export Plug-In . SVG Version: 6.00 Build 51448)  -->
<!DOCTYPE svg PUBLIC "-//W3C//DTD SVG 1.1//EN" "http://www.w3.org/Graphics/SVG/1.1/DTD/svg11.dtd" [
	<!ENTITY ns_svg "http://www.w3.org/2000/svg">
	<!ENTITY ns_xlink "http://www.w3.org/1999/xlink">
]>
<svg  version="1.1" id="Ebene_1" shaper:fusionaddin="version:1.6.3" xmlns:shaper="http://www.shapertools.com/namespaces/shaper"
	 xmlns="&ns_svg;" xmlns:xlink="&ns_xlink;" width="37.025" height="55.925" viewBox="0 0 37.025 55.925"
	 overflow="visible" enable-background="new 0 0 37.025 55.925" xml:space="preserve">
<title>svgOutput</title>
<desc>made with tinkercad</desc>
<g id="Body_Body61_2_">
	<path shaper:cutDepth="0.003" fill="none" stroke="#FF0000" stroke-width="0.01" d="M167.286,34.976h-14.953v-8.504
		c-0.393-11.783-2.417-23.455-6.016-34.682l-13.894,5.057l-3.394-9.322l13.894-5.058c-10.413-54.648-58.194-94.185-113.827-94.185
		v14.953h-8.504C8.81-96.372-2.862-94.347-14.088-90.749l5.057,13.894l-9.323,3.394l-5.057-13.894
		c-54.648,10.413-94.185,58.194-94.185,113.827h14.952v8.504c0.394,11.782,2.418,23.454,6.017,34.681l13.894-5.057l3.394,9.323
		l-13.895,5.057c10.414,54.648,58.195,94.185,113.827,94.185v-14.952h8.504c11.783-0.394,23.455-2.418,34.682-6.017l-5.057-13.894
		l9.322-3.394l5.058,13.895C127.75,138.389,167.286,90.608,167.286,34.976z"/>
	
		<path shaper:cutDepth="0.003" fill="none" stroke="#FF0000" stroke-width="0.01" stroke-linecap="round" stroke-linejoin="round" d="
		M24.844,115.763c46.966,0,85.04-38.073,85.04-85.039s-38.074-85.04-85.04-85.04s-85.039,38.074-85.039,85.04
		S-22.121,115.763,24.844,115.763z"/>
</g>
</svg>
