<?xml version="1.0" standalone="no"?>
<!DOCTYPE svg PUBLIC "-//W3C//DTD SVG 1.1//EN"
  "http://www.w3.org/Graphics/SVG/1.1/DTD/svg11.dtd">
<svg width="400.5mm" height="255.99999999999994mm" viewBox="-204 -233.99999999999994 400.5 255.99999999999994" xmlns="http://www.w3.org/2000/svg" version="1.1">
	<title>svgOutput</title>
	<desc>made with tinkercad</desc>
<path d="M 162.7259979248047 -198.490005493164 L 162.75 -197.99999999999994 L 162.7259979248047 -197.50999450683588 L 162.6540069580078 -197.02499389648432 L 162.54974365234375 -196.60800170898432 L 162.53500366210938 -196.54899597167963 L 162.36900329589844 -196.08700561523432 L 162.16000366210938 -195.6430053710937 L 161.90699768066406 -195.22200012207026 L 161.61500549316406 -194.82800292968744 L 161.28599548339844 -194.4640045166015 L 160.9219970703125 -194.13499450683588 L 160.5279998779297 -193.84300231933588 L 160.10699462890625 -193.58999633789057 L 159.74400329589844 -193.4191284179687 L 159.66299438476562 -193.3809967041015 L 159.2010040283203 -193.21499633789057 L 158.72500610351562 -193.09599304199213 L 158.24000549316406 -193.02400207519526 L 157.75 -192.99999999999994 L 157.25999450683594 -193.02400207519526 L 156.77499389648438 -193.09599304199213 L 156.2989959716797 -193.21499633789057 L 155.83700561523438 -193.3809967041015 L 155.6479949951172 -193.46997070312494 L 155.39300537109375 -193.58999633789057 L 154.9720001220703 -193.84300231933588 L 154.5780029296875 -194.13499450683588 L 154.21400451660156 -194.4640045166015 L 153.88499450683594 -194.82800292968744 L 153.59300231933594 -195.22200012207026 L 153.33999633789062 -195.6430053710937 L 153.13099670410156 -196.08700561523432 L 152.96499633789062 -196.54899597167963 L 152.95025634765625 -196.60800170898432 L 152.8459930419922 -197.02499389648432 L 152.7740020751953 -197.50999450683588 L 152.75 -197.99999999999994 L 152.7740020751953 -198.490005493164 L 152.8459930419922 -198.97500610351557 L 152.96499633789062 -199.45100402832026 L 153.13099670410156 -199.91299438476557 L 153.33999633789062 -200.3569946289062 L 153.59300231933594 -200.77799987792963 L 153.88499450683594 -201.17199707031244 L 154.21400451660156 -201.53599548339838 L 154.5780029296875 -201.865005493164 L 154.9720001220703 -202.156997680664 L 155.39300537109375 -202.41000366210932 L 155.6479949951172 -202.53002929687494 L 155.83700561523438 -202.61900329589838 L 156.2989959716797 -202.78500366210932 L 156.77499389648438 -202.90400695800776 L 157.25999450683594 -202.97599792480463 L 157.75 -202.99999999999994 L 158.24000549316406 -202.97599792480463 L 158.72500610351562 -202.90400695800776 L 159.2010040283203 -202.78500366210932 L 159.66299438476562 -202.61900329589838 L 159.74400329589844 -202.5808715820312 L 160.10699462890625 -202.41000366210932 L 160.5279998779297 -202.156997680664 L 160.9219970703125 -201.865005493164 L 161.28599548339844 -201.53599548339838 L 161.61500549316406 -201.17199707031244 L 161.90699768066406 -200.77799987792963 L 162.16000366210938 -200.3569946289062 L 162.36900329589844 -199.91299438476557 L 162.53500366210938 -199.45100402832026 L 162.6540069580078 -198.97500610351557 L 162.7259979248047 -198.490005493164 M -161.09300231933594 -200.77799987792963 L -161.04852294921875 -200.7039947509765 L -160.83999633789062 -200.3569946289062 L -160.63099670410156 -199.91299438476557 L -160.46499633789062 -199.45100402832026 L -160.3459930419922 -198.97500610351557 L -160.2740020751953 -198.490005493164 L -160.25 -197.99999999999994 L -160.2740020751953 -197.50999450683588 L -160.3459930419922 -197.02499389648432 L -160.45025634765625 -196.60800170898432 L -160.46499633789062 -196.54899597167963 L -160.63099670410156 -196.08700561523432 L -160.83999633789062 -195.6430053710937 L -161.09300231933594 -195.22200012207026 L -161.38499450683594 -194.82800292968744 L -161.71400451660156 -194.4640045166015 L -162.0780029296875 -194.13499450683588 L -162.4720001220703 -193.84300231933588 L -162.89300537109375 -193.58999633789057 L -163.33700561523438 -193.3809967041015 L -163.7989959716797 -193.21499633789057 L -163.83999633789062 -193.20474243164057 L -164.27499389648438 -193.09599304199213 L -164.75999450683594 -193.02400207519526 L -165.25 -192.99999999999994 L -165.74000549316406 -193.02400207519526 L -166.22500610351562 -193.09599304199213 L -166.7010040283203 -193.21499633789057 L -167.16299438476562 -193.3809967041015 L -167.60699462890625 -193.58999633789057 L -167.93600463867188 -193.78771972656244 L -168.0279998779297 -193.84300231933588 L -168.4219970703125 -194.13499450683588 L -168.78599548339844 -194.4640045166015 L -169.11500549316406 -194.82800292968744 L -169.40699768066406 -195.22200012207026 L -169.66000366210938 -195.6430053710937 L -169.86900329589844 -196.08700561523432 L -170.03500366210938 -196.54899597167963 L -170.04974365234375 -196.60800170898432 L -170.1540069580078 -197.02499389648432 L -170.2259979248047 -197.50999450683588 L -170.25 -197.99999999999994 L -170.2259979248047 -198.490005493164 L -170.1540069580078 -198.97500610351557 L -170.03500366210938 -199.45100402832026 L -169.86900329589844 -199.91299438476557 L -169.66000366210938 -200.3569946289062 L -169.40699768066406 -200.77799987792963 L -169.11500549316406 -201.17199707031244 L -168.78599548339844 -201.53599548339838 L -168.4219970703125 -201.865005493164 L -168.0279998779297 -202.156997680664 L -167.93600463867188 -202.21228027343744 L -167.60699462890625 -202.41000366210932 L -167.16299438476562 -202.61900329589838 L -166.7010040283203 -202.78500366210932 L -166.22500610351562 -202.90400695800776 L -165.74000549316406 -202.97599792480463 L -165.25 -202.99999999999994 L -164.75999450683594 -202.97599792480463 L -164.27499389648438 -202.90400695800776 L -163.83999633789062 -202.79525756835932 L -163.7989959716797 -202.78500366210932 L -163.33700561523438 -202.61900329589838 L -162.89300537109375 -202.41000366210932 L -162.4720001220703 -202.156997680664 L -162.0780029296875 -201.865005493164 L -161.71400451660156 -201.53599548339838 L -161.38499450683594 -201.17199707031244 L -161.09300231933594 -200.77799987792963 M -90.25 -175.99999999999997 L -88.68599700927734 -175.87699890136716 L -87.16000366210938 -175.51100158691403 L -85.91400146484375 -174.99499511718747 L -85.70999908447266 -174.91000366210935 L -84.37200164794922 -174.0899963378906 L -84.26663208007812 -173.99999999999997 L -83.17900085449219 -173.07099914550778 L -82.16000366210938 -171.87800598144528 L -81.33999633789062 -170.53999328613278 L -80.73899841308594 -169.0899963378906 L -80.50399780273438 -168.11199951171872 L -80.37300109863281 -167.5639953613281 L -80.25 -165.99999999999997 L -80.25 -131.0720062255859 L -80.25 -106.54064178466794 L -80.25 -98.30400085449216 L -80.25 -92.4962692260742 L -80.25 -82.21353149414061 L -80.25 -65.53600311279295 L -80.25 -45.99999999999999 L -80.30999755859375 -45.23199844360351 L -80.37300109863281 -44.4360008239746 L -80.73899841308594 -42.9099998474121 L -81.33999633789062 -41.45999908447265 L -82.16000366210938 -40.12200164794921 L -83.17900085449219 -38.92900085449218 L -84.26663208007812 -37.99999999999999 L -84.37200164794922 -37.9099998474121 L -85.70999908447266 -37.09000015258788 L -85.83100128173828 -37.04000091552734 L -85.91400146484375 -37.00500106811523 L -87.16000366210938 -36.48899841308593 L -87.1705322265625 -36.48647308349609 L -88.68599700927734 -36.123001098632805 L -90.25 -35.99999999999999 L -95.74700164794922 -35.99999999999999 L -95.74700164794922 -37.99599838256835 L -131.07200622558594 -37.99599838256835 L -145.7519989013672 -37.99599838256835 L -145.7519989013672 -35.99999999999999 L -150.25 -35.99999999999999 L -151.4499969482422 -36.094001770019524 L -151.81399536132812 -36.123001098632805 L -153.33999633789062 -36.48899841308593 L -154.66900634765625 -37.04000091552734 L -154.7899932861328 -37.09000015258788 L -154.79083251953125 -37.09051513671874 L -156.1280059814453 -37.9099998474121 L -156.23336791992188 -37.99999999999999 L -157.3209991455078 -38.92900085449218 L -158.33999633789062 -40.12200164794921 L -159.16000366210938 -41.45999908447265 L -159.64199829101562 -42.623001098632805 L -159.76100158691406 -42.9099998474121 L -159.76107788085938 -42.91030883789062 L -160.1269989013672 -44.4360008239746 L -160.19000244140625 -45.23199844360351 L -160.25 -45.99999999999999 L -160.25 -65.53600311279295 L -160.25 -81.9199981689453 L -160.25 -88.50815582275389 L -160.25 -88.9980010986328 L -150.24899291992188 -88.9980010986328 L -149.75900268554688 -89.02200317382811 L -149.2729949951172 -89.09400177001952 L -148.7969970703125 -89.21299743652342 L -148.3350067138672 -89.37799835205077 L -147.89100646972656 -89.58799743652342 L -147.47000122070312 -89.84100341796874 L -147.45599365234375 -89.85137939453124 L -147.10433959960938 -90.11199951171874 L -147.0760040283203 -90.13300323486327 L -146.90499877929688 -90.28800201416014 L -146.71200561523438 -90.46299743652342 L -146.38299560546875 -90.82599639892577 L -146.08999633789062 -91.2210006713867 L -145.83799743652344 -91.64199829101561 L -145.6280059814453 -92.08599853515624 L -145.46299743652344 -92.54799652099608 L -145.343994140625 -93.0240020751953 L -145.27200317382812 -93.51000213623045 L -145.2469940185547 -93.99999999999999 L -145.25782775878906 -94.20800018310545 L -145.26699829101562 -94.38400268554686 L -145.27200317382812 -94.48999786376952 L -145.343994140625 -94.97599792480467 L -145.46299743652344 -95.45200347900389 L -145.6280059814453 -95.91400146484374 L -145.83799743652344 -96.35800170898435 L -146.08999633789062 -96.77899932861325 L -146.38299560546875 -97.17400360107419 L -146.71200561523438 -97.53700256347653 L -147.07537841796875 -97.86643218994138 L -147.0760040283203 -97.86699676513669 L -147.35400390625 -98.07299804687497 L -147.45599365234375 -98.14862060546872 L -147.47000122070312 -98.15899658203122 L -147.71128845214844 -98.30400085449216 L -147.89100646972656 -98.41200256347653 L -148.3350067138672 -98.62200164794919 L -148.7969970703125 -98.78700256347653 L -149.2729949951172 -98.90599822998044 L -149.75900268554688 -98.97799682617185 L -150.24899291992188 -99.00299835205075 L -160.25 -99.00299835205075 L -160.25 -131.0720062255859 L -160.25 -165.99999999999997 L -160.1269989013672 -167.5639953613281 L -159.76100158691406 -169.0899963378906 L -159.64199829101562 -169.37699890136716 L -159.16000366210938 -170.53999328613278 L -159.15931701660156 -170.54110717773435 L -158.33999633789062 -171.87800598144528 L -157.3209991455078 -173.07099914550778 L -156.23336791992188 -173.99999999999997 L -156.1280059814453 -174.0899963378906 L -154.7899932861328 -174.91000366210935 L -153.33999633789062 -175.51100158691403 L -151.81399536132812 -175.87699890136716 L -151.4499969482422 -175.90600585937497 L -150.25 -175.99999999999997 L -145.7519989013672 -175.99999999999997 L -145.7519989013672 -173.99999999999997 L -131.07200622558594 -173.99999999999997 L -95.74700164794922 -173.99999999999997 L -95.74700164794922 -175.99999999999997 L -90.25 -175.99999999999997 M 148.6280059814453 -174.0899963378906 L 148.73336791992188 -173.99999999999997 L 149.8209991455078 -173.07099914550778 L 150.83999633789062 -171.87800598144528 L 151.66000366210938 -170.53999328613278 L 152.26100158691406 -169.0899963378906 L 152.6269989013672 -167.5639953613281 L 152.75 -165.99999999999997 L 152.75 -163.8399963378906 L 152.75 -147.45599365234372 L 152.75 -131.0720062255859 L 152.75 -114.68800354003903 L 152.75 -98.30400085449216 L 152.75 -81.9199981689453 L 152.75 -65.53600311279295 L 152.75 -49.15200042724608 L 152.75 -45.99999999999999 L 152.6269989013672 -44.4360008239746 L 152.26100158691406 -42.9099998474121 L 151.66000366210938 -41.45999908447265 L 150.83999633789062 -40.12200164794921 L 149.8209991455078 -38.92900085449218 L 148.73336791992188 -37.99999999999999 L 148.6280059814453 -37.9099998474121 L 147.45599365234375 -37.19173431396484 L 147.2899932861328 -37.09000015258788 L 145.83999633789062 -36.48899841308593 L 144.31399536132812 -36.123001098632805 L 142.75 -35.99999999999999 L 138.2530059814453 -35.99999999999999 L 138.2530059814453 -37.99599838256835 L 131.07200622558594 -37.99599838256835 L 114.68800354003906 -37.99599838256835 L 98.30400085449219 -37.99599838256835 L 88.24800109863281 -37.99599838256835 L 88.24800109863281 -35.99999999999999 L 82.75 -35.99999999999999 L 81.91999816894531 -36.0652732849121 L 81.18599700927734 -36.123001098632805 L 79.66000366210938 -36.48899841308593 L 78.20999908447266 -37.09000015258788 L 76.87200164794922 -37.9099998474121 L 76.76663208007812 -37.99999999999999 L 75.67900085449219 -38.92900085449218 L 74.66000366210938 -40.12200164794921 L 74.14643096923828 -40.95999908447265 L 73.83999633789062 -41.45999908447265 L 73.23899841308594 -42.9099998474121 L 72.87300109863281 -44.4360008239746 L 72.75 -45.99999999999999 L 72.75 -49.15200042724608 L 72.75 -65.53600311279295 L 72.75 -81.9199981689453 L 72.75 -98.30400085449216 L 72.75 -114.68800354003903 L 72.75 -131.0720062255859 L 72.75 -147.45599365234372 L 72.75 -163.8399963378906 L 72.75 -165.99999999999997 L 72.87300109863281 -167.5639953613281 L 73.23899841308594 -169.0899963378906 L 73.83999633789062 -170.53999328613278 L 74.66000366210938 -171.87800598144528 L 74.79154205322266 -172.03199768066403 L 75.67900085449219 -173.07099914550778 L 76.76663208007812 -173.99999999999997 L 76.87200164794922 -174.0899963378906 L 78.20999908447266 -174.91000366210935 L 79.66000366210938 -175.51100158691403 L 81.18599700927734 -175.87699890136716 L 81.91999816894531 -175.9347229003906 L 82.75 -175.99999999999997 L 88.24800109863281 -175.99999999999997 L 88.24800109863281 -173.99999999999997 L 98.30400085449219 -173.99999999999997 L 114.68800354003906 -173.99999999999997 L 131.07200622558594 -173.99999999999997 L 138.2530059814453 -173.99999999999997 L 138.2530059814453 -175.99999999999997 L 142.75 -175.99999999999997 L 144.31399536132812 -175.87699890136716 L 145.83999633789062 -175.51100158691403 L 147.2899932861328 -174.91000366210935 L 147.45599365234375 -174.80827331542966 L 148.6280059814453 -174.0899963378906 M 16.25 -175.99999999999997 L 16.25 -173.99999999999997 L 36.75 -173.99999999999997 L 36.75 -142.53097534179685 L 36.75 -142.53071594238278 L 36.75 -140.40275573730466 L 36.75 -140.40194702148435 L 36.75 -117.52997589111325 L 36.75 -117.52971649169919 L 36.75 -115.4017639160156 L 36.75 -115.40094757080075 L 36.75 -92.52896881103514 L 36.75 -92.52870941162108 L 36.75 -90.40076446533202 L 36.75 -90.39994812011717 L 36.75 -67.52796936035155 L 36.75 -67.52770996093749 L 36.75 -65.39976501464842 L 36.75 -65.39894866943358 L 36.75 -42.52697372436523 L 36.75 -42.526714324951165 L 36.75 -40.39876174926757 L 36.75 -40.39794921874999 L 36.75 -37.99999999999999 L 16.25 -37.99999999999999 L 16.25 -35.99999999999999 L -23.75 -35.99999999999999 L -23.75 -37.99999999999999 L -44.25 -37.99999999999999 L -44.25 -69.87913513183592 L -44.25 -69.8796920776367 L -44.25 -72.0070114135742 L -44.25 -72.00763702392577 L -44.25 -94.88013458251952 L -44.25 -94.8806915283203 L -44.25 -97.00801086425778 L -44.25 -97.00863647460935 L -44.25 -119.8811340332031 L -44.25 -119.88169097900388 L -44.25 -122.00901031494138 L -44.25 -122.00963592529294 L -44.25 -144.88214111328122 L -44.25 -144.88269042968747 L -44.25 -147.01000976562497 L -44.25 -147.01063537597653 L -44.25 -169.88313293457028 L -44.25 -169.88368225097653 L -44.25 -172.0110168457031 L -44.25 -172.01164245605466 L -44.25 -173.99999999999997 L -23.75 -173.99999999999997 L -23.75 -175.99999999999997 L 16.25 -175.99999999999997 M -203 20.999999999999996 L -203 -35.99999999999999 L -203 -37.99999999999999 L -203 -173.99999999999997 L -203 -175.99999999999997 L -203 -232.99999999999994 L -178.85899353027344 -232.99999999999994 L -170.25 -232.99999999999994 L -160.25 -232.99999999999994 L 152.75 -232.99999999999994 L 162.75 -232.99999999999994 L 171.35899353027344 -232.99999999999994 L 195.5 -232.99999999999994 L 195.5 -175.99999999999997 L 195.5 -173.99999999999997 L 195.5 -37.99999999999999 L 195.5 -35.99999999999999 L 195.5 -8.999999999999998 L 195.5 20.999999999999996 L 171.35899353027344 20.999999999999996 L -170.25 20.999999999999996 L -178.85899353027344 20.999999999999996 L -203 20.999999999999996 M 161.90699768066406 -16.777999877929684 L 162.14376831054688 -16.38400077819824 L 162.16000366210938 -16.357000350952145 L 162.36900329589844 -15.91300010681152 L 162.53500366210938 -15.451000213623043 L 162.6540069580078 -14.975000381469723 L 162.7259979248047 -14.48999977111816 L 162.75 -13.999999999999996 L 162.7259979248047 -13.510000228881832 L 162.6540069580078 -13.02499961853027 L 162.53500366210938 -12.54899978637695 L 162.44122314453125 -12.28800010681152 L 162.36900329589844 -12.086999893188473 L 162.16000366210938 -11.64299964904785 L 161.90699768066406 -11.22200012207031 L 161.61500549316406 -10.828000068664549 L 161.28599548339844 -10.463999748229979 L 160.9219970703125 -10.135000228881834 L 160.5279998779297 -9.843000411987303 L 160.10699462890625 -9.590000152587889 L 159.74400329589844 -9.419128417968748 L 159.66299438476562 -9.38099956512451 L 159.2010040283203 -9.215000152587889 L 158.72500610351562 -9.0959997177124 L 158.24000549316406 -9.024000167846678 L 157.75 -8.999999999999998 L 157.25999450683594 -9.024000167846678 L 156.77499389648438 -9.0959997177124 L 156.2989959716797 -9.215000152587889 L 155.83700561523438 -9.38099956512451 L 155.6479949951172 -9.469965934753416 L 155.39300537109375 -9.590000152587889 L 154.9720001220703 -9.843000411987303 L 154.5780029296875 -10.135000228881834 L 154.21400451660156 -10.463999748229979 L 153.88499450683594 -10.828000068664549 L 153.59300231933594 -11.22200012207031 L 153.33999633789062 -11.64299964904785 L 153.13099670410156 -12.086999893188473 L 153.05877685546875 -12.28800010681152 L 152.96499633789062 -12.54899978637695 L 152.8459930419922 -13.02499961853027 L 152.7740020751953 -13.510000228881832 L 152.75 -13.999999999999996 L 152.7740020751953 -14.48999977111816 L 152.8459930419922 -14.975000381469723 L 152.96499633789062 -15.451000213623043 L 153.13099670410156 -15.91300010681152 L 153.33999633789062 -16.357000350952145 L 153.35623168945312 -16.38400077819824 L 153.59300231933594 -16.777999877929684 L 153.88499450683594 -17.172000885009762 L 154.21400451660156 -17.5359992980957 L 154.5780029296875 -17.86499977111816 L 154.9720001220703 -18.15699958801269 L 155.39300537109375 -18.409999847412106 L 155.6479949951172 -18.530033111572262 L 155.83700561523438 -18.61899948120117 L 156.2989959716797 -18.784999847412106 L 156.77499389648438 -18.903999328613278 L 157.25999450683594 -18.975999832153317 L 157.75 -18.999999999999996 L 158.24000549316406 -18.975999832153317 L 158.72500610351562 -18.903999328613278 L 159.2010040283203 -18.784999847412106 L 159.66299438476562 -18.61899948120117 L 159.74400329589844 -18.580871582031246 L 160.10699462890625 -18.409999847412106 L 160.5279998779297 -18.15699958801269 L 160.9219970703125 -17.86499977111816 L 161.28599548339844 -17.5359992980957 L 161.61500549316406 -17.172000885009762 L 161.90699768066406 -16.777999877929684 M -161.09300231933594 -16.777999877929684 L -160.85623168945312 -16.38400077819824 L -160.83999633789062 -16.357000350952145 L -160.63099670410156 -15.91300010681152 L -160.46499633789062 -15.451000213623043 L -160.3459930419922 -14.975000381469723 L -160.2740020751953 -14.48999977111816 L -160.25 -13.999999999999996 L -160.2740020751953 -13.510000228881832 L -160.3459930419922 -13.02499961853027 L -160.46499633789062 -12.54899978637695 L -160.55877685546875 -12.28800010681152 L -160.63099670410156 -12.086999893188473 L -160.83999633789062 -11.64299964904785 L -161.09300231933594 -11.22200012207031 L -161.38499450683594 -10.828000068664549 L -161.71400451660156 -10.463999748229979 L -162.0780029296875 -10.135000228881834 L -162.4720001220703 -9.843000411987303 L -162.89300537109375 -9.590000152587889 L -163.33700561523438 -9.38099956512451 L -163.7989959716797 -9.215000152587889 L -163.83999633789062 -9.204750061035154 L -164.27499389648438 -9.0959997177124 L -164.75999450683594 -9.024000167846678 L -165.25 -8.999999999999998 L -165.74000549316406 -9.024000167846678 L -166.22500610351562 -9.0959997177124 L -166.7010040283203 -9.215000152587889 L -167.16299438476562 -9.38099956512451 L -167.60699462890625 -9.590000152587889 L -167.93600463867188 -9.787713050842283 L -168.0279998779297 -9.843000411987303 L -168.4219970703125 -10.135000228881834 L -168.78599548339844 -10.463999748229979 L -169.11500549316406 -10.828000068664549 L -169.40699768066406 -11.22200012207031 L -169.66000366210938 -11.64299964904785 L -169.86900329589844 -12.086999893188473 L -169.94122314453125 -12.28800010681152 L -170.03500366210938 -12.54899978637695 L -170.1540069580078 -13.02499961853027 L -170.2259979248047 -13.510000228881832 L -170.25 -13.999999999999996 L -170.2259979248047 -14.48999977111816 L -170.1540069580078 -14.975000381469723 L -170.03500366210938 -15.451000213623043 L -169.86900329589844 -15.91300010681152 L -169.66000366210938 -16.357000350952145 L -169.64376831054688 -16.38400077819824 L -169.40699768066406 -16.777999877929684 L -169.11500549316406 -17.172000885009762 L -168.78599548339844 -17.5359992980957 L -168.4219970703125 -17.86499977111816 L -168.0279998779297 -18.15699958801269 L -167.60699462890625 -18.409999847412106 L -167.16299438476562 -18.61899948120117 L -166.7010040283203 -18.784999847412106 L -166.22500610351562 -18.903999328613278 L -165.74000549316406 -18.975999832153317 L -165.25 -18.999999999999996 L -164.75999450683594 -18.975999832153317 L -164.27499389648438 -18.903999328613278 L -163.83999633789062 -18.79524993896484 L -163.7989959716797 -18.784999847412106 L -163.33700561523438 -18.61899948120117 L -162.89300537109375 -18.409999847412106 L -162.4720001220703 -18.15699958801269 L -162.0780029296875 -17.86499977111816 L -161.71400451660156 -17.5359992980957 L -161.38499450683594 -17.172000885009762 L -161.09300231933594 -16.777999877929684 M -111.0009994506836 -98.48000335693357 L -110.91143798828125 -98.30400085449216 L -110.77200317382812 -98.02999877929685 L -110.21800231933594 -97.47699737548825 L -109.52100372314453 -97.12200164794919 L -108.7490005493164 -96.99999999999997 L -107.97599792480469 -97.12200164794919 L -107.27899932861328 -97.47699737548825 L -106.72599792480469 -98.02999877929685 L -106.58656311035156 -98.30400085449216 L -106.49700164794922 -98.48000335693357 L -106.37100219726562 -98.72699737548825 L -106.2490005493164 -99.49999999999997 L -106.37100219726562 -100.2720031738281 L -106.72599792480469 -100.9690017700195 L -107.27899932861328 -101.5220031738281 L -107.97599792480469 -101.87699890136716 L -108.7490005493164 -101.99999999999997 L -109.52100372314453 -101.87699890136716 L -110.21800231933594 -101.5220031738281 L -110.77200317382812 -100.9690017700195 L -111.12699890136719 -100.2720031738281 L -111.2490005493164 -99.49999999999997 L -111.12713623046875 -98.72786712646482 L -111.12699890136719 -98.72699737548825 L -111.0009994506836 -98.48000335693357 M 103.62699890136719 -98.72699737548825 L 103.7490005493164 -99.49999999999997 L 103.62699890136719 -100.2720031738281 L 103.27200317382812 -100.9690017700195 L 102.71800231933594 -101.5220031738281 L 102.02100372314453 -101.87699890136716 L 101.2490005493164 -101.99999999999997 L 100.47599792480469 -101.87699890136716 L 99.77899932861328 -101.5220031738281 L 99.22599792480469 -100.9690017700195 L 98.87100219726562 -100.2720031738281 L 98.7490005493164 -99.49999999999997 L 98.87100219726562 -98.72699737548825 L 99.08644104003906 -98.30400085449216 L 99.22599792480469 -98.02999877929685 L 99.77899932861328 -97.47699737548825 L 100.47599792480469 -97.12200164794919 L 101.2490005493164 -96.99999999999997 L 102.02100372314453 -97.12200164794919 L 102.71800231933594 -97.47699737548825 L 103.27200317382812 -98.02999877929685 L 103.41155242919922 -98.30400085449216 L 103.62699890136719 -98.72699737548825 M -38.72999954223633 -69.9980010986328 L -39.413818359375 -68.11949920654295 L -39.41400146484375 -68.11900329589842 L -5.252999782562256 -55.685581207275376 L -0.24799999594688416 -53.86393737792967 L 31.06800079345703 -42.46599960327148 L 31.068256378173828 -42.46670150756835 L 31.751934051513672 -44.34581756591796 L 31.75200080871582 -44.34600067138671 L 13.104607582092285 -51.13274002075194 L -31.680999755859375 -67.43299865722655 L -31.6811580657959 -67.43256378173827 L -38.72999954223633 -69.9980010986328 M -5.203999996185303 -44.98799896240234 L -5.239999771118164 -44.74499893188476 L -5.252999782562256 -44.49999999999999 L -5.239999771118164 -44.25500106811523 L -5.203999996185303 -44.01200103759765 L -5.144999980926514 -43.77399826049804 L -5.061999797821045 -43.541999816894524 L -4.956999778747559 -43.31999969482421 L -4.830999851226807 -43.110000610351555 L -4.684000015258789 -42.91199874877929 L -4.519999980926514 -42.72999954223632 L -4.3379998207092285 -42.56600189208984 L -4.139999866485596 -42.41899871826171 L -4.0960001945495605 -42.39260101318359 L -3.930000066757202 -42.29299926757812 L -3.7079999446868896 -42.18799972534179 L -3.4760000705718994 -42.10499954223632 L -3.23799991607666 -42.046001434326165 L -2.994999885559082 -42.009998321533196 L -2.75 -41.998001098632805 L -2.505000114440918 -42.009998321533196 L -2.26200008392334 -42.046001434326165 L -2.0480000972747803 -42.099048614501946 L -2.0239999294281006 -42.10499954223632 L -1.7920000553131104 -42.18799972534179 L -1.5700000524520874 -42.29299926757812 L -1.3600000143051147 -42.41899871826171 L -1.1619999408721924 -42.56600189208984 L -0.9800000190734863 -42.72999954223632 L -0.8159999847412109 -42.91199874877929 L -0.7447272539138794 -43.00799942016601 L -0.6690000295639038 -43.110000610351555 L -0.5429999828338623 -43.31999969482421 L -0.43799999356269836 -43.541999816894524 L -0.35499998927116394 -43.77399826049804 L -0.29600000381469727 -44.01200103759765 L -0.25999999046325684 -44.25500106811523 L -0.24799999594688416 -44.49999999999999 L -0.25999999046325684 -44.74499893188476 L -0.29600000381469727 -44.98799896240234 L -0.31285715103149414 -45.05599975585937 L -0.35499998927116394 -45.226001739501946 L -0.43799999356269836 -45.45800018310546 L -0.5429999828338623 -45.680000305175774 L -0.6690000295639038 -45.88999938964843 L -0.8159999847412109 -46.088001251220696 L -0.9800000190734863 -46.270000457763665 L -1.1619999408721924 -46.43399810791015 L -1.3600000143051147 -46.581001281738274 L -1.5700000524520874 -46.70700073242187 L -1.7920000553131104 -46.812000274658196 L -2.0239999294281006 -46.895000457763665 L -2.0480000972747803 -46.90095138549804 L -2.26200008392334 -46.95399856567382 L -2.505000114440918 -46.99000167846679 L -2.75 -47.002998352050774 L -2.994999885559082 -46.99000167846679 L -3.23799991607666 -46.95399856567382 L -3.4760000705718994 -46.895000457763665 L -3.7079999446868896 -46.812000274658196 L -3.930000066757202 -46.70700073242187 L -4.0960001945495605 -46.6073989868164 L -4.139999866485596 -46.581001281738274 L -4.3379998207092285 -46.43399810791015 L -4.519999980926514 -46.270000457763665 L -4.684000015258789 -46.088001251220696 L -4.830999851226807 -45.88999938964843 L -4.956999778747559 -45.680000305175774 L -5.061999797821045 -45.45800018310546 L -5.144999980926514 -45.226001739501946 L -5.187142848968506 -45.05599975585937 L -5.203999996185303 -44.98799896240234 M -38.72999954223633 -170.00199890136716 L -39.413818359375 -168.12350463867185 L -39.41400146484375 -168.12300109863278 L 31.06800079345703 -142.4700012207031 L 31.068256378173828 -142.47070312499997 L 31.751934051513672 -144.34982299804685 L 31.75200080871582 -144.3500061035156 L 13.104607582092285 -151.13673400878903 L -31.680999755859375 -167.4369964599609 L -31.6811580657959 -167.43656921386716 L -38.72999954223633 -170.00199890136716 M -38.72999954223633 -145.0010070800781 L -39.413818359375 -143.12249755859372 L -39.41400146484375 -143.12199401855466 L 31.06800079345703 -117.4690017700195 L 31.068256378173828 -117.46970367431638 L 31.751934051513672 -119.34881591796872 L 31.75200080871582 -119.34899902343747 L 13.104607582092285 -126.13574218749997 L -31.680999755859375 -142.43600463867185 L -31.6811580657959 -142.43556213378903 L -38.72999954223633 -145.0010070800781 M -38.72999954223633 -119.99999999999997 L -39.413818359375 -118.12150573730466 L -39.41400146484375 -118.1210021972656 L 31.06800079345703 -92.46800231933592 L 31.068256378173828 -92.4687042236328 L 31.751934051513672 -94.34781646728514 L 31.75200080871582 -94.34799957275389 L 13.104607582092285 -101.13473510742185 L -31.680999755859375 -117.43499755859372 L -31.6811580657959 -117.43456268310544 L -38.72999954223633 -119.99999999999997 M -38.72999954223633 -94.99900054931639 L -39.413818359375 -93.12049865722655 L -39.41400146484375 -93.12000274658202 L 31.06800079345703 -67.46700286865233 L 31.068256378173828 -67.4677047729492 L 31.751934051513672 -69.34681701660155 L 31.75200080871582 -69.3470001220703 L 13.104607582092285 -76.13373565673827 L -31.680999755859375 -92.43399810791014 L -31.6811580657959 -92.43356323242186 L -38.72999954223633 -94.99900054931639 M -178.85899353027344 -211.8359985351562 L -178.85899353027344 -175.99999999999997 L -178.85899353027344 -173.99999999999997 L -178.85899353027344 -37.99999999999999 L -178.85899353027344 -35.99999999999999 L -178.85899353027344 -0.16400000452995286 L -170.25 -0.16400000452995286 L 171.35899353027344 -0.16400000452995286 L 171.35899353027344 -8.999999999999998 L 171.35899353027344 -35.99999999999999 L 171.35899353027344 -37.99999999999999 L 171.35899353027344 -173.99999999999997 L 171.35899353027344 -175.99999999999997 L 171.35899353027344 -211.8359985351562 L 162.75 -211.8359985351562 L 152.75 -211.8359985351562 L -160.25 -211.8359985351562 L -170.25 -211.8359985351562 L -178.85899353027344 -211.8359985351562 z" fill="none" stroke="rgb(255,0,0)" stroke-width="0.001mm" />
</svg>