<?xml version="1.0" encoding="utf-8"?>
<svg width="400.5mm" height="255.99999999999994mm" viewBox="-204 -233.99999999999994 400.5 255.99999999999994" version="1.1" xmlns="http://www.w3.org/2000/svg">
  <title>svgOutput</title>
  <desc>made with tinkercad</desc>
  <path d="M 49.152 -109.498 L 50.515 -109.498 L 52.642 -109.498 L 52.643 -109.498 L 75.516 -109.498 L 77.643 -109.498 L 77.644 -109.498 L 100.516 -109.498 L 100.517 -109.498 L 102.644 -109.498 L 102.645 -109.498 L 125.517 -109.498 L 125.518 -109.498 L 127.645 -109.498 L 127.646 -109.498 L 131.072 -109.498 L 147.456 -109.498 L 147.502 -109.498 L 148.284 -109.559 L 149.047 -109.742 L 149.772 -110.043 L 150.441 -110.452 L 150.605 -110.592 L 151.037 -110.962 L 151.061 -110.99 L 151.062 -110.991 L 151.547 -111.559 L 151.552 -111.567 L 151.957 -112.228 L 152.257 -112.953 L 152.44 -113.716 L 152.502 -114.498 L 152.502 -114.688 L 152.502 -114.948 L 152.502 -114.95 L 152.502 -131.072 L 152.502 -163.84 L 152.502 -164.502 L 152.44 -165.284 L 152.257 -166.047 L 151.957 -166.772 L 151.552 -167.433 L 151.547 -167.441 L 151.124 -167.936 L 151.037 -168.038 L 150.441 -168.548 L 149.772 -168.957 L 149.35 -169.132 L 149.349 -169.132 L 149.047 -169.258 L 148.284 -169.441 L 147.502 -169.503 L 147.456 -169.503 L 147.357 -169.503 L 147.356 -169.503 L 124.484 -169.503 L 124.483 -169.503 L 122.356 -169.503 L 122.355 -169.503 L 99.483 -169.503 L 99.482 -169.503 L 97.356 -169.503 L 97.355 -169.503 L 74.482 -169.503 L 74.481 -169.503 L 72.354 -169.503 L 65.536 -169.503 L 49.152 -169.503 L 40.96 -169.503 L 37.497 -169.503 L 36.864 -169.453 L 36.715 -169.441 L 35.952 -169.258 L 35.227 -168.957 L 34.558 -168.548 L 33.962 -168.038 L 33.875 -167.936 L 33.452 -167.441 L 33.042 -166.772 L 32.768 -166.11 L 32.742 -166.047 L 32.559 -165.284 L 32.497 -164.502 L 32.497 -163.84 L 32.497 -131.072 L 32.497 -114.688 L 32.497 -114.498 L 32.559 -113.716 L 32.742 -112.953 L 32.768 -112.89 L 33.042 -112.228 L 33.452 -111.559 L 33.962 -110.962 L 34.394 -110.592 L 34.558 -110.452 L 35.227 -110.043 L 35.952 -109.742 L 36.715 -109.559 L 36.864 -109.547 L 37.497 -109.498 L 40.96 -109.498 L 49.152 -109.498 M -49.152 -102.503 L -58.014 -102.503 L -60.142 -102.503 L -83.014 -102.503 L -83.015 -102.503 L -85.143 -102.503 L -108.015 -102.503 L -108.016 -102.503 L -110.144 -102.503 L -133.016 -102.503 L -133.017 -102.503 L -135.145 -102.503 L -147.456 -102.503 L -151.552 -102.503 L -155.002 -102.503 L -155.648 -102.452 L -155.784 -102.441 L -155.955 -102.4 L -156.547 -102.258 L -157.272 -101.957 L -157.941 -101.548 L -158.537 -101.038 L -158.561 -101.01 L -158.562 -101.009 L -159.047 -100.441 L -159.457 -99.772 L -159.744 -99.078 L -159.757 -99.047 L -159.935 -98.304 L -159.94 -98.284 L -160.002 -97.502 L -160.002 -97.052 L -160.002 -97.05 L -160.002 -65.536 L -160.002 -49.152 L -160.002 -47.498 L -159.94 -46.716 L -159.757 -45.953 L -159.744 -45.922 L -159.457 -45.228 L -159.352 -45.056 L -159.047 -44.559 L -158.537 -43.962 L -157.941 -43.452 L -157.272 -43.043 L -156.85 -42.868 L -156.849 -42.868 L -156.547 -42.742 L -155.784 -42.559 L -155.648 -42.548 L -155.002 -42.498 L -154.857 -42.498 L -154.856 -42.498 L -131.984 -42.498 L -131.983 -42.498 L -129.856 -42.498 L -129.855 -42.498 L -106.983 -42.498 L -106.982 -42.498 L -104.855 -42.498 L -104.854 -42.498 L -81.982 -42.498 L -81.981 -42.498 L -79.854 -42.498 L -65.536 -42.498 L -49.152 -42.498 L -45.056 -42.498 L -44.997 -42.498 L -44.215 -42.559 L -43.452 -42.742 L -42.727 -43.043 L -42.058 -43.452 L -41.462 -43.962 L -40.96 -44.55 L -40.952 -44.559 L -40.647 -45.056 L -40.542 -45.228 L -40.242 -45.953 L -40.059 -46.716 L -39.997 -47.498 L -39.997 -49.152 L -39.997 -65.536 L -39.997 -81.92 L -39.997 -90.112 L -39.997 -97.502 L -40.059 -98.284 L -40.064 -98.304 L -40.242 -99.047 L -40.542 -99.772 L -40.952 -100.441 L -40.96 -100.45 L -41.462 -101.038 L -42.058 -101.548 L -42.727 -101.957 L -43.452 -102.258 L -44.044 -102.4 L -44.215 -102.441 L -44.997 -102.503 L -45.056 -102.503 L -49.152 -102.503 M 162.5 -179.5 L 162.5 -175.502 L 162.5 -173.502 L 162.5 -142.42 L 162.5 -142.417 L 162.5 -136.572 L 162.5 -136.57 L 162.5 -71.498 L 162.5 -32.5 L 158.504 -32.5 L 156.504 -32.5 L 152.75 -32.5 L 147.499 -32.5 L 124.623 -32.5 L 124.622 -32.5 L 122.493 -32.5 L 99.622 -32.5 L 99.621 -32.5 L 97.492 -32.5 L 74.621 -32.5 L 74.62 -32.5 L 72.491 -32.5 L 49.62 -32.5 L 49.619 -32.5 L 47.49 -32.5 L 32.497 -32.5 L 24.619 -32.5 L 24.618 -32.5 L 22.49 -32.5 L 20.5 -32.5 L 18.5 -32.5 L 15.5 -32.5 L 3.499 -85.959 L -14.73 -167.162 L -15.498 -170.582 L -15.498 -173.502 L -15.498 -175.502 L -15.498 -179.5 L 15.5 -179.5 L 18.5 -179.5 L 20.5 -179.5 L 32.497 -179.5 L 75.993 -179.5 L 78.12 -179.5 L 78.121 -179.5 L 100.994 -179.5 L 100.995 -179.5 L 103.121 -179.5 L 103.122 -179.5 L 125.994 -179.5 L 125.995 -179.5 L 128.122 -179.5 L 128.123 -179.5 L 150.995 -179.5 L 150.996 -179.5 L 152.502 -179.5 L 152.75 -179.5 L 153.124 -179.5 L 156.504 -179.5 L 158.504 -179.5 L 162.5 -179.5 M 162.726 -198.49 L 162.75 -198 L 162.726 -197.51 L 162.654 -197.025 L 162.55 -196.608 L 162.535 -196.549 L 162.369 -196.087 L 162.16 -195.643 L 161.907 -195.222 L 161.615 -194.828 L 161.286 -194.464 L 160.922 -194.135 L 160.528 -193.843 L 160.107 -193.59 L 159.744 -193.419 L 159.663 -193.381 L 159.201 -193.215 L 158.725 -193.096 L 158.24 -193.024 L 157.75 -193 L 157.26 -193.024 L 156.775 -193.096 L 156.299 -193.215 L 155.837 -193.381 L 155.648 -193.47 L 155.393 -193.59 L 154.972 -193.843 L 154.578 -194.135 L 154.214 -194.464 L 153.885 -194.828 L 153.593 -195.222 L 153.34 -195.643 L 153.131 -196.087 L 152.965 -196.549 L 152.95 -196.608 L 152.846 -197.025 L 152.774 -197.51 L 152.75 -198 L 152.774 -198.49 L 152.846 -198.975 L 152.965 -199.451 L 153.131 -199.913 L 153.34 -200.357 L 153.593 -200.778 L 153.885 -201.172 L 154.214 -201.536 L 154.578 -201.865 L 154.972 -202.157 L 155.393 -202.41 L 155.648 -202.53 L 155.837 -202.619 L 156.299 -202.785 L 156.775 -202.904 L 157.26 -202.976 L 157.75 -203 L 158.24 -202.976 L 158.725 -202.904 L 159.201 -202.785 L 159.663 -202.619 L 159.744 -202.581 L 160.107 -202.41 L 160.528 -202.157 L 160.922 -201.865 L 161.286 -201.536 L 161.615 -201.172 L 161.907 -200.778 L 162.16 -200.357 L 162.369 -199.913 L 162.535 -199.451 L 162.654 -198.975 L 162.726 -198.49 M 161.907 -16.778 L 162.144 -16.384 L 162.16 -16.357 L 162.369 -15.913 L 162.535 -15.451 L 162.654 -14.975 L 162.726 -14.49 L 162.75 -14 L 162.726 -13.51 L 162.654 -13.025 L 162.535 -12.549 L 162.441 -12.288 L 162.369 -12.087 L 162.16 -11.643 L 161.907 -11.222 L 161.615 -10.828 L 161.286 -10.464 L 160.922 -10.135 L 160.528 -9.843 L 160.107 -9.59 L 159.744 -9.419 L 159.663 -9.381 L 159.201 -9.215 L 158.725 -9.096 L 158.24 -9.024 L 157.75 -9 L 157.26 -9.024 L 156.775 -9.096 L 156.299 -9.215 L 155.837 -9.381 L 155.648 -9.47 L 155.393 -9.59 L 154.972 -9.843 L 154.578 -10.135 L 154.214 -10.464 L 153.885 -10.828 L 153.593 -11.222 L 153.34 -11.643 L 153.131 -12.087 L 153.059 -12.288 L 152.965 -12.549 L 152.846 -13.025 L 152.774 -13.51 L 152.75 -14 L 152.774 -14.49 L 152.846 -14.975 L 152.965 -15.451 L 153.131 -15.913 L 153.34 -16.357 L 153.356 -16.384 L 153.593 -16.778 L 153.885 -17.172 L 154.214 -17.536 L 154.578 -17.865 L 154.972 -18.157 L 155.393 -18.41 L 155.648 -18.53 L 155.837 -18.619 L 156.299 -18.785 L 156.775 -18.904 L 157.26 -18.976 L 157.75 -19 L 158.24 -18.976 L 158.725 -18.904 L 159.201 -18.785 L 159.663 -18.619 L 159.744 -18.581 L 160.107 -18.41 L 160.528 -18.157 L 160.922 -17.865 L 161.286 -17.536 L 161.615 -17.172 L 161.907 -16.778 M -170 -32.5 L -170 -36.498 L -170 -38.498 L -170 -69.58 L -170 -69.583 L -170 -75.428 L -170 -75.43 L -170 -179.5 L -166.004 -179.5 L -164.004 -179.5 L -160.25 -179.5 L -160.004 -179.5 L -154.999 -179.5 L -132.123 -179.5 L -132.122 -179.5 L -129.993 -179.5 L -107.122 -179.5 L -107.121 -179.5 L -104.992 -179.5 L -82.121 -179.5 L -82.12 -179.5 L -79.991 -179.5 L -57.12 -179.5 L -57.119 -179.5 L -54.99 -179.5 L -39.997 -179.5 L -32.119 -179.5 L -32.118 -179.5 L -29.99 -179.5 L -28 -179.5 L -26 -179.5 L -22.999 -179.5 L -16.004 -148.34 L -10.999 -126.045 L 1.695 -69.498 L 7.231 -44.838 L 7.998 -41.422 L 7.998 -38.498 L 7.998 -36.498 L 7.998 -32.5 L -22.999 -32.5 L -26 -32.5 L -28 -32.5 L -83.493 -32.5 L -85.62 -32.5 L -85.621 -32.5 L -108.493 -32.5 L -108.494 -32.5 L -110.621 -32.5 L -110.622 -32.5 L -133.494 -32.5 L -133.495 -32.5 L -135.622 -32.5 L -135.623 -32.5 L -158.495 -32.5 L -158.496 -32.5 L -160.002 -32.5 L -160.25 -32.5 L -160.624 -32.5 L -164.004 -32.5 L -166.004 -32.5 L -170 -32.5 M -161.093 -200.778 L -161.049 -200.704 L -160.84 -200.357 L -160.631 -199.913 L -160.465 -199.451 L -160.346 -198.975 L -160.274 -198.49 L -160.25 -198 L -160.274 -197.51 L -160.346 -197.025 L -160.45 -196.608 L -160.465 -196.549 L -160.631 -196.087 L -160.84 -195.643 L -161.093 -195.222 L -161.385 -194.828 L -161.714 -194.464 L -162.078 -194.135 L -162.472 -193.843 L -162.893 -193.59 L -163.337 -193.381 L -163.799 -193.215 L -163.84 -193.205 L -164.275 -193.096 L -164.76 -193.024 L -165.25 -193 L -165.74 -193.024 L -166.225 -193.096 L -166.701 -193.215 L -167.163 -193.381 L -167.607 -193.59 L -167.936 -193.788 L -168.028 -193.843 L -168.422 -194.135 L -168.786 -194.464 L -169.115 -194.828 L -169.407 -195.222 L -169.66 -195.643 L -169.869 -196.087 L -170.035 -196.549 L -170.05 -196.608 L -170.154 -197.025 L -170.226 -197.51 L -170.25 -198 L -170.226 -198.49 L -170.154 -198.975 L -170.035 -199.451 L -169.869 -199.913 L -169.66 -200.357 L -169.407 -200.778 L -169.115 -201.172 L -168.786 -201.536 L -168.422 -201.865 L -168.028 -202.157 L -167.936 -202.212 L -167.607 -202.41 L -167.163 -202.619 L -166.701 -202.785 L -166.225 -202.904 L -165.74 -202.976 L -165.25 -203 L -164.76 -202.976 L -164.275 -202.904 L -163.84 -202.795 L -163.799 -202.785 L -163.337 -202.619 L -162.893 -202.41 L -162.472 -202.157 L -162.078 -201.865 L -161.714 -201.536 L -161.385 -201.172 L -161.093 -200.778 M -161.093 -16.778 L -160.856 -16.384 L -160.84 -16.357 L -160.631 -15.913 L -160.465 -15.451 L -160.346 -14.975 L -160.274 -14.49 L -160.25 -14 L -160.274 -13.51 L -160.346 -13.025 L -160.465 -12.549 L -160.559 -12.288 L -160.631 -12.087 L -160.84 -11.643 L -161.093 -11.222 L -161.385 -10.828 L -161.714 -10.464 L -162.078 -10.135 L -162.472 -9.843 L -162.893 -9.59 L -163.337 -9.381 L -163.799 -9.215 L -163.84 -9.205 L -164.275 -9.096 L -164.76 -9.024 L -165.25 -9 L -165.74 -9.024 L -166.225 -9.096 L -166.701 -9.215 L -167.163 -9.381 L -167.607 -9.59 L -167.936 -9.788 L -168.028 -9.843 L -168.422 -10.135 L -168.786 -10.464 L -169.115 -10.828 L -169.407 -11.222 L -169.66 -11.643 L -169.869 -12.087 L -169.941 -12.288 L -170.035 -12.549 L -170.154 -13.025 L -170.226 -13.51 L -170.25 -14 L -170.226 -14.49 L -170.154 -14.975 L -170.035 -15.451 L -169.869 -15.913 L -169.66 -16.357 L -169.644 -16.384 L -169.407 -16.778 L -169.115 -17.172 L -168.786 -17.536 L -168.422 -17.865 L -168.028 -18.157 L -167.607 -18.41 L -167.163 -18.619 L -166.701 -18.785 L -166.225 -18.904 L -165.74 -18.976 L -165.25 -19 L -164.76 -18.976 L -164.275 -18.904 L -163.84 -18.795 L -163.799 -18.785 L -163.337 -18.619 L -162.893 -18.41 L -162.472 -18.157 L -162.078 -17.865 L -161.714 -17.536 L -161.385 -17.172 L -161.093 -16.778 M -178.859 -0.164 L -170.25 -0.164 L 171.359 -0.164 L 171.359 -9 L 171.359 -211.836 L 162.75 -211.836 L 152.75 -211.836 L 15.5 -211.836 L -22.999 -211.836 L -160.25 -211.836 L -170.25 -211.836 L -178.859 -211.836 L -178.859 -0.164 M 4.232 -138.23 L 4.414 -138.066 L 4.611 -137.919 L 4.822 -137.793 L 5.044 -137.688 L 5.275 -137.605 L 5.513 -137.546 L 5.756 -137.51 L 6.002 -137.498 L 6.144 -137.505 L 6.247 -137.51 L 6.49 -137.546 L 6.728 -137.605 L 6.959 -137.688 L 7.181 -137.793 L 7.392 -137.919 L 7.589 -138.066 L 7.771 -138.23 L 7.936 -138.412 L 8.082 -138.61 L 8.192 -138.792 L 8.209 -138.82 L 8.314 -139.042 L 8.392 -139.264 L 8.396 -139.274 L 8.456 -139.512 L 8.492 -139.755 L 8.504 -140 L 8.492 -140.245 L 8.456 -140.488 L 8.396 -140.726 L 8.314 -140.958 L 8.209 -141.18 L 8.192 -141.208 L 8.082 -141.39 L 7.936 -141.588 L 7.771 -141.77 L 7.589 -141.934 L 7.392 -142.081 L 7.181 -142.207 L 6.959 -142.312 L 6.728 -142.395 L 6.49 -142.454 L 6.247 -142.49 L 6.144 -142.495 L 6.002 -142.503 L 5.756 -142.49 L 5.513 -142.454 L 5.275 -142.395 L 5.044 -142.312 L 4.822 -142.207 L 4.611 -142.081 L 4.414 -141.934 L 4.232 -141.77 L 4.096 -141.62 L 4.067 -141.588 L 3.921 -141.39 L 3.794 -141.18 L 3.689 -140.958 L 3.607 -140.726 L 3.547 -140.488 L 3.511 -140.245 L 3.499 -140 L 3.511 -139.755 L 3.547 -139.512 L 3.607 -139.274 L 3.611 -139.264 L 3.689 -139.042 L 3.794 -138.82 L 3.921 -138.61 L 4.067 -138.412 L 4.096 -138.38 L 4.232 -138.23 M 149.513 -71.546 L 149.756 -71.51 L 150.002 -71.498 L 150.247 -71.51 L 150.49 -71.546 L 150.728 -71.605 L 150.959 -71.688 L 151.181 -71.793 L 151.392 -71.919 L 151.552 -72.038 L 151.589 -72.066 L 151.771 -72.23 L 151.936 -72.412 L 152.082 -72.61 L 152.209 -72.82 L 152.314 -73.042 L 152.396 -73.274 L 152.456 -73.512 L 152.488 -73.728 L 152.492 -73.755 L 152.504 -74 L 152.492 -74.245 L 152.456 -74.488 L 152.396 -74.726 L 152.314 -74.958 L 152.209 -75.18 L 152.082 -75.39 L 151.936 -75.588 L 151.771 -75.77 L 151.589 -75.934 L 151.552 -75.962 L 151.392 -76.081 L 151.181 -76.207 L 150.959 -76.312 L 150.728 -76.395 L 150.49 -76.454 L 150.247 -76.49 L 150.002 -76.503 L 149.756 -76.49 L 149.513 -76.454 L 149.504 -76.452 L 149.275 -76.395 L 149.044 -76.312 L 148.822 -76.207 L 148.611 -76.081 L 148.414 -75.934 L 148.239 -75.776 L 148.232 -75.77 L 148.067 -75.588 L 147.921 -75.39 L 147.795 -75.18 L 147.69 -74.958 L 147.607 -74.726 L 147.547 -74.488 L 147.511 -74.245 L 147.499 -74 L 147.511 -73.755 L 147.515 -73.728 L 147.547 -73.512 L 147.607 -73.274 L 147.69 -73.042 L 147.795 -72.82 L 147.921 -72.61 L 148.067 -72.412 L 148.232 -72.23 L 148.414 -72.066 L 148.611 -71.919 L 148.822 -71.793 L 149.044 -71.688 L 149.275 -71.605 L 149.504 -71.548 L 149.513 -71.546 M 76.665 -175.502 L 74.538 -175.502 L 53.501 -175.502 L 53.501 -173.502 L 73.81 -173.502 L 75.937 -173.502 L 75.938 -173.502 L 93.502 -173.502 L 93.502 -175.502 L 76.666 -175.502 L 76.665 -175.502 M 124.54 -175.502 L 124.539 -175.502 L 114.239 -175.502 L 114.239 -173.502 L 123.811 -173.502 L 123.812 -173.502 L 125.939 -173.502 L 125.94 -173.502 L 148.812 -173.502 L 148.813 -173.502 L 150.94 -173.502 L 150.941 -173.502 L 152.502 -173.502 L 152.75 -173.502 L 153.504 -173.502 L 153.504 -175.502 L 152.75 -175.502 L 152.502 -175.502 L 151.669 -175.502 L 151.668 -175.502 L 149.541 -175.502 L 149.54 -175.502 L 126.668 -175.502 L 126.667 -175.502 L 124.54 -175.502 M 102.067 -45.069 L 103.947 -44.385 L 120.247 -89.171 L 124.469 -100.77 L 122.59 -101.454 L 122.589 -101.454 L 102.067 -45.069 M 32.497 -175.502 L 20.5 -175.502 L 18.5 -175.502 L 15.5 -175.502 L -6.501 -175.502 L -6.501 -173.502 L 15.5 -173.502 L 18.5 -173.502 L 20.5 -173.502 L 32.497 -173.502 L 32.764 -173.502 L 32.764 -175.502 L 32.497 -175.502 M -13.747 -69.51 L -13.501 -69.498 L -13.256 -69.51 L -13.013 -69.546 L -12.775 -69.605 L -12.7 -69.632 L -12.544 -69.688 L -12.322 -69.793 L -12.288 -69.813 L -12.111 -69.919 L -11.914 -70.066 L -11.732 -70.23 L -11.567 -70.412 L -11.421 -70.61 L -11.294 -70.82 L -11.189 -71.042 L -11.107 -71.274 L -11.047 -71.512 L -11.022 -71.68 L -11.011 -71.755 L -10.999 -72 L -11.011 -72.245 L -11.047 -72.488 L -11.107 -72.726 L -11.189 -72.958 L -11.294 -73.18 L -11.421 -73.39 L -11.567 -73.588 L -11.694 -73.728 L -11.732 -73.77 L -11.914 -73.934 L -12.111 -74.081 L -12.288 -74.187 L -12.322 -74.207 L -12.544 -74.312 L -12.775 -74.395 L -13.013 -74.454 L -13.256 -74.49 L -13.501 -74.503 L -13.747 -74.49 L -13.99 -74.454 L -14.228 -74.395 L -14.336 -74.356 L -14.459 -74.312 L -14.681 -74.207 L -14.892 -74.081 L -15.089 -73.934 L -15.271 -73.77 L -15.309 -73.728 L -15.436 -73.588 L -15.582 -73.39 L -15.709 -73.18 L -15.814 -72.958 L -15.896 -72.726 L -15.956 -72.488 L -15.992 -72.245 L -16.004 -72 L -15.992 -71.755 L -15.981 -71.68 L -15.956 -71.512 L -15.896 -71.274 L -15.814 -71.042 L -15.709 -70.82 L -15.582 -70.61 L -15.436 -70.412 L -15.271 -70.23 L -15.089 -70.066 L -14.892 -69.919 L -14.681 -69.793 L -14.459 -69.688 L -14.303 -69.632 L -14.228 -69.605 L -13.99 -69.546 L -13.747 -69.51 M -159.992 -138.245 L -160.004 -138 L -159.992 -137.755 L -159.956 -137.512 L -159.896 -137.274 L -159.814 -137.042 L -159.744 -136.894 L -159.709 -136.82 L -159.582 -136.61 L -159.436 -136.412 L -159.271 -136.23 L -159.089 -136.066 L -158.892 -135.919 L -158.681 -135.793 L -158.459 -135.688 L -158.228 -135.605 L -157.99 -135.546 L -157.747 -135.51 L -157.696 -135.508 L -157.502 -135.498 L -157.256 -135.51 L -157.013 -135.546 L -156.775 -135.605 L -156.544 -135.688 L -156.322 -135.793 L -156.111 -135.919 L -155.914 -136.066 L -155.732 -136.23 L -155.648 -136.323 L -155.567 -136.412 L -155.421 -136.61 L -155.295 -136.82 L -155.189 -137.042 L -155.107 -137.274 L -155.047 -137.512 L -155.011 -137.755 L -154.999 -138 L -155.011 -138.245 L -155.047 -138.488 L -155.107 -138.726 L -155.189 -138.958 L -155.295 -139.18 L -155.345 -139.264 L -155.421 -139.39 L -155.567 -139.588 L -155.648 -139.677 L -155.732 -139.77 L -155.914 -139.934 L -156.111 -140.081 L -156.322 -140.207 L -156.544 -140.312 L -156.775 -140.395 L -157.013 -140.454 L -157.256 -140.49 L -157.502 -140.503 L -157.696 -140.493 L -157.747 -140.49 L -157.99 -140.454 L -158.228 -140.395 L -158.459 -140.312 L -158.681 -140.207 L -158.892 -140.081 L -159.089 -139.934 L -159.271 -139.77 L -159.436 -139.588 L -159.582 -139.39 L -159.658 -139.264 L -159.709 -139.18 L -159.744 -139.106 L -159.814 -138.958 L -159.896 -138.726 L -159.956 -138.488 L -159.992 -138.245 M -84.165 -36.498 L -82.038 -36.498 L -61.001 -36.498 L -61.001 -38.498 L -81.31 -38.498 L -83.437 -38.498 L -83.438 -38.498 L -101.002 -38.498 L -101.002 -36.498 L -84.166 -36.498 L -84.165 -36.498 M -132.04 -36.498 L -132.039 -36.498 L -121.739 -36.498 L -121.739 -38.498 L -131.311 -38.498 L -131.312 -38.498 L -133.439 -38.498 L -133.44 -38.498 L -156.312 -38.498 L -156.313 -38.498 L -158.44 -38.498 L -158.441 -38.498 L -160.002 -38.498 L -160.25 -38.498 L -161.004 -38.498 L -161.004 -36.498 L -160.25 -36.498 L -160.002 -36.498 L -159.169 -36.498 L -159.168 -36.498 L -157.041 -36.498 L -157.04 -36.498 L -134.168 -36.498 L -134.167 -36.498 L -132.04 -36.498 M -109.567 -166.931 L -111.447 -167.615 L -127.747 -122.829 L -131.969 -111.23 L -130.09 -110.546 L -130.089 -110.546 L -109.567 -166.931 M -26 -36.498 L -22.999 -36.498 L -0.999 -36.498 L -0.999 -38.498 L -22.999 -38.498 L -26 -38.498 L -28 -38.498 L -40.264 -38.498 L -40.264 -36.498 L -28 -36.498 L -26 -36.498 M 127.068 -45.069 L 128.948 -44.385 L 145.248 -89.171 L 147.499 -95.355 L 149.47 -100.77 L 147.591 -101.454 L 147.59 -101.454 L 127.068 -45.069 M 28.944 -44.385 L 45.244 -89.171 L 49.466 -100.77 L 47.587 -101.454 L 32.497 -59.994 L 27.065 -45.069 L 28.944 -44.385 M 53.945 -44.385 L 70.245 -89.171 L 74.467 -100.77 L 72.588 -101.454 L 66.89 -85.8 L 52.065 -45.069 L 53.945 -44.385 M 78.946 -44.385 L 95.246 -89.171 L 99.468 -100.77 L 97.589 -101.454 L 97.588 -101.454 L 77.066 -45.069 L 78.946 -44.385 M 20.5 -165.002 L 18.5 -165.002 L 18.5 -115 L 20.5 -115 L 20.5 -165.002 M 20.5 -99 L 18.5 -99 L 18.5 -48.998 L 20.5 -48.998 L 20.5 -99 M -134.568 -166.931 L -136.448 -167.615 L -152.748 -122.829 L -156.97 -111.23 L -155.091 -110.546 L -155.09 -110.546 L -134.568 -166.931 M -36.444 -167.615 L -52.744 -122.829 L -56.966 -111.23 L -55.087 -110.546 L -39.997 -152.006 L -34.565 -166.931 L -36.444 -167.615 M -61.445 -167.615 L -77.745 -122.829 L -81.967 -111.23 L -80.088 -110.546 L -80.087 -110.546 L -59.565 -166.931 L -61.445 -167.615 M -86.446 -167.615 L -102.746 -122.829 L -106.968 -111.23 L -105.089 -110.546 L -105.088 -110.546 L -84.566 -166.931 L -86.446 -167.615 M -28 -46.998 L -26 -46.998 L -26 -97 L -28 -97 L -28 -46.998 M -28 -113 L -26 -113 L -26 -163.002 L -28 -163.002 L -28 -113 M 158.504 -131.438 L 158.504 -131.441 L 158.504 -165.002 L 156.504 -165.002 L 156.504 -125.946 L 156.504 -125.943 L 156.504 -120.097 L 156.504 -120.096 L 156.504 -115 L 158.504 -115 L 158.504 -125.591 L 158.504 -125.592 L 158.504 -131.438 M 158.504 -99 L 156.504 -99 L 156.504 -71.498 L 156.504 -48.998 L 158.504 -48.998 L 158.504 -71.498 L 158.504 -99 M -166.004 -80.562 L -166.004 -80.559 L -166.004 -46.998 L -164.004 -46.998 L -164.004 -86.054 L -164.004 -86.057 L -164.004 -91.903 L -164.004 -91.904 L -164.004 -97 L -166.004 -97 L -166.004 -86.409 L -166.004 -86.408 L -166.004 -80.562 M -166.004 -113 L -164.004 -113 L -164.004 -163.002 L -166.004 -163.002 L -166.004 -113 Z" fill="none" stroke="rgb(255,0,0)" style="stroke-width: 0.5px;"/>
</svg>