<?xml version="1.0" encoding="utf-8"?>
<svg width="400.5mm" height="255.99999999999994mm" viewBox="-204 -233.99999999999994 400.5 255.99999999999994" version="1.1" xmlns="http://www.w3.org/2000/svg">
  <title>svgOutput</title>
  <desc>made with tinkercad</desc>
  <path d="M -162.078 -201.865 L -161.75 -201.569 L -161.714 -201.536 L -161.385 -201.172 L -161.093 -200.778 L -161.049 -200.704 L -160.84 -200.357 L -160.631 -199.913 L -160.465 -199.451 L -160.346 -198.975 L -160.274 -198.49 L -160.25 -198 L -160.274 -197.51 L -160.346 -197.025 L -160.45 -196.608 L -160.465 -196.549 L -160.631 -196.087 L -160.84 -195.643 L -161.093 -195.222 L -161.385 -194.828 L -161.714 -194.464 L -161.75 -194.431 L -162.078 -194.135 L -162.472 -193.843 L -162.893 -193.59 L -163.337 -193.381 L -163.799 -193.215 L -163.84 -193.205 L -164.275 -193.096 L -164.76 -193.024 L -165.25 -193 L -165.74 -193.024 L -166.225 -193.096 L -166.701 -193.215 L -167.163 -193.381 L -167.607 -193.59 L -167.936 -193.788 L -168.028 -193.843 L -168.422 -194.135 L -168.786 -194.464 L -169.115 -194.828 L -169.407 -195.222 L -169.66 -195.643 L -169.869 -196.087 L -170.035 -196.549 L -170.05 -196.608 L -170.154 -197.025 L -170.226 -197.51 L -170.25 -198 L -170.226 -198.49 L -170.154 -198.975 L -170.035 -199.451 L -169.869 -199.913 L -169.66 -200.357 L -169.407 -200.778 L -169.115 -201.172 L -168.786 -201.536 L -168.422 -201.865 L -168.028 -202.157 L -167.936 -202.212 L -167.607 -202.41 L -167.163 -202.619 L -166.701 -202.785 L -166.225 -202.904 L -165.74 -202.976 L -165.25 -203 L -164.76 -202.976 L -164.275 -202.904 L -163.84 -202.795 L -163.799 -202.785 L -163.337 -202.619 L -162.893 -202.41 L -162.472 -202.157 L -162.078 -201.865 M -162.078 -17.865 L -161.75 -17.569 L -161.714 -17.536 L -161.385 -17.172 L -161.093 -16.778 L -160.856 -16.384 L -160.84 -16.357 L -160.631 -15.913 L -160.465 -15.451 L -160.346 -14.975 L -160.274 -14.49 L -160.25 -14 L -160.274 -13.51 L -160.346 -13.025 L -160.465 -12.549 L -160.559 -12.288 L -160.631 -12.087 L -160.84 -11.643 L -161.093 -11.222 L -161.385 -10.828 L -161.714 -10.464 L -161.75 -10.431 L -162.078 -10.135 L -162.472 -9.843 L -162.893 -9.59 L -163.337 -9.381 L -163.799 -9.215 L -163.84 -9.205 L -164.275 -9.096 L -164.76 -9.024 L -165.25 -9 L -165.74 -9.024 L -166.225 -9.096 L -166.701 -9.215 L -167.163 -9.381 L -167.607 -9.59 L -167.936 -9.788 L -168.028 -9.843 L -168.422 -10.135 L -168.786 -10.464 L -169.115 -10.828 L -169.407 -11.222 L -169.66 -11.643 L -169.869 -12.087 L -169.941 -12.288 L -170.035 -12.549 L -170.154 -13.025 L -170.226 -13.51 L -170.25 -14 L -170.226 -14.49 L -170.154 -14.975 L -170.035 -15.451 L -169.869 -15.913 L -169.66 -16.357 L -169.644 -16.384 L -169.407 -16.778 L -169.115 -17.172 L -168.786 -17.536 L -168.422 -17.865 L -168.028 -18.157 L -167.607 -18.41 L -167.163 -18.619 L -166.701 -18.785 L -166.225 -18.904 L -165.74 -18.976 L -165.25 -19 L -164.76 -18.976 L -164.275 -18.904 L -163.84 -18.795 L -163.799 -18.785 L -163.337 -18.619 L -162.893 -18.41 L -162.472 -18.157 L -162.078 -17.865 M -161.75 -65.264 L -159.75 -65.264 L -159.75 -86 L -161.75 -86 L -161.75 -126 L -159.75 -126 L -159.75 -146.736 L -161.75 -146.736 L -161.75 -186 L -160.25 -186 L -159.75 -186 L -159.75 -195 L -138.253 -195 L -123.252 -195 L 19.248 -195 L 115.752 -195 L 130.753 -195 L 152.25 -195 L 152.25 -186 L 152.75 -186 L 154.25 -186 L 154.25 -170.998 L 154.25 -161.003 L 154.25 -158.998 L 154.25 -146.736 L 152.25 -146.736 L 152.25 -126 L 154.25 -126 L 154.25 -86 L 152.25 -86 L 152.25 -71.998 L 152.25 -65.264 L 154.25 -65.264 L 154.25 -46.998 L 154.25 -26 L 152.25 -26 L 152.25 -23.003 L 152.25 -23 L 152.25 -20.998 L 152.25 -17 L 19.248 -17 L -159.75 -17 L -159.75 -20.998 L -159.75 -23.003 L -159.75 -26 L -160.25 -26 L -161.75 -26 L -161.75 -65.264 M 153.593 -16.778 L 153.758 -17 L 153.885 -17.172 L 154.214 -17.536 L 154.25 -17.569 L 154.578 -17.865 L 154.972 -18.157 L 155.393 -18.41 L 155.648 -18.53 L 155.837 -18.619 L 156.299 -18.785 L 156.775 -18.904 L 157.26 -18.976 L 157.75 -19 L 158.24 -18.976 L 158.725 -18.904 L 159.201 -18.785 L 159.663 -18.619 L 159.744 -18.581 L 160.107 -18.41 L 160.528 -18.157 L 160.922 -17.865 L 161.286 -17.536 L 161.615 -17.172 L 161.742 -17 L 161.907 -16.778 L 162.144 -16.384 L 162.16 -16.357 L 162.369 -15.913 L 162.535 -15.451 L 162.654 -14.975 L 162.726 -14.49 L 162.75 -14 L 162.726 -13.51 L 162.654 -13.025 L 162.535 -12.549 L 162.441 -12.288 L 162.369 -12.087 L 162.16 -11.643 L 161.907 -11.222 L 161.615 -10.828 L 161.286 -10.464 L 160.922 -10.135 L 160.528 -9.843 L 160.107 -9.59 L 159.744 -9.419 L 159.663 -9.381 L 159.201 -9.215 L 158.725 -9.096 L 158.24 -9.024 L 157.75 -9 L 157.26 -9.024 L 156.775 -9.096 L 156.299 -9.215 L 155.837 -9.381 L 155.648 -9.47 L 155.393 -9.59 L 154.972 -9.843 L 154.578 -10.135 L 154.214 -10.464 L 153.885 -10.828 L 153.593 -11.222 L 153.34 -11.643 L 153.131 -12.087 L 153.059 -12.288 L 152.965 -12.549 L 152.846 -13.025 L 152.774 -13.51 L 152.75 -14 L 152.774 -14.49 L 152.846 -14.975 L 152.965 -15.451 L 153.131 -15.913 L 153.34 -16.357 L 153.356 -16.384 L 153.593 -16.778 M 162.726 -198.49 L 162.75 -198 L 162.726 -197.51 L 162.654 -197.025 L 162.55 -196.608 L 162.535 -196.549 L 162.369 -196.087 L 162.16 -195.643 L 161.907 -195.222 L 161.742 -195 L 161.615 -194.828 L 161.286 -194.464 L 160.922 -194.135 L 160.528 -193.843 L 160.107 -193.59 L 159.744 -193.419 L 159.663 -193.381 L 159.201 -193.215 L 158.725 -193.096 L 158.24 -193.024 L 157.75 -193 L 157.26 -193.024 L 156.775 -193.096 L 156.299 -193.215 L 155.837 -193.381 L 155.648 -193.47 L 155.393 -193.59 L 154.972 -193.843 L 154.578 -194.135 L 154.25 -194.431 L 154.214 -194.464 L 153.885 -194.828 L 153.758 -195 L 153.593 -195.222 L 153.34 -195.643 L 153.131 -196.087 L 152.965 -196.549 L 152.95 -196.608 L 152.846 -197.025 L 152.774 -197.51 L 152.75 -198 L 152.774 -198.49 L 152.846 -198.975 L 152.965 -199.451 L 153.131 -199.913 L 153.34 -200.357 L 153.593 -200.778 L 153.885 -201.172 L 154.214 -201.536 L 154.578 -201.865 L 154.972 -202.157 L 155.393 -202.41 L 155.648 -202.53 L 155.837 -202.619 L 156.299 -202.785 L 156.775 -202.904 L 157.26 -202.976 L 157.75 -203 L 158.24 -202.976 L 158.725 -202.904 L 159.201 -202.785 L 159.663 -202.619 L 159.744 -202.581 L 160.107 -202.41 L 160.528 -202.157 L 160.922 -201.865 L 161.286 -201.536 L 161.615 -201.172 L 161.907 -200.778 L 162.16 -200.357 L 162.369 -199.913 L 162.535 -199.451 L 162.654 -198.975 L 162.726 -198.49 M 9.25 -23.003 L -55.249 -23.003 L -55.249 -20.998 L 9.25 -20.998 L 19.248 -20.998 L 29.25 -20.998 L 47.749 -20.998 L 47.749 -23 L 47.749 -23.003 L 29.25 -23.003 L 19.248 -23.003 L 9.25 -23.003 M 9.25 -161.003 L -55.249 -161.003 L -55.249 -158.998 L 9.25 -158.998 L 19.248 -158.998 L 29.25 -158.998 L 47.749 -158.998 L 47.749 -161 L 47.749 -161.003 L 29.25 -161.003 L 19.248 -161.003 L 9.25 -161.003 M -170.25 -211.836 L -178.859 -211.836 L -178.859 -0.164 L -170.25 -0.164 L -161.75 -0.164 L -159.75 -0.164 L 171.359 -0.164 L 171.359 -9 L 171.359 -17 L 171.359 -20.998 L 171.359 -23.003 L 171.359 -46.998 L 171.359 -71.998 L 171.359 -158.998 L 171.359 -161.003 L 171.359 -195 L 171.359 -211.836 L 162.75 -211.836 L 152.75 -211.836 L -159.75 -211.836 L -160.25 -211.836 L -161.75 -211.836 L -170.25 -211.836 M -139.754 -161.003 L -139.754 -158.998 L -107.753 -158.998 L -103.748 -158.998 L -75.254 -158.998 L -75.254 -161.003 L -138.253 -161.003 L -139.754 -161.003 M -139.754 -23.003 L -139.754 -20.998 L -75.254 -20.998 L -75.254 -23.003 L -107.753 -23.003 L -139.754 -23.003 M -107.709 -73.728 L -107.654 -73.381 L -107.37 -72.823 L -106.927 -72.38 L -106.369 -72.096 L -105.75 -71.998 L -105.131 -72.096 L -104.573 -72.38 L -104.13 -72.823 L -103.846 -73.381 L -103.791 -73.728 L -103.748 -74 L -103.846 -74.619 L -104.13 -75.177 L -104.573 -75.62 L -105.131 -75.904 L -105.75 -76.003 L -106.369 -75.904 L -106.927 -75.62 L -107.37 -75.177 L -107.654 -74.619 L -107.753 -74 L -107.709 -73.728 M -105.131 -97.096 L -104.573 -97.38 L -104.13 -97.823 L -103.885 -98.304 L -103.846 -98.381 L -103.748 -99 L -103.846 -99.619 L -104.13 -100.177 L -104.573 -100.62 L -105.131 -100.904 L -105.75 -101.003 L -106.369 -100.904 L -106.927 -100.62 L -107.37 -100.177 L -107.654 -99.619 L -107.753 -99 L -107.654 -98.381 L -107.615 -98.304 L -107.37 -97.823 L -106.927 -97.38 L -106.369 -97.096 L -105.75 -96.998 L -105.131 -97.096 M 96.291 -73.728 L 96.346 -73.381 L 96.63 -72.823 L 97.073 -72.38 L 97.631 -72.096 L 98.25 -71.998 L 98.869 -72.096 L 99.427 -72.38 L 99.87 -72.823 L 100.154 -73.381 L 100.209 -73.728 L 100.253 -74 L 100.154 -74.619 L 99.87 -75.177 L 99.427 -75.62 L 98.869 -75.904 L 98.25 -76.003 L 97.631 -75.904 L 97.073 -75.62 L 96.63 -75.177 L 96.346 -74.619 L 96.248 -74 L 96.291 -73.728 M 100.154 -98.381 L 100.253 -99 L 100.154 -99.619 L 99.87 -100.177 L 99.427 -100.62 L 98.869 -100.904 L 98.25 -101.003 L 97.631 -100.904 L 97.073 -100.62 L 96.63 -100.177 L 96.346 -99.619 L 96.248 -99 L 96.346 -98.381 L 96.385 -98.304 L 96.63 -97.823 L 97.073 -97.38 L 97.631 -97.096 L 98.25 -96.998 L 98.869 -97.096 L 99.427 -97.38 L 99.87 -97.823 L 100.115 -98.304 L 100.154 -98.381 M -107.729 -49.152 L -107.753 -49 L -107.654 -48.381 L -107.37 -47.823 L -106.927 -47.38 L -106.369 -47.096 L -105.75 -46.998 L -105.131 -47.096 L -104.573 -47.38 L -104.13 -47.823 L -103.846 -48.381 L -103.748 -49 L -103.772 -49.152 L -103.846 -49.619 L -104.13 -50.177 L -104.573 -50.62 L -105.131 -50.904 L -105.75 -51.003 L -106.369 -50.904 L -106.927 -50.62 L -107.37 -50.177 L -107.654 -49.619 L -107.729 -49.152 M 96.272 -49.152 L 96.248 -49 L 96.346 -48.381 L 96.63 -47.823 L 97.073 -47.38 L 97.631 -47.096 L 98.25 -46.998 L 98.869 -47.096 L 99.427 -47.38 L 99.87 -47.823 L 100.154 -48.381 L 100.253 -49 L 100.229 -49.152 L 100.154 -49.619 L 99.87 -50.177 L 99.427 -50.62 L 98.869 -50.904 L 98.25 -51.003 L 97.631 -50.904 L 97.073 -50.62 L 96.63 -50.177 L 96.346 -49.619 L 96.272 -49.152 M -131.488 -171.034 L -131.072 -171.014 L -130.752 -170.998 L -130.017 -171.034 L -129.289 -171.142 L -128.575 -171.321 L -127.882 -171.569 L -127.217 -171.883 L -126.969 -172.032 L -126.586 -172.262 L -125.994 -172.7 L -125.449 -173.195 L -124.955 -173.74 L -124.516 -174.332 L -124.138 -174.963 L -123.823 -175.629 L -123.575 -176.322 L -123.396 -177.036 L -123.288 -177.765 L -123.252 -178.5 L -123.288 -179.235 L -123.396 -179.964 L -123.461 -180.224 L -123.575 -180.678 L -123.823 -181.371 L -124.138 -182.037 L -124.516 -182.668 L -124.955 -183.26 L -125.449 -183.805 L -125.994 -184.3 L -126.586 -184.738 L -127.217 -185.117 L -127.882 -185.431 L -128.575 -185.679 L -129.289 -185.858 L -130.017 -185.966 L -130.752 -186.003 L -131.072 -185.987 L -131.488 -185.966 L -132.216 -185.858 L -132.93 -185.679 L -133.623 -185.431 L -134.288 -185.117 L -134.919 -184.738 L -135.51 -184.3 L -136.056 -183.805 L -136.55 -183.26 L -136.989 -182.668 L -137.367 -182.037 L -137.682 -181.371 L -137.93 -180.678 L -138.043 -180.224 L -138.108 -179.964 L -138.216 -179.235 L -138.253 -178.5 L -138.216 -177.765 L -138.108 -177.036 L -137.93 -176.322 L -137.682 -175.629 L -137.367 -174.963 L -136.989 -174.332 L -136.55 -173.74 L -136.056 -173.195 L -135.51 -172.7 L -134.919 -172.262 L -134.536 -172.032 L -134.288 -171.883 L -133.623 -171.569 L -132.93 -171.321 L -132.216 -171.142 L -131.488 -171.034 M 123.312 -186 L 123.252 -186.003 L 123.192 -186 L 122.88 -185.984 L 122.517 -185.966 L 121.789 -185.858 L 121.075 -185.679 L 120.382 -185.431 L 119.717 -185.117 L 119.086 -184.738 L 118.494 -184.3 L 117.949 -183.805 L 117.455 -183.26 L 117.016 -182.668 L 116.638 -182.037 L 116.323 -181.371 L 116.075 -180.678 L 115.961 -180.224 L 115.896 -179.964 L 115.788 -179.235 L 115.752 -178.5 L 115.788 -177.765 L 115.896 -177.036 L 116.075 -176.322 L 116.323 -175.629 L 116.638 -174.963 L 117.016 -174.332 L 117.455 -173.74 L 117.949 -173.195 L 118.494 -172.7 L 119.086 -172.262 L 119.469 -172.032 L 119.717 -171.883 L 120.382 -171.569 L 121.075 -171.321 L 121.789 -171.142 L 122.517 -171.034 L 122.88 -171.016 L 123.252 -170.998 L 123.988 -171.034 L 124.716 -171.142 L 125.43 -171.321 L 126.123 -171.569 L 126.788 -171.883 L 127.036 -172.032 L 127.419 -172.262 L 128.01 -172.7 L 128.556 -173.195 L 129.05 -173.74 L 129.488 -174.332 L 129.867 -174.963 L 130.182 -175.629 L 130.43 -176.322 L 130.608 -177.036 L 130.716 -177.765 L 130.753 -178.5 L 130.716 -179.235 L 130.608 -179.964 L 130.543 -180.224 L 130.43 -180.678 L 130.182 -181.371 L 129.867 -182.037 L 129.488 -182.668 L 129.05 -183.26 L 128.556 -183.805 L 128.01 -184.3 L 127.419 -184.738 L 126.788 -185.117 L 126.123 -185.431 L 125.43 -185.679 L 124.716 -185.858 L 123.988 -185.966 L 123.312 -186 M 67.754 -161 L 67.754 -158.998 L 132.254 -158.998 L 132.254 -161 L 132.254 -161.003 L 67.754 -161.003 L 67.754 -161 M 67.754 -23 L 67.754 -20.998 L 132.254 -20.998 L 132.254 -23 L 132.254 -23.003 L 67.754 -23.003 L 67.754 -23 Z" fill="none" stroke="rgb(255,0,0)" style="stroke-width: 0.5px;"/>
</svg>