<?xml version="1.0" encoding="utf-8"?>
<svg width="400.5mm" height="255.99999999999994mm" viewBox="-204 -233.99999999999994 400.5 255.99999999999994" version="1.1" xmlns="http://www.w3.org/2000/svg">
  <title>svgOutput</title>
  <desc>made with tinkercad</desc>
  <path d="M 162.726 -198.49 L 162.75 -198 L 162.726 -197.51 L 162.654 -197.025 L 162.55 -196.608 L 162.535 -196.549 L 162.369 -196.087 L 162.16 -195.643 L 161.907 -195.222 L 161.615 -194.828 L 161.286 -194.464 L 160.922 -194.135 L 160.528 -193.843 L 160.107 -193.59 L 159.744 -193.419 L 159.663 -193.381 L 159.201 -193.215 L 158.725 -193.096 L 158.24 -193.024 L 157.75 -193 L 157.26 -193.024 L 156.775 -193.096 L 156.299 -193.215 L 155.837 -193.381 L 155.648 -193.47 L 155.393 -193.59 L 154.972 -193.843 L 154.578 -194.135 L 154.214 -194.464 L 153.885 -194.828 L 153.593 -195.222 L 153.34 -195.643 L 153.131 -196.087 L 152.965 -196.549 L 152.95 -196.608 L 152.846 -197.025 L 152.774 -197.51 L 152.75 -198 L 152.774 -198.49 L 152.846 -198.975 L 152.965 -199.451 L 153.131 -199.913 L 153.34 -200.357 L 153.593 -200.778 L 153.885 -201.172 L 154.214 -201.536 L 154.578 -201.865 L 154.972 -202.157 L 155.393 -202.41 L 155.648 -202.53 L 155.837 -202.619 L 156.299 -202.785 L 156.775 -202.904 L 157.26 -202.976 L 157.75 -203 L 158.24 -202.976 L 158.725 -202.904 L 159.201 -202.785 L 159.663 -202.619 L 159.744 -202.581 L 160.107 -202.41 L 160.528 -202.157 L 160.922 -201.865 L 161.286 -201.536 L 161.615 -201.172 L 161.907 -200.778 L 162.16 -200.357 L 162.369 -199.913 L 162.535 -199.451 L 162.654 -198.975 L 162.726 -198.49 M 161.907 -16.778 L 162.144 -16.384 L 162.16 -16.357 L 162.369 -15.913 L 162.535 -15.451 L 162.654 -14.975 L 162.726 -14.49 L 162.75 -14 L 162.726 -13.51 L 162.654 -13.025 L 162.535 -12.549 L 162.441 -12.288 L 162.369 -12.087 L 162.16 -11.643 L 161.907 -11.222 L 161.615 -10.828 L 161.286 -10.464 L 160.922 -10.135 L 160.528 -9.843 L 160.107 -9.59 L 159.744 -9.419 L 159.663 -9.381 L 159.201 -9.215 L 158.725 -9.096 L 158.24 -9.024 L 157.75 -9 L 157.26 -9.024 L 156.775 -9.096 L 156.299 -9.215 L 155.837 -9.381 L 155.648 -9.47 L 155.393 -9.59 L 154.972 -9.843 L 154.578 -10.135 L 154.214 -10.464 L 153.885 -10.828 L 153.593 -11.222 L 153.34 -11.643 L 153.131 -12.087 L 153.059 -12.288 L 152.965 -12.549 L 152.846 -13.025 L 152.774 -13.51 L 152.75 -14 L 152.774 -14.49 L 152.846 -14.975 L 152.965 -15.451 L 153.131 -15.913 L 153.34 -16.357 L 153.356 -16.384 L 153.593 -16.778 L 153.885 -17.172 L 154.214 -17.536 L 154.578 -17.865 L 154.972 -18.157 L 155.393 -18.41 L 155.648 -18.53 L 155.837 -18.619 L 156.299 -18.785 L 156.775 -18.904 L 157.26 -18.976 L 157.75 -19 L 158.24 -18.976 L 158.725 -18.904 L 159.201 -18.785 L 159.663 -18.619 L 159.744 -18.581 L 160.107 -18.41 L 160.528 -18.157 L 160.922 -17.865 L 161.286 -17.536 L 161.615 -17.172 L 161.907 -16.778 M -161.093 -200.778 L -161.049 -200.704 L -160.84 -200.357 L -160.631 -199.913 L -160.465 -199.451 L -160.346 -198.975 L -160.274 -198.49 L -160.25 -198 L -160.274 -197.51 L -160.346 -197.025 L -160.45 -196.608 L -160.465 -196.549 L -160.631 -196.087 L -160.84 -195.643 L -161.093 -195.222 L -161.385 -194.828 L -161.714 -194.464 L -162.078 -194.135 L -162.472 -193.843 L -162.893 -193.59 L -163.337 -193.381 L -163.799 -193.215 L -163.84 -193.205 L -164.275 -193.096 L -164.76 -193.024 L -165.25 -193 L -165.74 -193.024 L -166.225 -193.096 L -166.701 -193.215 L -167.163 -193.381 L -167.607 -193.59 L -167.936 -193.788 L -168.028 -193.843 L -168.422 -194.135 L -168.786 -194.464 L -169.115 -194.828 L -169.407 -195.222 L -169.66 -195.643 L -169.869 -196.087 L -170.035 -196.549 L -170.05 -196.608 L -170.154 -197.025 L -170.226 -197.51 L -170.25 -198 L -170.226 -198.49 L -170.154 -198.975 L -170.035 -199.451 L -169.869 -199.913 L -169.66 -200.357 L -169.407 -200.778 L -169.115 -201.172 L -168.786 -201.536 L -168.422 -201.865 L -168.028 -202.157 L -167.936 -202.212 L -167.607 -202.41 L -167.163 -202.619 L -166.701 -202.785 L -166.225 -202.904 L -165.74 -202.976 L -165.25 -203 L -164.76 -202.976 L -164.275 -202.904 L -163.84 -202.795 L -163.799 -202.785 L -163.337 -202.619 L -162.893 -202.41 L -162.472 -202.157 L -162.078 -201.865 L -161.714 -201.536 L -161.385 -201.172 L -161.093 -200.778 M -161.093 -16.778 L -160.856 -16.384 L -160.84 -16.357 L -160.631 -15.913 L -160.465 -15.451 L -160.346 -14.975 L -160.274 -14.49 L -160.25 -14 L -160.274 -13.51 L -160.346 -13.025 L -160.465 -12.549 L -160.559 -12.288 L -160.631 -12.087 L -160.84 -11.643 L -161.093 -11.222 L -161.385 -10.828 L -161.714 -10.464 L -162.078 -10.135 L -162.472 -9.843 L -162.893 -9.59 L -163.337 -9.381 L -163.799 -9.215 L -163.84 -9.205 L -164.275 -9.096 L -164.76 -9.024 L -165.25 -9 L -165.74 -9.024 L -166.225 -9.096 L -166.701 -9.215 L -167.163 -9.381 L -167.607 -9.59 L -167.936 -9.788 L -168.028 -9.843 L -168.422 -10.135 L -168.786 -10.464 L -169.115 -10.828 L -169.407 -11.222 L -169.66 -11.643 L -169.869 -12.087 L -169.941 -12.288 L -170.035 -12.549 L -170.154 -13.025 L -170.226 -13.51 L -170.25 -14 L -170.226 -14.49 L -170.154 -14.975 L -170.035 -15.451 L -169.869 -15.913 L -169.66 -16.357 L -169.644 -16.384 L -169.407 -16.778 L -169.115 -17.172 L -168.786 -17.536 L -168.422 -17.865 L -168.028 -18.157 L -167.607 -18.41 L -167.163 -18.619 L -166.701 -18.785 L -166.225 -18.904 L -165.74 -18.976 L -165.25 -19 L -164.76 -18.976 L -164.275 -18.904 L -163.84 -18.795 L -163.799 -18.785 L -163.337 -18.619 L -162.893 -18.41 L -162.472 -18.157 L -162.078 -17.865 L -161.714 -17.536 L -161.385 -17.172 L -161.093 -16.778 M -178.859 -0.164 L -170.25 -0.164 L 171.359 -0.164 L 171.359 -9 L 171.359 -211.836 L 162.75 -211.836 L 152.75 -211.836 L -160.25 -211.836 L -170.25 -211.836 L -178.859 -211.836 L -178.859 -0.164 Z" fill="none" stroke="rgb(255,0,0)" style="stroke-width: 0.5px;"/>
</svg>