<?xml version="1.0" encoding="utf-8"?>
<!-- Generator: Adobe Illustrator 12.0.0, SVG Export Plug-In . SVG Version: 6.00 Build 51448)  -->
<!DOCTYPE svg PUBLIC "-//W3C//DTD SVG 1.1//EN" "http://www.w3.org/Graphics/SVG/1.1/DTD/svg11.dtd" [
	<!ENTITY ns_svg "http://www.w3.org/2000/svg">
	<!ENTITY ns_xlink "http://www.w3.org/1999/xlink">
]>
<svg  version="1.1" id="Ebene_1" shaper:fusionaddin="version:1.6.3" xmlns:shaper="http://www.shapertools.com/namespaces/shaper"
	 xmlns="&ns_svg;" xmlns:xlink="&ns_xlink;" width="37.025" height="55.925" viewBox="0 0 37.025 55.925"
	 overflow="visible" enable-background="new 0 0 37.025 55.925" xml:space="preserve">
<title>svgOutput</title>
<desc>made with tinkercad</desc>
<title>svgOutput</title>
<desc>made with tinkercad</desc>
<g id="Body_Body62">
	<path shaper:cutDepth="0.002" fill="none" stroke="#FF0000" stroke-width="0.01" d="M-68.487-19.36l-12.244-7.07
		c-8.432,15.607-13.059,32.986-13.505,50.72v5.67h-9.249c0,40.938,24.853,77.78,62.813,93.113l7.069-12.245l5.523,3.189
		l-7.069,12.244c15.606,8.432,32.985,13.059,50.72,13.504h5.669v9.248c40.939,0,77.78-24.852,93.113-62.812l-12.244-7.069
		l3.188-5.523l12.244,7.07c8.432-15.609,13.06-32.986,13.505-50.721v-5.67h9.249c0-40.939-24.854-77.78-62.813-93.112l-7.069,12.244
		l-5.522-3.188l7.069-12.245c-15.607-8.432-32.985-13.059-50.721-13.505H15.57v-9.248c-40.938,0-77.78,24.853-93.113,62.812
		l12.245,7.07L-68.487-19.36z"/>
</g>
</svg>
