<?xml version="1.0" encoding="utf-8"?>
<!-- Generator: Adobe Illustrator 12.0.0, SVG Export Plug-In . SVG Version: 6.00 Build 51448)  -->
<!DOCTYPE svg PUBLIC "-//W3C//DTD SVG 1.1//EN" "http://www.w3.org/Graphics/SVG/1.1/DTD/svg11.dtd" [
	<!ENTITY ns_svg "http://www.w3.org/2000/svg">
	<!ENTITY ns_xlink "http://www.w3.org/1999/xlink">
]>
<svg  version="1.1" id="Ebene_1" shaper:fusionaddin="version:1.6.3" xmlns:shaper="http://www.shapertools.com/namespaces/shaper"
	 xmlns="&ns_svg;" xmlns:xlink="&ns_xlink;" width="37.025" height="55.925" viewBox="0 0 37.025 55.925"
	 overflow="visible" enable-background="new 0 0 37.025 55.925" xml:space="preserve">
<title>svgOutput</title>
<desc>made with tinkercad</desc>
<g id="Body_Body60">
	<path shaper:cutDepth="0.002" fill="none" stroke="#FF0000" stroke-width="0.01" d="M-160.177,27.124
		c0,98.629,79.955,178.582,178.584,178.582c98.626,0,178.582-79.953,178.582-178.583c0-98.628-79.955-178.582-178.582-178.582
		C-80.221-151.458-160.177-71.505-160.177,27.124z"/>
	
		<path shaper:cutDepth="0.002" fill="none" stroke="#FF0000" stroke-width="0.01" stroke-linecap="round" stroke-linejoin="round" d="
		M93.384,24.148h86.031v5.953H93.384V24.148z"/>
	
		<path shaper:cutDepth="0.002" fill="none" stroke="#FF0000" stroke-width="0.01" stroke-linecap="round" stroke-linejoin="round" d="
		M15.431-133.885h5.953v86.032h-5.953V-133.885z"/>
	
		<path shaper:cutDepth="0.002" fill="none" stroke="#FF0000" stroke-width="0.01" stroke-linecap="round" stroke-linejoin="round" d="
		M-142.6,30.101v-5.953h86.031v5.953H-142.6z"/>
	
		<path shaper:cutDepth="0.002" fill="none" stroke="#FF0000" stroke-width="0.01" stroke-linecap="round" stroke-linejoin="round" d="
		M21.384,188.131h-5.953v-86.03h5.953V188.131z"/>
	
		<path shaper:cutDepth="0.002" fill="none" stroke="#FF0000" stroke-width="0.01" stroke-linecap="round" stroke-linejoin="round" d="
		M-38.286,27.124c0,31.312,25.383,56.692,56.691,56.692c31.31,0,56.693-25.383,56.693-56.692c0-31.31-25.383-56.692-56.693-56.692
		C-12.903-29.568-38.286-4.187-38.286,27.124z"/>
</g>
<title>svgOutput</title>
<desc>made with tinkercad</desc>
</svg>
