<?xml version="1.0" encoding="utf-8"?>
<!-- Generator: Adobe Illustrator 12.0.0, SVG Export Plug-In . SVG Version: 6.00 Build 51448)  -->
<!DOCTYPE svg PUBLIC "-//W3C//DTD SVG 1.1//EN" "http://www.w3.org/Graphics/SVG/1.1/DTD/svg11.dtd" [
	<!ENTITY ns_svg "http://www.w3.org/2000/svg">
	<!ENTITY ns_xlink "http://www.w3.org/1999/xlink">
]>
<svg  version="1.1" id="Ebene_1" shaper:fusionaddin="version:1.6.3" xmlns:shaper="http://www.shapertools.com/namespaces/shaper"
	 xmlns="&ns_svg;" xmlns:xlink="&ns_xlink;" width="37.025" height="55.925" viewBox="0 0 37.025 55.925"
	 overflow="visible" enable-background="new 0 0 37.025 55.925" xml:space="preserve">
<g id="Body_Body10">
	<path shaper:cutDepth="0.002" fill="none" stroke="#FF0000" d="M-406.79,27.124c0,234.831,190.367,425.198,425.197,425.198
		c234.829,0,425.196-190.367,425.196-425.198c0-234.83-190.367-425.197-425.196-425.197
		C-216.423-398.073-406.79-207.707-406.79,27.124z"/>
	
		<path shaper:cutDepth="0.002" fill="none" stroke="#FF0000" stroke-width="0.0283" stroke-linecap="round" stroke-linejoin="round" d="
		M-119.996,52.777V38.321h-6.66v14.456H-119.996z"/>
	
		<path shaper:cutDepth="0.002" fill="none" stroke="#FF0000" stroke-width="0.0283" stroke-linecap="round" stroke-linejoin="round" d="
		M-7.247-111.278H7.21v-6.661H-7.247V-111.278z"/>
	
		<path shaper:cutDepth="0.002" fill="none" stroke="#FF0000" stroke-width="0.0283" stroke-linecap="round" stroke-linejoin="round" d="
		M44.06,165.525H29.603v6.662H44.06V165.525z"/>
	
		<path shaper:cutDepth="0.002" fill="none" stroke="#FF0000" stroke-width="0.0283" stroke-linecap="round" stroke-linejoin="round" d="
		M156.808,1.47v14.457h6.661V1.47H156.808z"/>
	
		<path shaper:cutDepth="0.002" fill="none" stroke="#FF0000" stroke-width="0.0283" stroke-linecap="round" stroke-linejoin="round" d="
		M21.383,197.343v-56.977H15.43v56.977H21.383z"/>
	
		<path shaper:cutDepth="0.002" fill="none" stroke="#FF0000" stroke-width="0.0283" stroke-linecap="round" stroke-linejoin="round" d="
		M131.651,30.099h56.976v-5.952h-56.976V30.099z"/>
	
		<path shaper:cutDepth="0.002" fill="none" stroke="#FF0000" stroke-width="0.0283" stroke-linecap="round" stroke-linejoin="round" d="
		M-94.837,24.147h-56.977v5.952h56.977V24.147L-94.837,24.147z"/>
	
		<path shaper:cutDepth="0.002" fill="none" stroke="#FF0000" stroke-width="0.0283" stroke-linecap="round" stroke-linejoin="round" d="
		M21.383-86.12v-56.977H15.43v56.977H21.383z"/>
	
		<path shaper:cutDepth="0.002" fill="none" stroke="#FF0000" stroke-width="0.0283" stroke-linecap="round" stroke-linejoin="round" d="
		M-80.806,27.124c0,54.794,44.419,99.214,99.213,99.214c54.793,0,99.212-44.42,99.212-99.214S73.2-72.089,18.407-72.089
		C-36.387-72.089-80.806-27.67-80.806,27.124z"/>
</g>
</svg>
