<?xml version="1.0" encoding="utf-8"?>
<!-- Generator: Adobe Illustrator 12.0.0, SVG Export Plug-In . SVG Version: 6.00 Build 51448)  -->
<!DOCTYPE svg PUBLIC "-//W3C//DTD SVG 1.1//EN" "http://www.w3.org/Graphics/SVG/1.1/DTD/svg11.dtd" [
	<!ENTITY ns_svg "http://www.w3.org/2000/svg">
	<!ENTITY ns_xlink "http://www.w3.org/1999/xlink">
]>
<svg  version="1.1" id="Ebene_1" shaper:fusionaddin="version:1.6.3" xmlns:shaper="http://www.shapertools.com/namespaces/shaper"
	 xmlns="&ns_svg;" xmlns:xlink="&ns_xlink;" width="37.025" height="55.925" viewBox="0 0 37.025 55.925"
	 overflow="visible" enable-background="new 0 0 37.025 55.925" xml:space="preserve">
<title>svgOutput</title>
<desc>made with tinkercad</desc>
<title>svgOutput</title>
<desc>made with tinkercad</desc>
<g id="Body_Body59">
	<path shaper:cutDepth="0.002" fill="none" stroke="#FF0000" stroke-width="0.01" d="M-9.941,25.352v282.756
		c0,7.828,6.347,14.174,14.173,14.174H32.58c7.827,0,14.173-6.346,14.173-14.174v-5.669h-9.212v-6.378h9.212v-537.874h14.174
		v-12.047c0-7.828-6.346-14.174-14.174-14.174H-9.94c-7.828,0-14.174,6.346-14.174,14.174v5.669H-9.94V18.974H4.942v6.378H-9.941z"
		/>
	
		<path shaper:cutDepth="0.002" fill="none" stroke="#FF0000" stroke-width="0.01" stroke-linecap="round" stroke-linejoin="round" d="
		M21.594-151.104h-6.378v14.882h6.378V-151.104z"/>
	
		<path shaper:cutDepth="0.002" fill="none" stroke="#FF0000" stroke-width="0.01" stroke-linecap="round" stroke-linejoin="round" d="
		M21.594-37.718h-6.378v14.882h6.378V-37.718z"/>
	
		<path shaper:cutDepth="0.002" fill="none" stroke="#FF0000" stroke-width="0.01" stroke-linecap="round" stroke-linejoin="round" d="
		M21.594-9.372h-6.378V5.511h6.378V-9.372z"/>
	
		<path shaper:cutDepth="0.002" fill="none" stroke="#FF0000" stroke-width="0.01" stroke-linecap="round" stroke-linejoin="round" d="
		M21.594-179.45h-6.378v14.882h6.378V-179.45z"/>
	
		<path shaper:cutDepth="0.002" fill="none" stroke="#FF0000" stroke-width="0.01" stroke-linecap="round" stroke-linejoin="round" d="
		M21.594-221.262v-14.882h-6.378v14.882H21.594z"/>
	
		<path shaper:cutDepth="0.002" fill="none" stroke="#FF0000" stroke-width="0.01" stroke-linecap="round" stroke-linejoin="round" d="
		M21.594-207.797h-6.378v14.882h6.378V-207.797z"/>
	
		<path shaper:cutDepth="0.002" fill="none" stroke="#FF0000" stroke-width="0.01" stroke-linecap="round" stroke-linejoin="round" d="
		M21.594-66.065h-6.378v14.882h6.378V-66.065z"/>
	
		<path shaper:cutDepth="0.002" fill="none" stroke="#FF0000" stroke-width="0.01" stroke-linecap="round" stroke-linejoin="round" d="
		M21.594-94.411h-6.378v14.882h6.378V-94.411z"/>
	
		<path shaper:cutDepth="0.002" fill="none" stroke="#FF0000" stroke-width="0.01" stroke-linecap="round" stroke-linejoin="round" d="
		M21.594-122.758h-6.378v14.882h6.378V-122.758z"/>
</g>
</svg>
