<?xml version="1.0" encoding="utf-8"?>
<!-- Generator: Adobe Illustrator 12.0.0, SVG Export Plug-In . SVG Version: 6.00 Build 51448)  -->
<!DOCTYPE svg PUBLIC "-//W3C//DTD SVG 1.1//EN" "http://www.w3.org/Graphics/SVG/1.1/DTD/svg11.dtd" [
	<!ENTITY ns_svg "http://www.w3.org/2000/svg">
	<!ENTITY ns_xlink "http://www.w3.org/1999/xlink">
]>
<svg  version="1.1" id="Ebene_1" shaper:fusionaddin="version:1.6.3" xmlns:shaper="http://www.shapertools.com/namespaces/shaper"
	 xmlns="&ns_svg;" xmlns:xlink="&ns_xlink;" width="37.025" height="55.925" viewBox="0 0 37.025 55.925"
	 overflow="visible" enable-background="new 0 0 37.025 55.925" xml:space="preserve">
<g id="Body_Body61">
	<path shaper:cutDepth="0.002" fill="none" stroke="#FF0000" stroke-width="0.01" d="M15.572,169.564v-14.912h5.669
		c12.736-0.282,25.359-2.473,37.447-6.495l-5.074-13.939l6.66-2.424l5.072,13.938c55.451-10.739,95.5-59.291,95.5-115.772h-14.912
		v-5.67c-0.283-12.736-2.475-25.359-6.496-37.447l-13.939,5.074l-2.424-6.66l13.939-5.072c-10.74-55.451-59.291-95.5-115.773-95.5
		v14.912h-5.669c-12.736,0.283-25.358,2.473-37.446,6.496l5.072,13.938l-6.659,2.425l-5.071-13.938
		c-55.451,10.74-95.501,59.291-95.501,115.773h14.913v5.67c0.282,12.735,2.473,25.356,6.495,37.444l13.938-5.071l2.424,6.66
		l-13.938,5.071C-89.461,129.516-40.91,169.564,15.572,169.564z"/>
	
		<path shaper:cutDepth="0.002" fill="none" stroke="#FF0000" stroke-width="0.01" stroke-linecap="round" stroke-linejoin="round" d="
		M-66.634,27.124c0,46.967,38.074,85.041,85.04,85.041c46.965,0,85.04-38.074,85.04-85.041c0-46.965-38.074-85.039-85.04-85.039
		C-28.559-57.916-66.634-19.841-66.634,27.124z"/>
</g>
<title>svgOutput</title>
<desc>made with tinkercad</desc>
</svg>
