<?xml version="1.0" encoding="utf-8"?>
<svg width="149mm" height="179.99800109863276mm" viewBox="-331 -129.99800109863278 149 179.99800109863276" version="1.1" xmlns="http://www.w3.org/2000/svg">
  <title>svgOutput</title>
  <desc>made with tinkercad</desc>
  <path d="M -330 48.999999999999986 L -330 45.00400161743163 L -330 43.00400161743163 L -330 11.122863769531248 L -330 11.122310638427733 L -330 8.994990348815916 L -330 8.994360923767088 L -330 -13.87813568115234 L -330 -13.878688812255856 L -330 -16.00601005554199 L -330 -16.006639480590817 L -330 -38.87913513183593 L -330 -38.879688262939446 L -330 -41.00701141357421 L -330 -41.00764083862304 L -330 -63.88013458251952 L -330 -63.88068771362303 L -330 -66.0080108642578 L -330 -66.00863647460936 L -330 -88.88113403320311 L -330 -88.88169097900389 L -330 -91.00901031494139 L -330 -91.00963592529295 L -330 -92.99900054931639 L -330 -94.99999999999999 L -330 -97.99999999999997 L -225.0030059814453 -121.57075500488278 L -219.9980010986328 -122.69432830810544 L -195.33799743652344 -128.23023986816403 L -191.91799926757812 -128.99800109863278 L -188.9980010986328 -128.99800109863278 L -186.9980010986328 -128.99800109863278 L -183 -128.99800109863278 L -183 -97.99999999999997 L -183 -94.99999999999999 L -183 -92.99900054931639 L -183 -37.50820159912109 L -183 -37.507217407226555 L -183 -35.37926864624023 L -183 -35.378242492675774 L -183 -12.50720119476318 L -183 -12.506217956542965 L -183 -10.378268241882322 L -183 -10.37724208831787 L -183 12.493799209594723 L -183 12.494781494140621 L -183 14.622732162475582 L -183 14.623758316040036 L -183 37.494800567626946 L -183 37.49578094482421 L -183 39.002998352050774 L -183 39.623733520507805 L -183 39.62475967407226 L -183 43.00400161743163 L -183 45.00400161743163 L -183 48.999999999999986 L -186.9980010986328 48.999999999999986 L -188.9980010986328 48.999999999999986 L -220.08135986328125 48.999999999999986 L -220.0829315185547 48.999999999999986 L -225.9295654296875 48.999999999999986 L -225.9320068359375 48.999999999999986 L -291.00299072265625 48.999999999999986 L -330 48.999999999999986 M -223.2259979248047 -105.10299682617185 L -222.98800659179688 -105.04399871826169 L -222.7449951171875 -105.00800323486325 L -222.5 -104.9960021972656 L -222.2550048828125 -105.00800323486325 L -222.01199340820312 -105.04399871826169 L -221.7740020751953 -105.10299682617185 L -221.54200744628906 -105.18599700927732 L -221.32000732421875 -105.29100036621091 L -221.1840057373047 -105.37259674072263 L -221.11000061035156 -105.4169998168945 L -220.91200256347656 -105.56400299072263 L -220.72999572753906 -105.72799682617185 L -220.5659942626953 -105.91000366210935 L -220.41900634765625 -106.10800170898435 L -220.29299926757812 -106.318000793457 L -220.2088165283203 -106.4960021972656 L -220.18800354003906 -106.54000091552732 L -220.10499572753906 -106.7720031738281 L -220.04600524902344 -107.01000213623044 L -220.00999450683594 -107.25299835205075 L -219.9980010986328 -107.49800109863278 L -220.00999450683594 -107.74299621582028 L -220.04600524902344 -107.98600006103513 L -220.10499572753906 -108.22399902343747 L -220.18800354003906 -108.45600128173825 L -220.2296142578125 -108.54399871826169 L -220.29299926757812 -108.67800140380857 L -220.41900634765625 -108.88800048828122 L -220.5659942626953 -109.08599853515622 L -220.72999572753906 -109.26799774169919 L -220.91200256347656 -109.43199920654294 L -221.11000061035156 -109.57900238037107 L -221.1840057373047 -109.62339782714841 L -221.32000732421875 -109.70500183105466 L -221.54200744628906 -109.80999755859372 L -221.7740020751953 -109.89299774169919 L -222.01199340820312 -109.95200347900388 L -222.2550048828125 -109.98799896240232 L -222.5 -110.00099945068357 L -222.7449951171875 -109.98799896240232 L -222.98800659179688 -109.95200347900388 L -223.2259979248047 -109.89299774169919 L -223.23199462890625 -109.89085388183591 L -223.45799255371094 -109.80999755859372 L -223.67999267578125 -109.70500183105466 L -223.88999938964844 -109.57900238037107 L -224.08799743652344 -109.43199920654294 L -224.27000427246094 -109.26799774169919 L -224.4340057373047 -109.08599853515622 L -224.58099365234375 -108.88800048828122 L -224.70700073242188 -108.67800140380857 L -224.7703857421875 -108.54399871826169 L -224.81199645996094 -108.45600128173825 L -224.89500427246094 -108.22399902343747 L -224.95399475097656 -107.98600006103513 L -224.99000549316406 -107.74299621582028 L -225.0030059814453 -107.49800109863278 L -224.99000549316406 -107.25299835205075 L -224.95399475097656 -107.01000213623044 L -224.89500427246094 -106.7720031738281 L -224.81199645996094 -106.54000091552732 L -224.7911834716797 -106.4960021972656 L -224.70700073242188 -106.318000793457 L -224.58099365234375 -106.10800170898435 L -224.4340057373047 -105.91000366210935 L -224.27000427246094 -105.72799682617185 L -224.08799743652344 -105.56400299072263 L -223.88999938964844 -105.4169998168945 L -223.67999267578125 -105.29100036621091 L -223.45799255371094 -105.18599700927732 L -223.23199462890625 -105.10514831542966 L -223.2259979248047 -105.10299682617185 M -317.43115234375 13.569434165954586 L -318.114990234375 15.44799995422363 L -261.7300109863281 35.97000122070312 L -261.0459899902344 34.09099960327148 L -272.6453857421875 29.86926078796386 L -317.4309997558594 13.569000244140621 L -317.43115234375 13.569434165954586 M -249.5469970703125 38.75799942016601 L -248.78399658203125 38.94100189208984 L -248.0019989013672 39.002998352050774 L -247.5500946044922 39.002998352050774 L -247.54933166503906 39.002998352050774 L -245.75999450683594 39.002998352050774 L -229.37600708007812 39.002998352050774 L -212.99200439453125 39.002998352050774 L -204.8000030517578 39.002998352050774 L -200.70399475097656 39.002998352050774 L -197.9980010986328 39.002998352050774 L -197.21600341796875 38.94100189208984 L -196.60800170898438 38.79517745971679 L -196.4530029296875 38.75799942016601 L -195.72799682617188 38.45800018310546 L -195.0590057373047 38.04800033569335 L -194.46200561523438 37.53799819946288 L -193.9530029296875 36.94100189208984 L -193.9058074951172 36.86399841308593 L -193.54299926757812 36.27199935913085 L -193.3682403564453 35.85107803344726 L -193.36788940429688 35.85021591186523 L -193.24200439453125 35.54700088500976 L -193.0590057373047 34.78400039672851 L -192.9980010986328 34.00199890136718 L -192.9980010986328 33.856887817382805 L -192.9980010986328 33.85601425170898 L -192.9980010986328 10.98483371734619 L -192.9980010986328 10.983839035034178 L -192.9980010986328 8.855889320373533 L -192.9980010986328 8.855015754699705 L -192.9980010986328 -14.016166687011715 L -192.9980010986328 -14.01716041564941 L -192.9980010986328 -16.14511108398437 L -192.9980010986328 -16.1459846496582 L -192.9980010986328 -39.017166137695305 L -192.9980010986328 -39.01816177368163 L -192.9980010986328 -41.14611053466796 L -192.9980010986328 -41.14698410034179 L -192.9980010986328 -65.53600311279295 L -192.9980010986328 -73.72799682617186 L -192.9980010986328 -76.00199890136717 L -193.0590057373047 -76.78500366210936 L -193.24200439453125 -77.54699707031249 L -193.3570098876953 -77.82399749755858 L -193.54299926757812 -78.27200317382811 L -193.9530029296875 -78.94100189208983 L -194.46200561523438 -79.53800201416014 L -195.0590057373047 -80.04799652099608 L -195.72799682617188 -80.45800018310545 L -196.4530029296875 -80.75800323486327 L -196.60800170898438 -80.79517364501952 L -197.21600341796875 -80.94100189208983 L -197.9980010986328 -81.00299835205077 L -200.70399475097656 -81.00299835205077 L -204.8000030517578 -81.00299835205077 L -212.99200439453125 -81.00299835205077 L -229.37600708007812 -81.00299835205077 L -245.75999450683594 -81.00299835205077 L -248.0019989013672 -81.00299835205077 L -248.78399658203125 -80.94100189208983 L -249.5469970703125 -80.75800323486327 L -249.8560028076172 -80.63013458251952 L -250.27200317382812 -80.45800018310545 L -250.9409942626953 -80.04799652099608 L -251.53799438476562 -79.53800201416014 L -252.04800415039062 -78.94100189208983 L -252.45700073242188 -78.27200317382811 L -252.6429901123047 -77.82399749755858 L -252.75799560546875 -77.54699707031249 L -252.9409942626953 -76.78500366210936 L -253.0030059814453 -76.00199890136717 L -253.0030059814453 -73.72799682617186 L -253.0030059814453 -65.53600311279295 L -253.0030059814453 -62.98587036132811 L -253.0030059814453 -62.98565292358397 L -253.0030059814453 -60.85770416259764 L -253.0030059814453 -60.85690307617186 L -253.0030059814453 -37.98486709594726 L -253.0030059814453 -37.98465347290038 L -253.0030059814453 -35.856704711914055 L -253.0030059814453 -35.855903625488274 L -253.0030059814453 -12.983868598937985 L -253.0030059814453 -12.983653068542477 L -253.0030059814453 -10.855703353881834 L -253.0030059814453 -10.854902267456053 L -253.0030059814453 12.017130851745602 L -253.0030059814453 12.01734638214111 L -253.0030059814453 14.14529705047607 L -253.0030059814453 14.146098136901852 L -253.0030059814453 32.76800155639648 L -253.0030059814453 34.00199890136718 L -252.9409942626953 34.78400039672851 L -252.75799560546875 35.54700088500976 L -252.45700073242188 36.27199935913085 L -252.09507751464844 36.86399841308593 L -252.04800415039062 36.94100189208984 L -251.53799438476562 37.53799819946288 L -251.51083374023438 37.561206817626946 L -251.51036071777344 37.5616111755371 L -250.9409942626953 38.04800033569335 L -250.27200317382812 38.45800018310546 L -249.8560028076172 38.63013839721679 L -249.5469970703125 38.75799942016601 M -290.81201171875 37.45999908447265 L -290.7070007324219 37.68199920654296 L -290.58099365234375 37.89199829101562 L -290.4339904785156 38.09000015258788 L -290.2699890136719 38.27199935913085 L -290.0880126953125 38.4360008239746 L -289.8900146484375 38.58300018310546 L -289.67999267578125 38.708999633789055 L -289.4580078125 38.81399917602538 L -289.22601318359375 38.89699935913085 L -288.9880065917969 38.956001281738274 L -288.76800537109375 38.988594055175774 L -288.7449951171875 38.99200057983398 L -288.5 39.00400161743163 L -288.2550048828125 38.99200057983398 L -288.0119934082031 38.956001281738274 L -287.77398681640625 38.89699935913085 L -287.5419921875 38.81399917602538 L -287.32000732421875 38.708999633789055 L -287.1099853515625 38.58300018310546 L -286.9119873046875 38.4360008239746 L -286.7300109863281 38.27199935913085 L -286.7200012207031 38.26090240478515 L -286.5660095214844 38.09000015258788 L -286.41900634765625 37.89199829101562 L -286.2929992675781 37.68199920654296 L -286.18798828125 37.45999908447265 L -286.1050109863281 37.22800064086913 L -286.0459899902344 36.99000167846679 L -286.02734375 36.86399841308593 L -286.010009765625 36.74700164794921 L -285.99798583984375 36.50199890136718 L -286.010009765625 36.256999969482415 L -286.0459899902344 36.01399993896484 L -286.1050109863281 35.77600097656249 L -286.18798828125 35.54399871826171 L -286.2929992675781 35.3219985961914 L -286.41900634765625 35.11199951171874 L -286.5660095214844 34.91400146484374 L -286.7200012207031 34.74309921264648 L -286.7300109863281 34.73199844360351 L -286.9119873046875 34.568000793457024 L -287.1099853515625 34.421001434326165 L -287.32000732421875 34.294998168945305 L -287.5419921875 34.18999862670898 L -287.77398681640625 34.10699844360351 L -288.0119934082031 34.04800033569335 L -288.2550048828125 34.01200103759765 L -288.5 33.99999999999999 L -288.7449951171875 34.01200103759765 L -288.76800537109375 34.01540756225585 L -288.9880065917969 34.04800033569335 L -289.22601318359375 34.10699844360351 L -289.4580078125 34.18999862670898 L -289.67999267578125 34.294998168945305 L -289.8900146484375 34.421001434326165 L -290.0880126953125 34.568000793457024 L -290.2699890136719 34.73199844360351 L -290.4339904785156 34.91400146484374 L -290.58099365234375 35.11199951171874 L -290.7070007324219 35.3219985961914 L -290.81201171875 35.54399871826171 L -290.8160095214844 35.55517959594726 L -290.8949890136719 35.77600097656249 L -290.9540100097656 36.01399993896484 L -290.989990234375 36.256999969482415 L -291.00299072265625 36.50199890136718 L -290.989990234375 36.74700164794921 L -290.97265625 36.86399841308593 L -290.9540100097656 36.99000167846679 L -290.8949890136719 37.22800064086913 L -290.8160095214844 37.4488182067871 L -290.81201171875 37.45999908447265 M -317.43115234375 -86.43456268310545 L -318.114990234375 -84.55599975585936 L -261.7300109863281 -64.03399658203124 L -261.0459899902344 -65.91300201416014 L -272.6453857421875 -70.13473510742186 L -317.4309997558594 -86.43499755859374 L -317.43115234375 -86.43456268310545 M -317.43115234375 -61.433567047119126 L -318.114990234375 -59.55500030517577 L -261.7300109863281 -39.033000946044915 L -261.0459899902344 -40.91199874877929 L -272.6453857421875 -45.13373947143554 L -317.4309997558594 -61.43399810791014 L -317.43115234375 -61.433567047119126 M -317.43115234375 -36.43256759643554 L -318.114990234375 -34.55400085449218 L -261.7300109863281 -14.031999588012692 L -261.0459899902344 -15.911000251770016 L -272.6453857421875 -20.132738113403317 L -317.4309997558594 -36.432998657226555 L -317.43115234375 -36.43256759643554 M -317.43115234375 -11.431566238403319 L -318.114990234375 -9.553000450134276 L -261.7300109863281 10.968999862670897 L -261.0459899902344 9.090000152587889 L -272.6453857421875 4.8682613372802725 L -317.4309997558594 -11.432000160217283 L -317.43115234375 -11.431566238403319 M -186.9980010986328 38.169624328613274 L -186.9980010986328 38.16861343383788 L -186.9980010986328 36.04066085815429 L -186.9980010986328 36.039722442626946 L -186.9980010986328 13.168624877929684 L -186.9980010986328 13.16761207580566 L -186.9980010986328 11.039661407470701 L -186.9980010986328 11.038722038269041 L -186.9980010986328 0.7390000224113464 L -188.9980010986328 0.7390000224113464 L -188.9980010986328 10.310820579528807 L -188.9980010986328 10.311737060546873 L -188.9980010986328 12.439687728881832 L -188.9980010986328 12.440694808959957 L -188.9980010986328 35.31182098388671 L -188.9980010986328 35.31273651123046 L -188.9980010986328 37.440689086914055 L -188.9980010986328 37.44169616699218 L -188.9980010986328 39.002998352050774 L -188.9980010986328 40.00400161743163 L -186.9980010986328 40.00400161743163 L -186.9980010986328 39.002998352050774 L -186.9980010986328 38.169624328613274 M -186.9980010986328 -94.99999999999999 L -186.9980010986328 -97.99999999999997 L -186.9980010986328 -119.99999999999997 L -188.9980010986328 -119.99999999999997 L -188.9980010986328 -97.99999999999997 L -188.9980010986328 -94.99999999999999 L -188.9980010986328 -92.99900054931639 L -188.9980010986328 -80.73500061035155 L -186.9980010986328 -80.73500061035155 L -186.9980010986328 -92.99900054931639 L -186.9980010986328 -94.99999999999999 M -231.06210327148438 45.00400161743163 L -231.06085205078125 45.00400161743163 L -197.4980010986328 45.00400161743163 L -197.4980010986328 43.00400161743163 L -236.55609130859375 43.00400161743163 L -236.55718994140625 43.00400161743163 L -242.40380859375 43.00400161743163 L -242.40609741210938 43.00400161743163 L -247.5 43.00400161743163 L -247.5 45.00400161743163 L -236.91107177734375 45.00400161743163 L -236.9087371826172 45.00400161743163 L -231.06210327148438 45.00400161743163 M -263.5 43.00400161743163 L -291.00299072265625 43.00400161743163 L -313.50201416015625 43.00400161743163 L -313.50201416015625 45.00400161743163 L -291.00299072265625 45.00400161743163 L -263.5 45.00400161743163 L -263.5 43.00400161743163 M -186.9980010986328 -38.96233749389648 L -186.9980010986328 -38.96327590942382 L -186.9980010986328 -59.99900054931639 L -188.9980010986328 -59.99900054931639 L -188.9980010986328 -39.69118118286132 L -188.9980010986328 -39.690261840820305 L -188.9980010986328 -37.56231307983398 L -188.9980010986328 -37.56130599975585 L -188.9980010986328 -19.996999740600582 L -186.9980010986328 -19.996999740600582 L -186.9980010986328 -36.83337402343749 L -186.9980010986328 -36.83438873291015 L -186.9980010986328 -38.96233749389648 M -197.4980010986328 -94.99999999999999 L -247.5 -94.99999999999999 L -247.5 -92.99900054931639 L -197.4980010986328 -92.99900054931639 L -197.4980010986328 -94.99999999999999 M -263.5 -94.99999999999999 L -313.50201416015625 -94.99999999999999 L -313.50201416015625 -92.99900054931639 L -263.5 -92.99900054931639 L -263.5 -94.99999999999999 z" fill="none" stroke="rgb(255,0,0)" style="stroke-width: 0.5px;"/>
</svg>