<?xml version="1.0" encoding="utf-8"?>
<svg width="82mm" height="141.99999999999997mm" viewBox="202 -9.999999999999998 82 141.99999999999997" version="1.1" xmlns="http://www.w3.org/2000/svg">
  <title>svgOutput</title>
  <desc>made with tinkercad</desc>
  <path d="M 282.87701416015625 -0.5640000104904173 L 282.9213562011719 1.1102230246251565e-16 L 283 0.9999999999999999 L 283 16.38400077819824 L 283 32.76800155639648 L 283 49.15200042724608 L 283 65.53600311279295 L 283 81.9199981689453 L 283 98.30400085449216 L 283 114.68800354003903 L 283 120.99999999999997 L 282.87701416015625 122.56400299072263 L 282.510986328125 124.0899963378906 L 281.9100036621094 125.54000091552732 L 281.0899963378906 126.87799835205075 L 280.0710144042969 128.07099914550778 L 278.87799072265625 129.0899963378906 L 278.52801513671875 129.30450439453122 L 277.5400085449219 129.91000366210935 L 276.0899963378906 130.51100158691403 L 274.5639953613281 130.87699890136716 L 273 130.99999999999997 L 268.50299072265625 130.99999999999997 L 268.50299072265625 129.00399780273435 L 262.1440124511719 129.00399780273435 L 245.75999450683594 129.00399780273435 L 229.37600708007812 129.00399780273435 L 218.4980010986328 129.00399780273435 L 218.4980010986328 130.99999999999997 L 213 130.99999999999997 L 212.99200439453125 130.9993743896484 L 211.43600463867188 130.87699890136716 L 209.91000366210938 130.51100158691403 L 208.4600067138672 129.91000366210935 L 207.1219940185547 129.0899963378906 L 205.9290008544922 128.07099914550778 L 204.91000366210938 126.87799835205075 L 204.8000030517578 126.69850921630857 L 204.08999633789062 125.54000091552732 L 203.48899841308594 124.0899963378906 L 203.19879150390625 122.87999725341794 L 203.1230010986328 122.56400299072263 L 203 120.99999999999997 L 203 114.68800354003903 L 203 98.30400085449216 L 203 81.9199981689453 L 203 65.53600311279295 L 203 49.15200042724608 L 203 32.76800155639648 L 203 16.38400077819824 L 203 0.9999999999999999 L 203.07864379882812 1.1102230246251565e-16 L 203.1230010986328 -0.5640000104904173 L 203.48899841308594 -2.089999914169311 L 204.08999633789062 -3.5399999618530265 L 204.8000030517578 -4.698512077331542 L 204.91000366210938 -4.877999782562255 L 205.9290008544922 -6.071000099182127 L 207.1219940185547 -7.090000152587889 L 208.4600067138672 -7.909999847412108 L 209.91000366210938 -8.510999679565428 L 211.43600463867188 -8.876999855041502 L 212.99200439453125 -8.99937057495117 L 213 -8.999999999999998 L 218.4980010986328 -8.999999999999998 L 218.4980010986328 -6.999999999999998 L 228.99899291992188 -6.999999999999998 L 229.37600708007812 -6.999999999999998 L 233.99899291992188 -6.999999999999998 L 245.75999450683594 -6.999999999999998 L 262.1440124511719 -6.999999999999998 L 268.50299072265625 -6.999999999999998 L 268.50299072265625 -8.999999999999998 L 273 -8.999999999999998 L 274.5639953613281 -8.876999855041502 L 276.0899963378906 -8.510999679565428 L 277.5400085449219 -7.909999847412108 L 278.52801513671875 -7.304499149322508 L 278.87799072265625 -7.090000152587889 L 280.0710144042969 -6.071000099182127 L 281.0899963378906 -4.877999782562255 L 281.9100036621094 -3.5399999618530265 L 282.510986328125 -2.089999914169311 L 282.87701416015625 -0.5640000104904173 M 230.7259979248047 65.1230010986328 L 230.0290069580078 65.47799682617186 L 229.9709930419922 65.53600311279295 L 229.4759979248047 66.03099822998045 L 229.37600708007812 66.22734069824217 L 229.12100219726562 66.72799682617186 L 228.99899291992188 67.49999999999999 L 229.12100219726562 68.2730026245117 L 229.37600708007812 68.77365875244139 L 229.4759979248047 68.97000122070311 L 230.0290069580078 69.5230026245117 L 230.7259979248047 69.87799835205077 L 231.49899291992188 69.99999999999999 L 232.27099609375 69.87799835205077 L 232.96800231933594 69.5230026245117 L 233.52200317382812 68.97000122070311 L 233.8769989013672 68.2730026245117 L 233.99899291992188 67.49999999999999 L 233.8769989013672 66.72799682617186 L 233.52200317382812 66.03099822998045 L 233.02610778808594 65.53600311279295 L 232.96800231933594 65.47799682617186 L 232.27099609375 65.1230010986328 L 231.49899291992188 64.99999999999999 L 230.7259979248047 65.1230010986328 z" fill="none" stroke="rgb(255,0,0)" style="stroke-width: 0.5px;"/>
</svg>