<?xml version="1.0" encoding="utf-8"?>
<svg width="322mm" height="148.99999999999997mm" viewBox="-153 41.49999999999999 322 148.99999999999997" version="1.1" xmlns="http://www.w3.org/2000/svg">
  <title>svgOutput</title>
  <desc>made with tinkercad</desc>
  <path d="M -152 56.999999999999986 L -150 56.999999999999986 L -148 56.999999999999986 L -148 48.50299835205077 L -128.0019989013672 48.50299835205077 L -128.0019989013672 42.49999999999999 L -63.50299835205078 42.49999999999999 L -63.50299835205078 48.50299835205077 L -43.49800109863281 48.50299835205077 L -43.49800109863281 42.49999999999999 L 21 42.49999999999999 L 41 42.49999999999999 L 59.49800109863281 42.49999999999999 L 59.49800109863281 48.50299835205077 L 79.50299835205078 48.50299835205077 L 79.50299835205078 42.49999999999999 L 144.0019989013672 42.49999999999999 L 144.0019989013672 48.50299835205077 L 164 48.50299835205077 L 164 56.999999999999986 L 166 56.999999999999986 L 168 56.999999999999986 L 168 106.99999999999997 L 166 106.99999999999997 L 164 106.99999999999997 L 164 122.99999999999997 L 166 122.99999999999997 L 166 172.99999999999997 L 164 172.99999999999997 L 164 189.49999999999997 L 30.99799919128418 189.49999999999997 L 9.003000259399414 189.49999999999997 L 6.998000144958496 189.49999999999997 L -148 189.49999999999997 L -148 172.99999999999997 L -150 172.99999999999997 L -150 122.99999999999997 L -148 122.99999999999997 L -148 106.99999999999997 L -150 106.99999999999997 L -152 106.99999999999997 L -152 56.999999999999986 M 9.003000259399414 128.99899291992185 L 6.998000144958496 128.99899291992185 L 6.998000144958496 169.0010070800781 L 9.003000259399414 169.0010070800781 L 9.003000259399414 128.99899291992185 z" fill="none" stroke="rgb(255,0,0)" style="stroke-width: 0.5px;"/>
</svg>