<?xml version="1.0" encoding="utf-8"?>
<svg width="318mm" height="179.99999999999997mm" viewBox="-151 -142.49999999999997 318 179.99999999999997" version="1.1" xmlns="http://www.w3.org/2000/svg">
  <title>svgOutput</title>
  <desc>made with tinkercad</desc>
  <path d="M -150 -11.764 L -148 -11.764 L -148 -32.5 L -150 -32.5 L -150 -72.5 L -148 -72.5 L -148 -93.236 L -150 -93.236 L -150 -132.5 L -148 -132.5 L -148 -141.5 L -126.503 -141.5 L -111.502 -141.5 L 30.998 -141.5 L 127.502 -141.5 L 142.503 -141.5 L 164 -141.5 L 164 -132.5 L 166 -132.5 L 166 -117.498 L 166 -107.503 L 166 -105.498 L 166 -93.236 L 164 -93.236 L 164 -72.5 L 166 -72.5 L 166 -32.5 L 164 -32.5 L 164 -18.498 L 164 -11.764 L 166 -11.764 L 166 6.503 L 166 27.5 L 164 27.5 L 164 30.498 L 164 30.5 L 164 32.502 L 164 36.5 L 30.998 36.5 L 17.998 36.5 L -148 36.5 L -148 32.502 L -148 30.498 L -148 27.5 L -150 27.5 L -150 -11.764 M 21 30.498 L 17.998 30.498 L -43.499 30.498 L -43.499 32.502 L 17.998 32.502 L 21 32.502 L 30.998 32.502 L 41 32.502 L 59.499 32.502 L 59.499 30.5 L 59.499 30.498 L 41 30.498 L 30.998 30.498 L 21 30.498 M 21 -107.503 L 17.998 -107.503 L -43.499 -107.503 L -43.499 -105.498 L 17.998 -105.498 L 21 -105.498 L 30.998 -105.498 L 41 -105.498 L 59.499 -105.498 L 59.499 -107.5 L 59.499 -107.503 L 41 -107.503 L 30.998 -107.503 L 21 -107.503 M -128.004 -107.503 L -128.004 -105.498 L -96.003 -105.498 L -91.998 -105.498 L -63.504 -105.498 L -63.504 -107.503 L -126.503 -107.503 L -128.004 -107.503 M -128.004 30.498 L -128.004 32.502 L -63.504 32.502 L -63.504 30.498 L -96.003 30.498 L -128.004 30.498 M -96 -20.48 L -95.904 -19.881 L -95.62 -19.323 L -95.177 -18.88 L -94.619 -18.596 L -94 -18.498 L -93.381 -18.596 L -92.823 -18.88 L -92.38 -19.323 L -92.096 -19.881 L -92.001 -20.48 L -91.998 -20.5 L -92.096 -21.119 L -92.38 -21.677 L -92.823 -22.12 L -93.381 -22.404 L -94 -22.503 L -94.619 -22.404 L -95.177 -22.12 L -95.62 -21.677 L -95.904 -21.119 L -96.003 -20.5 L -96 -20.48 M -93.381 -43.596 L -92.823 -43.88 L -92.38 -44.323 L -92.096 -44.881 L -92.068 -45.056 L -91.998 -45.5 L -92.096 -46.119 L -92.38 -46.677 L -92.823 -47.12 L -93.381 -47.404 L -94 -47.503 L -94.619 -47.404 L -95.177 -47.12 L -95.62 -46.677 L -95.904 -46.119 L -96.003 -45.5 L -95.932 -45.056 L -95.904 -44.881 L -95.62 -44.323 L -95.177 -43.88 L -94.619 -43.596 L -94 -43.498 L -93.381 -43.596 M 108.001 -20.48 L 108.096 -19.881 L 108.38 -19.323 L 108.823 -18.88 L 109.381 -18.596 L 110 -18.498 L 110.619 -18.596 L 111.177 -18.88 L 111.62 -19.323 L 111.904 -19.881 L 112 -20.48 L 112.003 -20.5 L 111.904 -21.119 L 111.62 -21.677 L 111.177 -22.12 L 110.619 -22.404 L 110 -22.503 L 109.381 -22.404 L 108.823 -22.12 L 108.38 -21.677 L 108.096 -21.119 L 107.998 -20.5 L 108.001 -20.48 M 111.932 -45.056 L 112.003 -45.5 L 111.904 -46.119 L 111.62 -46.677 L 111.177 -47.12 L 110.619 -47.404 L 110 -47.503 L 109.381 -47.404 L 108.823 -47.12 L 108.38 -46.677 L 108.096 -46.119 L 107.998 -45.5 L 108.068 -45.056 L 108.096 -44.881 L 108.38 -44.323 L 108.823 -43.88 L 109.381 -43.596 L 110 -43.498 L 110.619 -43.596 L 111.177 -43.88 L 111.62 -44.323 L 111.904 -44.881 L 111.932 -45.056 M -95.938 4.096 L -96.003 4.5 L -95.904 5.119 L -95.62 5.677 L -95.177 6.12 L -94.619 6.404 L -94 6.503 L -93.381 6.404 L -92.823 6.12 L -92.38 5.677 L -92.096 5.119 L -91.998 4.5 L -92.062 4.096 L -92.096 3.881 L -92.38 3.323 L -92.823 2.88 L -93.381 2.596 L -94 2.498 L -94.619 2.596 L -95.177 2.88 L -95.62 3.323 L -95.904 3.881 L -95.938 4.096 M 108.062 4.096 L 107.998 4.5 L 108.096 5.119 L 108.38 5.677 L 108.823 6.12 L 109.381 6.404 L 110 6.503 L 110.619 6.404 L 111.177 6.12 L 111.62 5.677 L 111.904 5.119 L 112.003 4.5 L 111.938 4.096 L 111.904 3.881 L 111.62 3.323 L 111.177 2.88 L 110.619 2.596 L 110 2.498 L 109.381 2.596 L 108.823 2.88 L 108.38 3.323 L 108.096 3.881 L 108.062 4.096 M -123.169 -118.762 L -122.88 -118.588 L -122.538 -118.383 L -121.873 -118.069 L -121.18 -117.821 L -120.466 -117.642 L -119.738 -117.534 L -119.002 -117.498 L -118.267 -117.534 L -117.539 -117.642 L -116.825 -117.821 L -116.132 -118.069 L -115.467 -118.383 L -114.836 -118.762 L -114.688 -118.871 L -114.244 -119.2 L -113.699 -119.695 L -113.205 -120.24 L -112.766 -120.832 L -112.388 -121.463 L -112.073 -122.129 L -111.825 -122.822 L -111.81 -122.88 L -111.646 -123.536 L -111.538 -124.265 L -111.502 -125 L -111.538 -125.735 L -111.646 -126.464 L -111.825 -127.178 L -112.073 -127.871 L -112.388 -128.537 L -112.766 -129.168 L -113.205 -129.76 L -113.699 -130.305 L -114.244 -130.8 L -114.612 -131.072 L -114.836 -131.238 L -115.467 -131.617 L -116.132 -131.931 L -116.825 -132.179 L -117.539 -132.358 L -118.267 -132.466 L -119.002 -132.503 L -119.738 -132.466 L -120.466 -132.358 L -121.18 -132.179 L -121.873 -131.931 L -122.538 -131.617 L -123.169 -131.238 L -123.393 -131.072 L -123.76 -130.8 L -124.306 -130.305 L -124.8 -129.76 L -125.239 -129.168 L -125.617 -128.537 L -125.932 -127.871 L -126.18 -127.178 L -126.358 -126.464 L -126.466 -125.735 L -126.503 -125 L -126.466 -124.265 L -126.358 -123.536 L -126.194 -122.88 L -126.18 -122.822 L -125.932 -122.129 L -125.617 -121.463 L -125.239 -120.832 L -124.8 -120.24 L -124.306 -119.695 L -123.76 -119.2 L -123.169 -118.762 M 135.062 -132.5 L 135.738 -132.466 L 136.466 -132.358 L 137.18 -132.179 L 137.873 -131.931 L 138.538 -131.617 L 139.169 -131.238 L 139.393 -131.072 L 139.76 -130.8 L 140.306 -130.305 L 140.8 -129.76 L 141.239 -129.168 L 141.617 -128.537 L 141.932 -127.871 L 142.18 -127.178 L 142.358 -126.464 L 142.466 -125.735 L 142.503 -125 L 142.466 -124.265 L 142.358 -123.536 L 142.194 -122.88 L 142.18 -122.822 L 141.932 -122.129 L 141.617 -121.463 L 141.239 -120.832 L 140.8 -120.24 L 140.306 -119.695 L 139.76 -119.2 L 139.264 -118.832 L 139.169 -118.762 L 138.538 -118.383 L 137.873 -118.069 L 137.18 -117.821 L 136.466 -117.642 L 135.738 -117.534 L 135.002 -117.498 L 134.267 -117.534 L 133.539 -117.642 L 132.825 -117.821 L 132.132 -118.069 L 131.467 -118.383 L 131.072 -118.62 L 130.836 -118.762 L 130.244 -119.2 L 129.699 -119.695 L 129.205 -120.24 L 128.766 -120.832 L 128.388 -121.463 L 128.073 -122.129 L 127.825 -122.822 L 127.81 -122.88 L 127.646 -123.536 L 127.538 -124.265 L 127.502 -125 L 127.538 -125.735 L 127.646 -126.464 L 127.825 -127.178 L 128.073 -127.871 L 128.388 -128.537 L 128.766 -129.168 L 129.205 -129.76 L 129.699 -130.305 L 130.244 -130.8 L 130.612 -131.072 L 130.836 -131.238 L 131.467 -131.617 L 132.132 -131.931 L 132.825 -132.179 L 133.539 -132.358 L 134.267 -132.466 L 134.942 -132.5 L 135.002 -132.503 L 135.062 -132.5 M 79.504 -107.5 L 79.504 -105.498 L 144.004 -105.498 L 144.004 -107.5 L 144.004 -107.503 L 79.504 -107.503 L 79.504 -107.5 M 79.504 30.5 L 79.504 32.502 L 144.004 32.502 L 144.004 30.5 L 144.004 30.498 L 79.504 30.498 L 79.504 30.5 M 137.462 -132.503 L 137.466 -132.5 L 137.068 -132.5 L 137.063 -132.503 L 136.662 -132.503 L 136.668 -132.5 L 136.283 -132.5 L 136.275 -132.503 L 135.888 -132.503 L 135.9 -132.5" fill="none" stroke="rgb(255,0,0)" style="stroke-width: 0.5px;"/>
</svg>